<svg xmlns="http://www.w3.org/2000/svg" viewBox="0 0 500 500"><g id="freepik--character-1--inject-2"><path d="M251.67,201.29S217,219.62,216.33,221.62s5,39.67,7,53A262.54,262.54,0,0,1,225.67,305v5.67h92S324.33,213,322,212s-43-14.33-43-14.33Z" style="fill:#fff;stroke:#263238;stroke-linecap:round;stroke-linejoin:round"></path><path d="M287.87,242.7s-3.69-.47-8.7-5.63V237l0,0,0,0v.07c-5,5.16-8.7,5.63-8.7,5.63-1.32,10.81,7.81,14.52,8.7,14.85v0l0,0,0,0v0C280.05,257.22,289.19,253.51,287.87,242.7Z" style="fill:#407BFF"></path><path d="M279.15,258.57a.62.62,0,0,1-.19,0,1,1,0,0,1-.34-.11,14.69,14.69,0,0,1-9.22-15.86,1,1,0,0,1,.87-.87s3.41-.54,8-5.24A1.05,1.05,0,0,1,279,236a.92.92,0,0,1,.52.06,1.05,1.05,0,0,1,.51.44c4.57,4.64,7.93,5.18,8,5.18a1,1,0,0,1,.85.87,14.69,14.69,0,0,1-9.19,15.85A1.07,1.07,0,0,1,279.15,258.57Zm-7.83-15.06a12.66,12.66,0,0,0,7.81,13,12.68,12.68,0,0,0,7.82-13c-1.34-.39-4.24-1.59-7.82-5.06C275.55,241.92,272.66,243.12,271.32,243.51Z" style="fill:#263238"></path><path d="M254,221.2s-.66,32.42,0,49.09,2.67,40.33,2.67,40.33" style="fill:none;stroke:#263238;stroke-linecap:round;stroke-linejoin:round"></path><circle cx="257" cy="232.95" r="1.33" style="fill:none;stroke:#263238;stroke-linecap:round;stroke-linejoin:round"></circle><circle cx="257" cy="263.95" r="1.33" style="fill:#fff;stroke:#263238;stroke-linecap:round;stroke-linejoin:round"></circle><path d="M260,288.29a1.34,1.34,0,1,1-1.33-1.34A1.34,1.34,0,0,1,260,288.29Z" style="fill:#fff;stroke:#263238;stroke-linecap:round;stroke-linejoin:round"></path><path d="M295.67,297.29l-10.34,5.33s-13-8.33-17.33-8.67-9.67.34-12.67,3-4.66,4.67-8,4.67-7.33.33-5.33,3,9,2.67,11.67,1.67,6.66-2,6.66-2a10.84,10.84,0,0,0,5.67,4,31.61,31.61,0,0,0,7.33,1s6.34,4,10.34,3.66a23.92,23.92,0,0,0,7-1.66L303,307.62S299.67,299.62,295.67,297.29Z" style="fill:#ababab;stroke:#263238;stroke-linecap:round;stroke-linejoin:round"></path><path d="M265,291.29s-4-2.34-6,0-2.67,14.33-1.67,15.66,1.67-1.66,3-2.66S265,291.29,265,291.29Z" style="fill:#ababab;stroke:#263238;stroke-linecap:round;stroke-linejoin:round"></path><path d="M272,292.62s-5-3-7-1.33-5.67,15-4.67,16.33,4,0,4.34-1.67,6-10.33,6-10.33Z" style="fill:#ababab;stroke:#263238;stroke-linecap:round;stroke-linejoin:round"></path><path d="M280,298s-6.33-6-8-5.33-11,14.67-8.67,16.33,10.34-8.33,10.34-8.33l3,2.33" style="fill:#ababab;stroke:#263238;stroke-linecap:round;stroke-linejoin:round"></path><path d="M288.67,305.62s-6-9.67-8-9.67-13.34,10.34-13.34,10.34,3.34,2.66,4.34,2,6.66-4.34,6.66-4.34,1,5.34,4.67,6.34" style="fill:#ababab;stroke:#263238;stroke-linecap:round;stroke-linejoin:round"></path><path d="M316.67,211s7.66,0,8.33,3.34S326.33,225,326.33,225s29.34,68.67,28.34,71.67-45.67,17.67-47,17.67-12-17-12-17l21.66-13.67L306,253.29" style="fill:#fff;stroke:#263238;stroke-linecap:round;stroke-linejoin:round"></path><path d="M312.33,232.29s-9.66,8.33-10.33,19" style="fill:none;stroke:#263238;stroke-linecap:round;stroke-linejoin:round"></path><path d="M304.33,232S299,240.29,299,250.29" style="fill:none;stroke:#263238;stroke-linecap:round;stroke-linejoin:round"></path><path d="M317.33,283.62s6.34-5.67,9-5.67,8.67,1.34,10,7" style="fill:none;stroke:#263238;stroke-linecap:round;stroke-linejoin:round"></path><path d="M321.67,277.29s9-5.34,12-3a17.73,17.73,0,0,1,4.66,6.33" style="fill:none;stroke:#263238;stroke-linecap:round;stroke-linejoin:round"></path><path d="M216.33,221.62l-10,64s-11,8-7,20c1.58,4.74,6,7,26.34,5a214.11,214.11,0,0,0,0-36.33C224,253,216.33,221.62,216.33,221.62Z" style="fill:#fff;stroke:#263238;stroke-linecap:round;stroke-linejoin:round"></path><path d="M214,294.22s6.85.16,7.33.95.48,11.47-1.11,12.59-2.71,1.59-3.35,0-1.75-4.94-1.75-4.94-4.3,4.78-8.45,3.82-4.62-2.86-5.89-3.34-3,.16-5.9-1-6.05-5.41-6.05-5.41-7.65,6.69-9.24,5.89.16-3.34,2.71-6.05,4.3-5.42,6.85-6.06,12.74-1.91,15.93-.95,5.9,2.39,6.21,2.86A13,13,0,0,0,214,294.22Z" style="fill:#ababab;stroke:#263238;stroke-linecap:round;stroke-linejoin:round"></path><path d="M193.15,288.64s-4.3-.8-4.78,2.07.64,14,1.75,15a2.77,2.77,0,0,0,4.15-1.44c.63-1.91.47-11.94.47-11.94S195.22,289.6,193.15,288.64Z" style="fill:#ababab;stroke:#263238;stroke-linecap:round;stroke-linejoin:round"></path><path d="M201.12,290.39s-6.38-4-8-1.75.16,15.77,1,17.53,3.82,2.39,4.46.47.79-9.87,1-10.35" style="fill:#ababab;stroke:#263238;stroke-linecap:round;stroke-linejoin:round"></path><path d="M204.78,292.62c-.16.48,0,14.5-1.91,15.46s-4.62.95-4.62-5.42.32-14.18,2.07-14.82,6.69,2.08,8.45,3.67" style="fill:#ababab;stroke:#263238;stroke-linecap:round;stroke-linejoin:round"></path><line x1="215.14" y1="302.82" x2="213.7" y2="296.45" style="fill:#ababab;stroke:#263238;stroke-linecap:round;stroke-linejoin:round"></line><polygon points="242.93 201.18 242.93 219.35 252.15 212.76 242.93 201.18" style="fill:#bababa;stroke:#263238;stroke-linecap:round;stroke-linejoin:round"></polygon><polygon points="253.99 221.19 242.93 201.18 253.73 193.53 253.99 221.19" style="fill:#fff;stroke:#263238;stroke-linecap:round;stroke-linejoin:round"></polygon><path d="M250.56,189.06s2.11,18.17,2.64,23.44.79,8.7.79,8.7,16.33-19,19.49-23.19,3.95-5.53,3.95-5.53l.8-19.49Z" style="fill:#ababab;stroke:#263238;stroke-linecap:round;stroke-linejoin:round"></path><path d="M251,192.87a12.21,12.21,0,0,0,11.27,1.86c7-2.57,9-7,10.53-8.53,1-1,3.1-2.38,5.05-4l.38-9.21-27.67,16.07S250.74,190.58,251,192.87Z" style="fill:#263238;stroke:#263238;stroke-linecap:round;stroke-linejoin:round"></path><polygon points="261.37 204.34 253.99 221.19 266.9 212.76 261.37 204.34" style="fill:#bababa;stroke:#263238;stroke-linecap:round;stroke-linejoin:round"></polygon><polygon points="261.37 204.34 267.42 220.67 285.34 197.49 280.07 186.69 261.37 204.34" style="fill:#fff;stroke:#263238;stroke-linecap:round;stroke-linejoin:round"></polygon><path d="M242.71,119.88a28,28,0,0,0-10.51,15.58c-2.43,10.19,2.71,21.26,3.09,24.67s-1.08,7.84.53,12.05,8.73,10.88,9.87,14,7.52,8.74,14.46,6.2,9.12-7,10.7-8.54,6-4.12,8.14-7,3.49-4.94,3.49-4.94,5.62-13.81,6.1-26.12-6.82-26.27-20.61-30.11S242.71,119.88,242.71,119.88Z" style="fill:#ababab;stroke:#263238;stroke-linecap:round;stroke-linejoin:round"></path><path d="M231.51,153s.19,8.12,3.14,10.25,9.31,2,11.88.93,4.06-6.49,5.14-8.05,4.59-.73,4.59-.73,2.51,7.1,4.5,7.91,8.28,2.2,12.68-.1S278.7,152,278.7,152s2.56-.49,1.85-1.81-20.23-1.3-22.54-.54-2.61,1.8-3.87,1.78-3-1.34-4.26-1.36-18.77.29-18.77.29Z" style="fill:#fff;opacity:0.5"></path><path d="M268,115.74c-13.79-3.84-25.26,4.14-25.26,4.14a28.47,28.47,0,0,0-9.5,12.38c.55-1.3,2.81-6.1,7-7.17,4.87-1.25,4.94,3.2,11.09,1.7s15.71-6.35,19.93-3.94,7.56,7.43,5.84,12.65-1.89,9.14-.16,10.47,3.83,5.55,4,8.17c.13,2.16,3,3.63,6.05,3.24a65.63,65.63,0,0,0,1.63-11.53C289.07,133.55,281.76,119.58,268,115.74Z" style="fill:#263238;stroke:#263238;stroke-linecap:round;stroke-linejoin:round"></path><path d="M247.74,165.78s-1.62,2.34-.14,3.41a2.16,2.16,0,0,0,2.78.29" style="fill:none;stroke:#263238;stroke-linecap:round;stroke-linejoin:round"></path><path d="M249.42,168.16a8,8,0,0,0,4,1.88c2.27.29,4.64-2,4.64-2" style="fill:none;stroke:#263238;stroke-linecap:round;stroke-linejoin:round"></path><path d="M257.24,169s.72,1.06,2.8-.22c0,0,2.82-.76,1.17-3.92" style="fill:none;stroke:#263238;stroke-linecap:round;stroke-linejoin:round"></path><path d="M247.89,174.69s7.74,3,14.51-1.39" style="fill:none;stroke:#263238;stroke-linecap:round;stroke-linejoin:round"></path><path d="M266.6,156.72c-.05,1.37-.72,2.48-1.49,2.47s-1.35-1.14-1.29-2.51.72-2.48,1.49-2.47S266.66,155.34,266.6,156.72Z" style="fill:#263238"></path><path d="M246.82,156.86c0,1.38-.72,2.48-1.49,2.47s-1.35-1.13-1.29-2.5.72-2.48,1.49-2.47S246.88,155.49,246.82,156.86Z" style="fill:#263238"></path><path d="M231.51,153s.19,8.12,3.14,10.25,9.31,2,11.88.93,4.06-6.49,5.14-8.05,4.59-.73,4.59-.73,2.51,7.1,4.5,7.91,8.28,2.2,12.68-.1S278.7,152,278.7,152s2.56-.49,1.85-1.81-20.23-1.3-22.54-.54-2.61,1.8-3.87,1.78-3-1.34-4.26-1.36-18.77.29-18.77.29Z" style="fill:none;stroke:#263238;stroke-linecap:round;stroke-linejoin:round"></path><polygon points="280.55 150.21 288.76 154.24 288.2 155.54 278.7 152.02 280.55 150.21" style="fill:#263238;stroke:#263238;stroke-linecap:round;stroke-linejoin:round"></polygon><path d="M258,149.67c-2.31.75-2.61,1.8-3.87,1.78s-3-1.34-4.26-1.36-18.77.29-18.77.29l.24,1.56,18.35-.28s2.68-.22,2.33,1.86c-.5,2.9-.36,2.62-.36,2.62,1.07-1.56,4.59-.73,4.59-.73l.25.67c-.17-1.32-.31-3.38.39-4.07,1.06-1,5.86-.71,10.18-.92a75.66,75.66,0,0,1,11.62.93l1.76-1.9C278.89,148.89,260.26,148.93,258,149.67Z" style="fill:#263238;stroke:#263238;stroke-linecap:round;stroke-linejoin:round"></path><path d="M281,159.12s6.16-8.31,9.13-6.44.6,10.49-1.33,14.4-6.53,4.89-7.42,1.74" style="fill:#ababab;stroke:#263238;stroke-linecap:round;stroke-linejoin:round"></path></g><g id="freepik--Device--inject-2"><polygon points="242.86 310.29 165.53 310.29 155.81 256.62 233.14 256.62 242.86 310.29" style="fill:#263238;stroke:#263238;stroke-linecap:round;stroke-linejoin:round"></polygon><polygon points="239.86 310.29 162.53 310.29 152.81 256.62 230.14 256.62 239.86 310.29" style="fill:#407BFF;stroke:#263238;stroke-linecap:round;stroke-linejoin:round"></polygon><polygon points="165.53 310.29 239.86 310.29 232.7 270.76 165.53 310.29" style="fill:#263238;stroke:#263238;stroke-linecap:round;stroke-linejoin:round"></polygon><rect x="162.53" y="310.29" width="121.58" height="3.25" style="fill:#407BFF;stroke:#263238;stroke-linecap:round;stroke-linejoin:round"></rect><rect x="240.9" y="310.29" width="43.21" height="3.25" style="fill:#263238;stroke:#263238;stroke-linecap:round;stroke-linejoin:round"></rect></g></svg>