<svg xmlns="http://www.w3.org/2000/svg" viewBox="0 0 750 500"><g id="freepik--background-complete--inject-3"><path d="M673.73,332.77H493a5.87,5.87,0,0,1-5.86-5.86V63.64A5.87,5.87,0,0,1,493,57.77H673.73a5.87,5.87,0,0,1,5.87,5.87V326.91A5.87,5.87,0,0,1,673.73,332.77ZM493,58a5.62,5.62,0,0,0-5.61,5.62V326.91a5.61,5.61,0,0,0,5.61,5.61H673.73a5.62,5.62,0,0,0,5.62-5.61V63.64A5.62,5.62,0,0,0,673.73,58Z" style="fill:#e0e0e0"></path><path d="M465.31,332.77H284.56a5.87,5.87,0,0,1-5.86-5.86V63.64a5.87,5.87,0,0,1,5.86-5.87H465.31a5.87,5.87,0,0,1,5.86,5.87V326.91A5.87,5.87,0,0,1,465.31,332.77ZM284.56,58A5.62,5.62,0,0,0,279,63.64V326.91a5.62,5.62,0,0,0,5.61,5.61H465.31a5.62,5.62,0,0,0,5.61-5.61V63.64A5.62,5.62,0,0,0,465.31,58Z" style="fill:#e0e0e0"></path><path d="M257,332.77H76.27a5.87,5.87,0,0,1-5.87-5.86V63.64a5.87,5.87,0,0,1,5.87-5.87H257a5.87,5.87,0,0,1,5.86,5.87V326.91A5.87,5.87,0,0,1,257,332.77ZM76.27,58a5.62,5.62,0,0,0-5.62,5.62V326.91a5.62,5.62,0,0,0,5.62,5.61H257a5.61,5.61,0,0,0,5.61-5.61V63.64A5.62,5.62,0,0,0,257,58Z" style="fill:#e0e0e0"></path><rect y="364.09" width="750" height="0.12" style="fill:#e0e0e0"></rect><rect x="653.63" y="382.51" width="55.73" height="0.42" style="fill:#ebebeb"></rect><rect x="495.04" y="387.08" width="14.63" height="0.42" style="fill:#ebebeb"></rect><rect x="40.64" y="369.72" width="72.67" height="0.42" style="fill:#ebebeb"></rect><rect x="128.3" y="369.72" width="10.66" height="0.42" style="fill:#ebebeb"></rect><rect x="173.59" y="376.82" width="157.61" height="0.42" style="fill:#ebebeb"></rect><path d="M62.54,342.14c0-.51-1.74-51.16-10-59.17-8-7.79-17.21-.29-17.59,0l-.83-1c.11-.08,10.49-8.56,19.32,0,8.61,8.37,10.3,57.95,10.36,60.05Z" style="fill:#e0e0e0"></path><path d="M63.24,352.1c-.06-.61-5.63-60.81,16.36-86l1,.85C59,291.72,64.47,351.37,64.53,352Z" style="fill:#e0e0e0"></path><path d="M62.43,345.73l-1.29-.09c0-.68,4.31-68.44-11.82-83.27l.87-.95C66.77,276.67,62.61,342.92,62.43,345.73Z" style="fill:#e0e0e0"></path><path d="M64.53,345.69H63.24c0-1.87.53-45.77,13-52.91a8.82,8.82,0,0,1,8.07-.79c7.54,3.12,11.28,16.54,11.43,17.11l-1.24.34c0-.13-3.73-13.38-10.68-16.26a7.63,7.63,0,0,0-6.94.72C65.05,300.67,64.53,345.24,64.53,345.69Z" style="fill:#e0e0e0"></path><path d="M59.67,345.72l-1.28-.07c0-.35,1.88-34.69-7.39-46.79-2.25-2.93-4.69-4.33-7.26-4.15-6.07.42-11.17,9.31-11.22,9.4l-1.12-.64c.22-.39,5.48-9.57,12.25-10.05,3-.21,5.84,1.35,8.37,4.65C61.58,310.55,59.76,344.29,59.67,345.72Z" style="fill:#e0e0e0"></path><path d="M61.7,350.39c-.25-3.33-6.05-81.75,4.16-95.57l1,.77C57,269,62.93,349.48,63,350.3Z" style="fill:#e0e0e0"></path><path d="M87.09,299.93s-6.13,2.26-4.31,7.59S104,321.64,104,321.64s8.11-7.44.66-19.54S87.25,296.11,87.09,299.93Z" style="fill:#ebebeb"></path><path d="M60.44,289.77s6.53-.27,6.9,5.36S53.2,316.31,53.2,316.31s-10.35-3.74-8.13-17.78S58.82,286.31,60.44,289.77Z" style="fill:#ebebeb"></path><path d="M54.92,262.85s4.35-.47,4-3.12S42,250.26,32.23,261.29c0,0,6.26,10.75,15.3,10.89S54.92,262.85,54.92,262.85Z" style="fill:#ebebeb"></path><path d="M63,256.41s-4,1.91-5.05-.53,9.35-17,23.48-12.79c0,0,.37,12.43-7.23,17.34S63,256.41,63,256.41Z" style="fill:#ebebeb"></path><path d="M42.42,297.78s3-2.42-.24-3.6-19.14-.85-19.31,14.9c0,0,18.53,3.08,20.82-2.92S42.42,297.78,42.42,297.78Z" style="fill:#ebebeb"></path><path d="M80.19,262.45s-3-2.42.24-3.61,19.14-.84,19.31,14.91c0,0-18.52,3.08-20.81-2.92S80.19,262.45,80.19,262.45Z" style="fill:#ebebeb"></path><path d="M70.4,275.14s-.26-2.94,2.12-1.79,10.67,10.1,2.07,18.59c0,0-11.57-8.57-9.48-13S70.4,275.14,70.4,275.14Z" style="fill:#ebebeb"></path><path d="M39.74,279.34s1.79-2.35-.84-2.64-14.41,2.85-11.66,14.62c0,0,14.35-1.08,15-6S39.74,279.34,39.74,279.34Z" style="fill:#ebebeb"></path><polygon points="76.6 368.41 47.64 368.41 39.94 332.89 83.57 332.89 76.6 368.41" style="fill:#f0f0f0"></polygon><rect x="37.31" y="332.37" width="48.77" height="10.22" style="fill:#e6e6e6"></rect><path d="M530.77,342.14c0-.51-1.73-51.16-10-59.17-8-7.79-17.21-.29-17.6,0l-.82-1c.1-.08,10.48-8.56,19.32,0,8.61,8.37,10.29,57.95,10.36,60.05Z" style="fill:#e0e0e0"></path><path d="M531.48,352.1c-.06-.61-5.63-60.81,16.35-86l1,.85c-21.62,24.81-16.1,84.46-16,85.06Z" style="fill:#e0e0e0"></path><path d="M530.66,345.73l-1.28-.09c0-.68,4.3-68.44-11.83-83.27l.88-.95C535,276.67,530.85,342.92,530.66,345.73Z" style="fill:#e0e0e0"></path><path d="M532.76,345.69h-1.29c0-1.87.54-45.77,13-52.91a8.8,8.8,0,0,1,8.06-.79c7.54,3.12,11.28,16.54,11.44,17.11l-1.25.34c0-.13-3.72-13.38-10.68-16.26a7.61,7.61,0,0,0-6.93.72C533.28,300.67,532.77,345.24,532.76,345.69Z" style="fill:#e0e0e0"></path><path d="M527.91,345.72l-1.29-.07c0-.35,1.88-34.69-7.39-46.79-2.24-2.93-4.68-4.33-7.26-4.15-6.07.42-11.16,9.31-11.21,9.4l-1.13-.64c.22-.39,5.49-9.57,12.25-10.05,3-.21,5.85,1.35,8.38,4.65C529.82,310.55,528,344.29,527.91,345.72Z" style="fill:#e0e0e0"></path><path d="M529.94,350.39c-.25-3.33-6.06-81.75,4.16-95.57l1,.77c-9.93,13.44-4,93.89-3.91,94.71Z" style="fill:#e0e0e0"></path><path d="M555.32,299.93s-6.13,2.26-4.3,7.59,21.2,14.12,21.2,14.12,8.12-7.44.66-19.54S555.49,296.11,555.32,299.93Z" style="fill:#ebebeb"></path><path d="M528.68,289.77s6.52-.27,6.89,5.36-14.14,21.18-14.14,21.18-10.35-3.74-8.13-17.78S527.05,286.31,528.68,289.77Z" style="fill:#ebebeb"></path><path d="M523.15,262.85s4.35-.47,4-3.12-16.91-9.47-26.69,1.56c0,0,6.26,10.75,15.31,10.89S523.15,262.85,523.15,262.85Z" style="fill:#ebebeb"></path><path d="M531.26,256.41s-3.94,1.91-5-.53,9.35-17,23.48-12.79c0,0,.37,12.43-7.23,17.34S531.26,256.41,531.26,256.41Z" style="fill:#ebebeb"></path><path d="M510.66,297.78s3-2.42-.24-3.6-19.15-.85-19.31,14.9c0,0,18.52,3.08,20.81-2.92S510.66,297.78,510.66,297.78Z" style="fill:#ebebeb"></path><path d="M548.43,262.45s-3-2.42.23-3.61S567.81,258,568,273.75c0,0-18.52,3.08-20.81-2.92S548.43,262.45,548.43,262.45Z" style="fill:#ebebeb"></path><path d="M538.63,275.14s-.26-2.94,2.12-1.79,10.67,10.1,2.08,18.59c0,0-11.57-8.57-9.49-13S538.63,275.14,538.63,275.14Z" style="fill:#ebebeb"></path><path d="M508,279.34s1.8-2.35-.83-2.64-14.41,2.85-11.67,14.62c0,0,14.35-1.08,15-6S508,279.34,508,279.34Z" style="fill:#ebebeb"></path><polygon points="544.83 368.41 515.88 368.41 508.17 332.89 551.8 332.89 544.83 368.41" style="fill:#f0f0f0"></polygon><rect x="505.55" y="332.37" width="48.77" height="10.22" style="fill:#e6e6e6"></rect><path d="M208,270.68l-7.51.7v14.54l7.51.7a38.69,38.69,0,0,0,5.54,13.44l-4.79,5.79L219,316.13l5.79-4.8a38.59,38.59,0,0,0,13.43,5.55l.71,7.5h14.53l.71-7.5a38.91,38.91,0,0,0,13.44-5.55l5.79,4.8,10.27-10.28-4.79-5.79a38.91,38.91,0,0,0,5.55-13.44l7.5-.7V271.38l-7.5-.7a38.91,38.91,0,0,0-5.55-13.44l4.79-5.79-10.27-10.28-5.79,4.8a38.91,38.91,0,0,0-13.44-5.55l-.71-7.5H239l-.71,7.5A38.91,38.91,0,0,0,224.81,246l-5.78-4.8-10.28,10.28,4.79,5.79A38.88,38.88,0,0,0,208,270.68Zm52.14-5.94a19.67,19.67,0,1,1-27.83,0A19.68,19.68,0,0,1,260.14,264.74Z" style="fill:#ebebeb"></path><path d="M507.88,159.25l-4.5.42v8.72l4.5.42a23.25,23.25,0,0,0,3.33,8.06l-2.88,3.47,6.17,6.16,3.47-2.87a23.06,23.06,0,0,0,8,3.32l.43,4.5h8.71l.42-4.5a23,23,0,0,0,8.06-3.32l3.47,2.87,6.16-6.16-2.87-3.47a23.25,23.25,0,0,0,3.33-8.06l4.5-.42v-8.71l-4.49-.43a23.4,23.4,0,0,0-3.33-8.06l2.87-3.47-6.16-6.16-3.47,2.88a23.25,23.25,0,0,0-8.06-3.33l-.42-4.5h-8.71l-.43,4.5a23.28,23.28,0,0,0-8,3.33l-3.47-2.88-6.17,6.16,2.88,3.48A23.28,23.28,0,0,0,507.88,159.25Zm31.27-3.56a11.8,11.8,0,1,1-16.69,0A11.8,11.8,0,0,1,539.15,155.69Z" style="fill:#ebebeb"></path><path d="M226.18,363.63l-4.5.43v8.71l4.5.42a23,23,0,0,0,3.32,8.06l-2.87,3.47,6.16,6.16,3.47-2.87a23,23,0,0,0,8.06,3.32l.42,4.5h8.71l.43-4.5a23.06,23.06,0,0,0,8.05-3.32l3.48,2.87,6.16-6.16-2.88-3.47a23.25,23.25,0,0,0,3.33-8.06l4.5-.42v-8.71l-4.5-.43a23.4,23.4,0,0,0-3.33-8.06l2.88-3.47-6.16-6.16-3.48,2.88a23.28,23.28,0,0,0-8.05-3.33l-.43-4.5h-8.71l-.42,4.5a23.25,23.25,0,0,0-8.06,3.33l-3.47-2.88-6.16,6.16,2.87,3.48A23.06,23.06,0,0,0,226.18,363.63Zm31.26-3.56a11.79,11.79,0,1,1-16.68,0A11.81,11.81,0,0,1,257.44,360.07Z" style="fill:#ebebeb"></path><path d="M476.36,57.14a40.88,40.88,0,0,0-5.83,14.13l-7.89.74V87.3l7.89.75a40.88,40.88,0,0,0,5.83,14.13l-5,6.09,10.81,10.81,6.09-5a40.92,40.92,0,0,0,14.14,5.83l.74,7.9h15.29l.74-7.9A40.92,40.92,0,0,0,533.27,114l6.09,5,10.81-10.81-5-6.09A40.71,40.71,0,0,0,551,88.05l7.89-.75V72L551,71.27a40.71,40.71,0,0,0-5.84-14.13l5-6.09L539.36,40.24l-6.09,5a41,41,0,0,0-14.14-5.84l-.74-7.89H503.1l-.74,7.89a41,41,0,0,0-14.14,5.84l-6.09-5L471.32,51.05Zm49,7.89a20.69,20.69,0,1,1-29.27,0A20.69,20.69,0,0,1,525.38,65Z" style="fill:#ebebeb"></path><rect x="183.06" y="66.05" width="44.92" height="84.68" style="fill:#e6e6e6"></rect><rect x="173.01" y="66.05" width="52.77" height="84.68" style="fill:#f0f0f0"></rect><rect x="181.03" y="73.57" width="36.7" height="69.64" style="fill:#fff"></rect><rect x="591.7" y="69.4" width="75.97" height="143.22" style="fill:#e6e6e6"></rect><rect x="574.71" y="69.4" width="89.24" height="143.22" style="fill:#f0f0f0"></rect><rect x="588.27" y="82.12" width="62.07" height="117.78" style="fill:#fff"></rect></g><g id="freepik--Clipboard--inject-3"><rect x="250.92" y="70.05" width="269.15" height="375.11" rx="7.43" style="fill:#407BFF"></rect><rect x="260.69" y="107.46" width="249.6" height="323.67" style="opacity:0.30000000000000004"></rect><rect x="261.15" y="83.82" width="249.6" height="337.42" style="fill:#fff"></rect><rect x="289.4" y="152.3" width="192.18" height="10.38" style="fill:#e0e0e0"></rect><rect x="289.4" y="390.87" width="192.18" height="10.38" style="fill:#e0e0e0"></rect><rect x="289.4" y="176.7" width="192.18" height="1" style="fill:#263238"></rect><rect x="289.4" y="192.76" width="192.18" height="1" style="fill:#263238"></rect><rect x="289.4" y="208.83" width="192.18" height="1" style="fill:#263238"></rect><rect x="289.4" y="222.92" width="192.18" height="1" style="fill:#263238"></rect><rect x="289.4" y="257.77" width="139.38" height="1" style="fill:#263238"></rect><rect x="289.4" y="272.41" width="139.38" height="1" style="fill:#263238"></rect><path d="M473,279.15H446.59V252.79H473Zm-25.36-1H472V253.79H447.59Z" style="fill:#263238"></path><polygon points="463.03 276.04 449.15 265.7 452.75 260.86 462.06 267.79 474.85 252.53 479.48 256.41 463.03 276.04" style="fill:#407BFF"></polygon><rect x="289.4" y="303.3" width="139.38" height="1" style="fill:#263238"></rect><rect x="289.4" y="317.95" width="139.38" height="1" style="fill:#263238"></rect><path d="M473,324.68H446.59V298.32H473Zm-25.36-1H472V299.32H447.59Z" style="fill:#263238"></path><polygon points="463.03 321.57 449.15 311.24 452.75 306.39 462.06 313.32 474.85 298.06 479.48 301.94 463.03 321.57" style="fill:#407BFF"></polygon><rect x="289.4" y="348.84" width="139.38" height="1" style="fill:#263238"></rect><rect x="289.4" y="363.48" width="139.38" height="1" style="fill:#263238"></rect><path d="M473,370.22H446.59V343.86H473Zm-25.36-1H472V344.86H447.59Z" style="fill:#263238"></path><polygon points="463.03 367.11 449.15 356.77 452.75 351.93 462.06 358.86 474.85 343.6 479.48 347.48 463.03 367.11" style="fill:#407BFF"></polygon><path d="M330.63,116v12.29h-3.21V116Z" style="fill:#263238"></path><path d="M342.71,122.28v6h-3.1v-5.08a1.57,1.57,0,0,0-1.61-1.74,1.86,1.86,0,0,0-1.86,1.81v5H333v-9.48h3.12v1.54a3.47,3.47,0,0,1,3.14-1.66A3.31,3.31,0,0,1,342.71,122.28Z" style="fill:#263238"></path><path d="M348.15,120.81c-.53,0-.9.19-.9.6,0,1.24,5,.65,5,3.94,0,2-1.71,3.05-4,3.05a7,7,0,0,1-4.28-1.35l1-2a6.21,6.21,0,0,0,3.37,1.17c.58,0,1-.19,1-.58,0-1.29-4.89-.65-4.89-3.92,0-2,1.66-3.07,3.89-3.07a7.72,7.72,0,0,1,4,1.1l-1.06,2A7.09,7.09,0,0,0,348.15,120.81Z" style="fill:#263238"></path><path d="M363.16,118.78v9.48H360v-1.54a3.35,3.35,0,0,1-3,1.68,3.29,3.29,0,0,1-3.38-3.63v-6h3.12v5.1a1.52,1.52,0,0,0,1.52,1.72c1.11,0,1.78-.9,1.78-2.14v-4.68Z" style="fill:#263238"></path><path d="M371.71,118.66v2.85c-1.73-.17-2.89.6-3,1.91v4.84h-3.12v-9.48h3.12v1.58A3.41,3.41,0,0,1,371.71,118.66Z" style="fill:#263238"></path><path d="M381.25,122.09v6.17h-3.07v-1.07a3.4,3.4,0,0,1-2.85,1.21c-2,0-3.25-1.22-3.25-3s1.28-2.84,3.63-2.88h2.47v-.1c0-.89-.61-1.42-1.8-1.42a6.92,6.92,0,0,0-2.84.75l-.86-2.1a10.4,10.4,0,0,1,4.42-1C379.71,118.66,381.23,119.92,381.25,122.09Zm-3.07,3v-.82h-1.86c-.87,0-1.31.32-1.31,1s.47,1.07,1.28,1.07A1.86,1.86,0,0,0,378.18,125.05Z" style="fill:#263238"></path><path d="M393.05,122.28v6H390v-5.08a1.57,1.57,0,0,0-1.61-1.74,1.86,1.86,0,0,0-1.86,1.81v5h-3.12v-9.48h3.12v1.54a3.47,3.47,0,0,1,3.14-1.66A3.31,3.31,0,0,1,393.05,122.28Z" style="fill:#263238"></path><path d="M399.43,121.25c-1.12,0-1.89.93-1.89,2.3s.77,2.29,1.89,2.29a1.93,1.93,0,0,0,1.86-1.07l2.3,1.32a5,5,0,0,1-9.19-2.53,5,5,0,0,1,9.15-2.64l-2.26,1.31A2.18,2.18,0,0,0,399.43,121.25Z" style="fill:#263238"></path><path d="M413.72,124.35h-6.59a2.13,2.13,0,0,0,2.16,1.67,3.11,3.11,0,0,0,2.22-1l1.63,1.64a5.33,5.33,0,0,1-4.13,1.68c-3.11,0-5-1.91-5-4.81a4.65,4.65,0,0,1,4.95-4.89C412.25,118.67,413.93,120.9,413.72,124.35Zm-3-1.66a1.7,1.7,0,0,0-1.75-1.83,2,2,0,0,0-1.9,1.83Z" style="fill:#263238"></path><path d="M430.94,120.29c0,2.89-1.8,4.57-4.94,4.57h-2.19v3.4H420.6V116H426C429.14,116,430.94,117.55,430.94,120.29Zm-3.05.1c0-1.21-.75-1.86-2.05-1.86h-2v3.77h2A1.79,1.79,0,0,0,427.89,120.39Z" style="fill:#263238"></path><path d="M442.11,123.51c0,2.93-2.07,4.86-5.19,4.86s-5.17-1.93-5.17-4.86,2.05-4.84,5.17-4.84S442.11,120.6,442.11,123.51Zm-7.22,0a2.06,2.06,0,1,0,2-2.35A2.09,2.09,0,0,0,434.89,123.55Z" style="fill:#263238"></path><path d="M446.92,115.25v13h-3.13v-13Z" style="fill:#263238"></path><path d="M452.49,118.78v9.48h-3.1v-9.48Zm-.12-2.67a1.42,1.42,0,1,1-1.42-1.43A1.37,1.37,0,0,1,452.37,116.11Z" style="fill:#263238"></path><path d="M459.14,121.25c-1.13,0-1.9.93-1.9,2.3s.77,2.29,1.9,2.29a1.93,1.93,0,0,0,1.85-1.07l2.3,1.32a5,5,0,0,1-9.19-2.53,4.63,4.63,0,0,1,4.91-4.89,4.7,4.7,0,0,1,4.25,2.25L461,122.23A2.17,2.17,0,0,0,459.14,121.25Z" style="fill:#263238"></path><path d="M466.13,131.8a4.31,4.31,0,0,1-2.8-1l1.29-2.15a1.9,1.9,0,0,0,1.27.52,1.2,1.2,0,0,0,1.14-.72l.22-.43-3.92-9.26h3.21L468.8,125l2-6.17h3.11l-4.07,10.41A3.72,3.72,0,0,1,466.13,131.8Z" style="fill:#263238"></path><rect x="289.4" y="110.57" width="27.07" height="27.07" rx="4.44" style="fill:#407BFF"></rect><circle cx="302.94" cy="119.64" r="3.98" style="fill:#fff"></circle><path d="M302.94,124.47a8.09,8.09,0,0,0-8.08,8.09H311A8.09,8.09,0,0,0,302.94,124.47Z" style="fill:#fff"></path><rect x="342.8" y="63.56" width="85.38" height="32.2" style="fill:#263238"></rect><polygon points="412.52 66.81 362.6 66.81 357.03 42.29 419.36 42.29 412.52 66.81" style="fill:#263238"></polygon><path d="M414.26,42.29c-.05.15-6.65,21-6.48,21h5.66l6-21Z" style="opacity:0.30000000000000004"></path><path d="M422.67,63.56s-.41,32.2,0,32.2h5.51V63.56Z" style="opacity:0.30000000000000004"></path></g><g id="freepik--speech-bubble--inject-3"><path d="M68.93,119.59a26,26,0,0,0,47.35,19.54l7.73-1.21-4.22-7.11c0-.14.08-.28.11-.42a26.05,26.05,0,1,0-51-10.8Z" style="fill:#407BFF"></path><path d="M68.93,119.59a26,26,0,0,0,47.35,19.54l7.73-1.21-4.22-7.11c0-.14.08-.28.11-.42a26.05,26.05,0,1,0-51-10.8Z" style="fill:#fff;opacity:0.7000000000000001"></path><path d="M66.23,118h0a.25.25,0,0,1-.2-.29A26.14,26.14,0,0,1,81.3,98.45a.24.24,0,0,1,.33.13.25.25,0,0,1-.13.33,25.64,25.64,0,0,0-15,18.87A.26.26,0,0,1,66.23,118Z" style="fill:#407BFF"></path><path d="M85,97.55a.27.27,0,0,1-.23-.14.25.25,0,0,1,.11-.33,9.8,9.8,0,0,1,3.82-1,.25.25,0,0,1,.26.24.25.25,0,0,1-.23.26,9.13,9.13,0,0,0-3.62,1Z" style="fill:#407BFF"></path><rect x="91" y="113.86" width="8.23" height="23.88" style="fill:#407BFF"></rect><rect x="91" y="113.86" width="8.23" height="23.88" transform="translate(-30.69 220.93) rotate(-90)" style="fill:#407BFF"></rect></g><g id="freepik--character-2--inject-3"><rect x="564.16" y="307.81" width="3.33" height="149.44" transform="translate(48.07 -62.91) rotate(6.65)" style="fill:#263238"></rect><rect x="564.16" y="307.81" width="3.33" height="149.44" transform="translate(48.07 -62.91) rotate(6.65)" style="fill:#fff;isolation:isolate;opacity:0.4"></rect><path d="M559.17,463.06l-5.36-.62A1.11,1.11,0,0,1,553,461l1.55-6.09a1,1,0,0,1,1.1-.85l3.72.43a1.06,1.06,0,0,1,.88,1.08l.1,6.29A1.1,1.1,0,0,1,559.17,463.06Z" style="fill:#263238"></path><path d="M567.63,297.52s2,3.37,4.33,3.7a3.92,3.92,0,0,0,3.58-1.19l.5-11.71-2.49-9.46L568.17,286Z" style="fill:#eec1bb"></path><path d="M578.05,200.92s-7.26,46.26-8.17,51.32S567,280.51,567,280.51l6.29,3.24,11.86-41.13,1.41-27Z" style="fill:#eec1bb"></path><path d="M585,264.43l-12.46-3.84a1.57,1.57,0,0,0-2,1.19l-1.42,7a1.57,1.57,0,0,0,1.21,1.84l12.35,2.66a1.58,1.58,0,0,0,1.84-1.13l.67-2.55.86-3.29A1.56,1.56,0,0,0,585,264.43Z" style="fill:#263238"></path><polygon points="576.49 311.22 583.23 273.66 577.49 272.08 571.97 310.64 576.49 311.22" style="fill:#263238"></polygon><path d="M576.3,292.67l-15-3.34a3.09,3.09,0,0,0-3.7,2.43h0a3.09,3.09,0,0,0,2.41,3.59L574,298.2Z" style="fill:#263238"></path><path d="M573.05,281c0,.45.82,4.57-.6,7.53a11.52,11.52,0,0,1-4.2,4.53s-.36,7.42-2.61,7.56-2.18-5.91-2.18-5.91a34.26,34.26,0,0,1,.74-7.74,35.09,35.09,0,0,1,3.56-7.76Z" style="fill:#eec1bb"></path><path d="M582,236.53a9.34,9.34,0,0,0-5.93,4.52c-1.26,2.53,1.54,10,1.54,10S581.67,241.8,582,236.53Z" style="isolation:isolate;opacity:0.2"></path><polygon points="638.91 452.92 629.04 453.88 623.65 428.7 638.91 427.27 638.91 452.92" style="fill:#eec1bb"></polygon><path d="M627.61,449.53h3.53a2.5,2.5,0,0,1,2,1c2,2.78,3.56,1.73,5.77-.88,1.4-.16,1.78,1.45,1.9,1.88l2.63,9.58a1.51,1.51,0,0,1-1,1.86,1.59,1.59,0,0,1-.43.06H614.06c-4.44,0-5.36-4.47-3.53-4.89,8.22-1.81,14-4.23,16.58-6.62C627.59,451.14,627.1,450.82,627.61,449.53Z" style="fill:#263238"></path><path d="M622.36,452.79a16,16,0,0,0,3.3-.43.19.19,0,0,0,0-.36c-.49-.24-4.9-2.3-6-1.52a.63.63,0,0,0-.29.62,1.45,1.45,0,0,0,.6,1.15A3.93,3.93,0,0,0,622.36,452.79Zm2.61-.69c-1.3.24-3.71.56-4.71-.18a1.17,1.17,0,0,1-.44-.84.26.26,0,0,1,.12-.27C620.55,450.39,623.14,451.3,625,452.1Z" style="fill:#407BFF"></path><path d="M625.62,452.38h.13a.19.19,0,0,0,.06-.21c0-.18-1-4.52-3.45-4.24-.6.08-.77.36-.79.61-.15,1.15,2.62,3.32,3.94,3.87Zm-3-4.11c1.53,0,2.42,2.53,2.72,3.54-1.44-.76-3.45-2.56-3.33-3.26,0-.06,0-.22.45-.27Z" style="fill:#407BFF"></path><path d="M628.16,454.42a.25.25,0,0,1-.21-.12,4,4,0,0,0-2.82-1.81.25.25,0,0,1-.21-.28.24.24,0,0,1,.28-.21,4.49,4.49,0,0,1,3.17,2,.24.24,0,0,1-.08.34A.2.2,0,0,1,628.16,454.42Z" style="fill:#407BFF"></path><path d="M626,456.07a.25.25,0,0,1-.21-.12,4,4,0,0,0-2.81-1.81.25.25,0,0,1,.06-.5,4.5,4.5,0,0,1,3.17,2.05.24.24,0,0,1-.08.34A.2.2,0,0,1,626,456.07Z" style="fill:#407BFF"></path><path d="M623.25,457.45a.25.25,0,0,1-.21-.11,4,4,0,0,0-2.82-1.81.25.25,0,0,1,.07-.5,4.54,4.54,0,0,1,3.17,2,.26.26,0,0,1-.08.35A.31.31,0,0,1,623.25,457.45Z" style="fill:#407BFF"></path><polygon points="591.1 452.15 581.23 453.12 576.66 427.85 590.68 426.32 591.1 452.15" style="fill:#eec1bb"></polygon><path d="M579.8,448.76h3.53a2.51,2.51,0,0,1,2,1.05c2,2.77,3.56,1.72,5.77-.88,1.4-.17,1.78,1.44,1.9,1.88l2.63,9.57a1.52,1.52,0,0,1-1,1.87,1.27,1.27,0,0,1-.43.05H566.25c-4.44,0-5.36-4.47-3.53-4.88,8.22-1.82,14-4.24,16.58-6.63C579.78,450.37,579.29,450.06,579.8,448.76Z" style="fill:#263238"></path><path d="M574.55,452a16,16,0,0,0,3.3-.43.2.2,0,0,0,.12-.25.2.2,0,0,0-.12-.12c-.49-.24-4.9-2.3-6-1.52a.66.66,0,0,0-.29.63,1.47,1.47,0,0,0,.6,1.15A3.93,3.93,0,0,0,574.55,452Zm2.61-.69c-1.3.24-3.71.56-4.71-.19a1.15,1.15,0,0,1-.44-.84.25.25,0,0,1,.12-.26C572.74,449.62,575.33,450.53,577.16,451.34Z" style="fill:#407BFF"></path><path d="M577.81,451.61a.15.15,0,0,0,.13,0,.18.18,0,0,0,.06-.2c0-.19-1-4.52-3.45-4.25-.6.08-.77.37-.79.61-.15,1.15,2.62,3.32,3.94,3.88Zm-3-4.1c1.53,0,2.42,2.53,2.72,3.54-1.44-.76-3.45-2.57-3.33-3.27,0,0,0-.22.45-.26Z" style="fill:#407BFF"></path><path d="M580.35,453.66a.25.25,0,0,1-.21-.12,4,4,0,0,0-2.81-1.81.25.25,0,1,1,.06-.5,4.52,4.52,0,0,1,3.17,2,.26.26,0,0,1-.08.35A.28.28,0,0,1,580.35,453.66Z" style="fill:#407BFF"></path><path d="M578.16,455.3a.26.26,0,0,1-.21-.11,4,4,0,0,0-2.81-1.81.25.25,0,1,1,.06-.5,4.52,4.52,0,0,1,3.17,2,.25.25,0,0,1-.08.35A.28.28,0,0,1,578.16,455.3Z" style="fill:#407BFF"></path><path d="M575.44,456.69a.22.22,0,0,1-.21-.12,4,4,0,0,0-2.82-1.81.25.25,0,0,1-.21-.28.25.25,0,0,1,.28-.21,4.46,4.46,0,0,1,3.17,2,.25.25,0,0,1-.08.34A.22.22,0,0,1,575.44,456.69Z" style="fill:#407BFF"></path><path d="M575.23,265.19c-.71,2.11-8.68,69.58-8.58,84.14.07,11.79,9.19,91.28,9.19,91.28L593,440s-.88-39.24-.38-52.86-2.78-39.22-2.78-39.22L610.4,286.5l-.78-20.62Z" style="fill:#407BFF"></path><path d="M636.59,355.84c-.45-2-1.17-6-2.06-11.22l.09,0c-.65-7,1.58-43.05-.62-63.66-1.69-13.12-4.83-20.1-8.2-24.45l-.48-.61c-.56-.7-.9-1.09-.9-1.09-.65.17-1.28.32-1.92.45l-.71.16a90.12,90.12,0,0,1-44-2.16c-2.19,5.42-3.39,18.87-5,30.86,2.49,2.73,12.2,5.28,24.76,7.63l3.58,16.2c1.89,10,4.31,19.89,6.36,28.76l2.15,9.72c.13.64.26,1.27.38,1.89,1.09,5.58,13.34,94.08,13.34,94.08l17.44.28S642.7,382.47,636.59,355.84Z" style="fill:#407BFF"></path><path d="M575.68,258.88a32.55,32.55,0,0,0,22.48,9.21c14.2.13,30.12-8.14,30.12-8.14l-1.78-3.05-40.89,4.46-8.41-4.46Z" style="isolation:isolate;opacity:0.2"></path><path d="M601.88,312c.07.33-8.07-31.28-8.07-31.28s-6.24,28.63,3.7,44.37Z" style="isolation:isolate;opacity:0.2"></path><path d="M584.48,187.7a50.57,50.57,0,0,0-11.36,21.19l19.49,4.67s5.39-14.24,3.21-19.45C593.54,188.69,590,183.47,584.48,187.7Z" style="fill:#263238"></path><g style="opacity:0.30000000000000004"><path d="M583.26,196.94a21.18,21.18,0,0,0-2.18,5.16,45.79,45.79,0,0,0-1.25,8.21l3.75,1.08C583.43,206.38,583.41,202,583.26,196.94Z"></path></g><path d="M632.25,211.86l6.17-21c-3.9-5.82-23.21-10.29-23.21-10.29l-12.71.69s-4.89,1.09-9.08,2.46c-5.58,1.82-8.6,3.28-9.94,6.38,0,0-2.33,6.87-.92,21,.38,3.89-.06,24.12-1.14,30.81l-6.59,15.76c23.24,18.1,53,0,53,0a63.43,63.43,0,0,1-2.22-9.87c.34-4-.13-10.13,1.56-17.1C627.48,229.36,631.69,213.17,632.25,211.86Z" style="fill:#263238"></path><path d="M630.3,217.63s-8.91-11.22-7.4-15.89l9.17,8.58Z" style="opacity:0.30000000000000004"></path><path d="M635.68,188.75c4.88,1.64,9.74,17.07,9.74,17.07l-14.34,9.47s-8.41-12.48-6.89-18.92C625.49,190.92,629.48,186.65,635.68,188.75Z" style="fill:#263238"></path><path d="M632,214.67s8.82,19,8.67,19.74c-.56,2.7-28.84.88-28.84.88l-.69,7.59a104.28,104.28,0,0,0,26,4.37c13.62.28,19.83-6.86,16.53-15.37-3.52-9.08-9.93-25-9.93-25Z" style="fill:#eec1bb"></path><path d="M640.67,234.41a8.59,8.59,0,0,1,5.6,1.09s-.27-1.25-2.58-2.11a10.65,10.65,0,0,0-3.54-.39Z" style="opacity:0.30000000000000004"></path><path d="M602.39,235.43s-1.87-3.4-4.95-4.25-5.33-2.37-7.67-2.85-.37,2.07,1,3.22,2.81,2.46,1.79,3.31-12.3,2.85-13.58,4.19.64,1.59.64,1.59-2.72.56-2.8,1.7c0,.3.42,1,1.7,1,2.88-.14,8.92-.73,8.92-.73-.35,0-7.75,1.29-8.83,1.63-1.42.43-1.86,1.36-1.58,2.17.4,1.16,9.62-.09,10,.13,0,0-5.34.54-5.95,2s2.76,1.3,5.72.59c2.7-.64,8.18-1.21,10.87-2.13,3.31-1.14,5.27-2.65,5.59-5.92A11.11,11.11,0,0,0,602.39,235.43Z" style="fill:#eec1bb"></path><path d="M579.91,240.63a.13.13,0,0,1-.12-.11.12.12,0,0,1,.1-.14c2.19-.39,4.42-.69,6.64-.88a.14.14,0,0,1,.14.12.12.12,0,0,1-.12.13c-2.21.19-4.43.49-6.61.87Z" style="opacity:0.30000000000000004"></path><path d="M598.34,247.26l3.83-24.13,41.67-21.71s15,30.53,12.83,38.62c-3.79,14.23-12,11.17-18.25,11.53S598.34,247.26,598.34,247.26Z" style="fill:#407BFF"></path><polygon points="602.17 223.13 591.65 184.29 596.61 182.73 608.61 219.77 602.17 223.13" style="fill:#407BFF"></polygon><polygon points="602.17 223.13 643.85 201.41 646.3 206.64 601.14 229.6 602.17 223.13" style="isolation:isolate;opacity:0.2"></polygon><path d="M645,177.32c-.75-1.18-2.16-1.86-3.4-2.64-4.71-3-7.4-7.93-8.77-12.93s-1.63-10.19-2.58-15.27a14.48,14.48,0,0,0-2.55-6.54c-1.51-1.91-6.17-4.93-9.49-.58l0,7.4c-1.3,3.5-1.14,7.29-.67,11s-2.08-2-2.26,1.69c-.11,2.21,0,12.17,0,14.38s3,6.05,4.4,7.88c1.74,2.3,4.81,3.54,7.86,4.09a25,25,0,0,0,11.89-.72,10.67,10.67,0,0,0,4.9-2.8A4.17,4.17,0,0,0,645,177.32Z" style="fill:#263238"></path><path d="M618.25,138.77a6.27,6.27,0,0,1,4.32,3.74,6.72,6.72,0,0,1,.61,3.86,4.3,4.3,0,0,1-2.21,3.11,3.17,3.17,0,0,1-3.64-.61,3.89,3.89,0,0,1-.69-3.38,27,27,0,0,1,1.14-3.39,5.48,5.48,0,0,0,.22-3.52" style="fill:#407BFF"></path><path d="M618.19,181.35s-3.94,3-9,7.41a18.5,18.5,0,0,1-3.46,2.35c-3.32,1.77-4.76,1.31-5.58-.29a14.26,14.26,0,0,1-.68-1.76c-.7-2.68-1.76-4.37.42-6.1,2.44-2,3.62-3.62,3.18-6.26a19.67,19.67,0,0,0-1.4-4.53l1.92-2.26,10.08-10.17C613.4,166.53,612.88,177.66,618.19,181.35Z" style="fill:#eec1bb"></path><path d="M603.13,177.28c2.78-1.64,5.82-4.49,5.45-7.76a15,15,0,0,0-.79-3.5l-5.62,7.45A18.54,18.54,0,0,1,603.13,177.28Z" style="opacity:0.2"></path><path d="M616.5,148.83c-1,10.36-1.13,14.75-6.47,20.18-8,8.16-20.4,5.42-22.53-4.85-1.92-9.23,0-24.61,10.12-29S617.45,138.48,616.5,148.83Z" style="fill:#eec1bb"></path><path d="M603.61,152.1c-.06,1-.65,1.76-1.33,1.78s-1.19-.76-1.14-1.73.65-1.77,1.33-1.78S603.66,151.13,603.61,152.1Z" style="fill:#263238"></path><path d="M592.88,152c-.06.94-.65,1.71-1.33,1.73s-1.19-.74-1.13-1.68.65-1.71,1.33-1.72S592.93,151,592.88,152Z" style="fill:#263238"></path><path d="M601.39,146.2a.45.45,0,0,1,.36.13,3.71,3.71,0,0,0,3.37,1.1.47.47,0,0,1,.58.37.55.55,0,0,1-.41.63,4.68,4.68,0,0,1-4.27-1.35.52.52,0,0,1,0-.72A.54.54,0,0,1,601.39,146.2Z" style="fill:#263238"></path><path d="M593.29,145.74a.46.46,0,0,1,.36.06.5.5,0,0,1,.11.71,5.33,5.33,0,0,1-4,2.48.47.47,0,0,1-.47-.5.54.54,0,0,1,.52-.52,4.3,4.3,0,0,0,3.17-2A.51.51,0,0,1,593.29,145.74Z" style="fill:#263238"></path><path d="M612.09,155.33s-3.19-4.83-1.88-14.23a3,3,0,0,0-2.34-3.38c-4.46-.86-10.43-6.5-17.72,4.69,0,0,3.71-14.22,23.82-8,12.93,4,5.71,20.15,3.84,21.73S612.09,155.33,612.09,155.33Z" style="fill:#263238"></path><path d="M619.64,157.27a8.38,8.38,0,0,1-5,3.92c-2.74.68-4.15-3.72-3.22-6.47a5.52,5.52,0,0,1,6.21-3.57C620.21,151.68,621,154.84,619.64,157.27Z" style="fill:#eec1bb"></path><path d="M595.66,151.67a35.19,35.19,0,0,1-3.45,6.29.8.8,0,0,0,.38,1.22,5.14,5.14,0,0,0,2.77,0Z" style="fill:#d4827d"></path><path d="M602.68,150.35l-2.38-.57S601.6,151.56,602.68,150.35Z" style="fill:#263238"></path><path d="M592,150.3l-2.38-.56S590.91,151.51,592,150.3Z" style="fill:#263238"></path><path d="M611.4,133.74c-9.06-6.11-18.52-.91-18.52-.91-10.84,6.3-6,16.91-6,16.91,7.59-4,11.28-5.55,18.56-9.74-1.71,2.72,1.18,6.55,4.37,9.35s2.25,4,2.25,4C620.62,144,620.47,139.84,611.4,133.74Z" style="fill:#263238"></path><path d="M597.11,162.35a.25.25,0,0,1-.19-.09.26.26,0,0,1,0-.36,4.15,4.15,0,0,1,2.63-1h0a.25.25,0,0,1,.25.24.26.26,0,0,1-.25.26,3.59,3.59,0,0,0-2.3.85A.27.27,0,0,1,597.11,162.35Z"></path><path d="M614.3,158.3a.25.25,0,0,1-.25-.2,5.24,5.24,0,0,1,.22-2.72,3.47,3.47,0,0,1,1.39-1.85,2.11,2.11,0,0,1,2.35.08.25.25,0,0,1-.32.39,1.58,1.58,0,0,0-1.77,0,2.93,2.93,0,0,0-1.18,1.58,4.82,4.82,0,0,0-.2,2.47.25.25,0,0,1-.2.29Z" style="opacity:0.2"></path><rect x="599.38" y="165.55" width="10.44" height="3.51" rx="1.64" transform="translate(-12.47 280.22) rotate(-25.84)" style="fill:#d4827d"></rect><rect x="599.38" y="165.55" width="10.44" height="3.51" rx="1.64" transform="translate(-12.47 280.22) rotate(-25.84)" style="fill:#fff;opacity:0.2"></rect><rect x="602.17" y="165.94" width="4.84" height="2.73" rx="0.38" transform="translate(-12.47 280.23) rotate(-25.84)" style="fill:#fff;opacity:0.2"></rect></g></svg>
