<svg xmlns="http://www.w3.org/2000/svg" viewBox="0 0 500 500"><g id="freepik--magnifying-glass--inject-5"><g id="freepik--Glass--inject-5"><path d="M284.91,417.2h0a3.46,3.46,0,0,1-3.47-.34,10.8,10.8,0,0,1-4.92-8.48A3.42,3.42,0,0,1,278,405.2h0L339,366.59h0c1.25-.84,3-.79,5,.35a15.15,15.15,0,0,1,6.89,11.86c0,2.3-.84,3.87-2.19,4.54h0Z" style="fill:#455a64"></path><path d="M276.52,408.38c0-3.13,2.18-4.41,4.9-2.85a10.86,10.86,0,0,1,4.92,8.49c0,3.13-2.19,4.4-4.9,2.84A10.8,10.8,0,0,1,276.52,408.38Z" style="fill:#37474f"></path><path d="M269.3,421.68a6.54,6.54,0,0,1-3-5.13,2,2,0,0,1,.86-1.92h0l12.13-7.06h0a2.09,2.09,0,0,1,2.1.2,6.57,6.57,0,0,1,3,5.13,2.09,2.09,0,0,1-.87,1.93l-12.13,7.05h0A2.07,2.07,0,0,1,269.3,421.68Z" style="fill:#407BFF"></path><path d="M269.3,421.68a6.54,6.54,0,0,1-3-5.13,2,2,0,0,1,.86-1.92h0l12.13-7.06h0a2.09,2.09,0,0,1,2.1.2,6.57,6.57,0,0,1,3,5.13,2.09,2.09,0,0,1-.87,1.93l-12.13,7.05h0A2.07,2.07,0,0,1,269.3,421.68Z" style="opacity:0.2"></path><path d="M275,411.91q-.66-.51-1.38-1l-6.39,3.71a36.72,36.72,0,0,1,7.11,5.58l5.86-3.4-.48-.56A38.24,38.24,0,0,0,275,411.91Z" style="opacity:0.2"></path><path d="M283.72,407.53l62.81-38.59a11.74,11.74,0,0,0-2.51-2c-2-1.14-3.77-1.19-5-.34h0l-61,38.6a3.44,3.44,0,0,1,3.47.34A9.14,9.14,0,0,1,283.72,407.53Z" style="opacity:0.15"></path><path d="M283,432.61c0-.25,0-.45,0-.59s0-.47,0-.71c0-.58-.09-1.15-.17-1.72,0-.21-.07-.41-.11-.63a19.65,19.65,0,0,0-.58-2.35l-.21-.64c-.21-.57-.43-1.15-.68-1.71-.09-.2-.18-.39-.28-.59l-.27-.54c-.13-.25-.26-.5-.41-.75s-.28-.5-.44-.75l-.47-.73a26,26,0,0,0-2.84-3.61,34.33,34.33,0,0,0-4.48-4.09,48.43,48.43,0,0,0-5.64-3.75c-22-12.58-57.58-12.58-79.36,0-.55.32-1.08.64-1.6,1a43.7,43.7,0,0,0-5.53,4.06c-.49.44-1,.88-1.43,1.33a31.42,31.42,0,0,0-3.16,3.58c-.17.22-.33.45-.49.68s-.42.61-.61.92-.53.85-.77,1.28-.51,1-.74,1.44c-.1.21-.2.41-.28.62s-.25.58-.36.88-.17.44-.24.66a19.84,19.84,0,0,0-1,4.69c0,.17,0,.34,0,.51,0,.37,0,.74,0,1.09,0,1.37,0,7.54,0,8.68,0,8.32,5.48,16.67,16.52,23,21.91,12.65,57.45,12.65,79.36,0,11.07-6.38,16.52-14.76,16.37-23.11C283,439.81,283.06,434.63,283,432.61Zm-92.83-17.69c9.6-5.54,22.54-8.59,36.43-8.59s26.94,3.05,36.66,8.6c8.65,4.93,13.41,11.11,13.43,17.4s-4.68,12.41-13.22,17.34c-9.65,5.58-22.62,8.64-36.53,8.64s-26.86-3.06-36.52-8.64c-8.61-5-13.36-11.19-13.36-17.51S181.77,419.8,190.21,414.92Z" style="fill:#407BFF"></path><path d="M283,432.61c0-.25,0-.45,0-.59s0-.47,0-.71c0-.58-.09-1.15-.17-1.72,0-.21-.07-.41-.11-.63a19.65,19.65,0,0,0-.58-2.35l-.21-.64c-.21-.57-.43-1.15-.68-1.71-.09-.2-.18-.39-.28-.59l-.27-.54c-.13-.25-.26-.5-.41-.75s-.28-.5-.44-.75l-.47-.73a26,26,0,0,0-2.84-3.61,34.33,34.33,0,0,0-4.48-4.09,48.43,48.43,0,0,0-5.64-3.75c-22-12.58-57.58-12.58-79.36,0-.55.32-1.08.64-1.6,1a43.7,43.7,0,0,0-5.53,4.06c-.49.44-1,.88-1.43,1.33a31.42,31.42,0,0,0-3.16,3.58c-.17.22-.33.45-.49.68s-.42.61-.61.92-.53.85-.77,1.28-.51,1-.74,1.44c-.1.21-.2.41-.28.62s-.25.58-.36.88-.17.44-.24.66a19.84,19.84,0,0,0-1,4.69c0,.17,0,.34,0,.51,0,.37,0,.74,0,1.09,0,1.37,0,7.54,0,8.68,0,8.32,5.48,16.67,16.52,23,21.91,12.65,57.45,12.65,79.36,0,11.07-6.38,16.52-14.76,16.37-23.11C283,439.81,283.06,434.63,283,432.61Zm-92.83-17.69c9.6-5.54,22.54-8.59,36.43-8.59s26.94,3.05,36.66,8.6c8.65,4.93,13.41,11.11,13.43,17.4s-4.68,12.41-13.22,17.34c-9.65,5.58-22.62,8.64-36.53,8.64s-26.86-3.06-36.52-8.64c-8.61-5-13.36-11.19-13.36-17.51S181.77,419.8,190.21,414.92Z" style="fill:#fff;opacity:0.25"></path><path d="M283,432.61h-6.31c0,6.25-4.68,12.13-13.22,17.06-9.36,5.41-21.85,8.45-35.29,8.63v15.05c13.95-.17,27.81-3.32,38.45-9.47,11.07-6.38,16.52-14.76,16.37-23.11C283,439.81,283.06,434.63,283,432.61Z" style="fill:#407BFF"></path><path d="M283,432c0-.23,0-.47,0-.71,0-.58-.09-1.15-.17-1.72,0-.21-.07-.41-.11-.63a19.65,19.65,0,0,0-.58-2.35l-.21-.64c-.21-.57-.43-1.15-.68-1.71-.09-.2-.18-.39-.28-.59l-.27-.54c-.13-.25-.26-.5-.41-.75s-.28-.5-.44-.75l-.47-.73a26,26,0,0,0-2.84-3.61,35.74,35.74,0,0,0-4.48-4.09,48.43,48.43,0,0,0-5.64-3.75c-22-12.58-57.58-12.58-79.36,0-.55.32-1.08.64-1.6,1a43.7,43.7,0,0,0-5.53,4.06c-.49.44-1,.88-1.43,1.33a31.42,31.42,0,0,0-3.16,3.58c-.17.22-.33.45-.49.68s-.42.61-.61.92-.53.85-.77,1.28-.51,1-.74,1.44c-.1.21-.2.41-.28.62s-.25.58-.36.88-.17.44-.24.66a19.84,19.84,0,0,0-1,4.69c0,.17,0,.34,0,.51,0,.37,0,.74,0,1.09,0,8.31,5.51,16.63,16.52,23,21.91,12.65,57.45,12.65,79.36,0,10.81-6.24,16.27-14.37,16.37-22.53C283.05,432.36,283,432.16,283,432Zm-19.53,17.65c-9.65,5.58-22.62,8.64-36.53,8.64s-26.86-3.06-36.52-8.64c-8.61-5-13.36-11.19-13.36-17.51s4.67-12.36,13.11-17.24c9.6-5.54,22.54-8.59,36.43-8.59s26.94,3.05,36.66,8.6c8.65,4.93,13.41,11.11,13.43,17.4S272.05,444.74,263.51,449.67Z" style="fill:#407BFF"></path><path d="M283,432c0-.23,0-.47,0-.71,0-.58-.09-1.15-.17-1.72,0-.21-.07-.41-.11-.63a19.65,19.65,0,0,0-.58-2.35l-.21-.64c-.21-.57-.43-1.15-.68-1.71-.09-.2-.18-.39-.28-.59l-.27-.54c-.13-.25-.26-.5-.41-.75s-.28-.5-.44-.75l-.47-.73a26,26,0,0,0-2.84-3.61,35.74,35.74,0,0,0-4.48-4.09,48.43,48.43,0,0,0-5.64-3.75c-22-12.58-57.58-12.58-79.36,0-.55.32-1.08.64-1.6,1a43.7,43.7,0,0,0-5.53,4.06c-.49.44-1,.88-1.43,1.33a31.42,31.42,0,0,0-3.16,3.58c-.17.22-.33.45-.49.68s-.42.61-.61.92-.53.85-.77,1.28-.51,1-.74,1.44c-.1.21-.2.41-.28.62s-.25.58-.36.88-.17.44-.24.66a19.84,19.84,0,0,0-1,4.69c0,.17,0,.34,0,.51,0,.37,0,.74,0,1.09,0,8.31,5.51,16.63,16.52,23,21.91,12.65,57.45,12.65,79.36,0,10.81-6.24,16.27-14.37,16.37-22.53C283.05,432.36,283,432.16,283,432Zm-19.53,17.65c-9.65,5.58-22.62,8.64-36.53,8.64s-26.86-3.06-36.52-8.64c-8.61-5-13.36-11.19-13.36-17.51s4.67-12.36,13.11-17.24c9.6-5.54,22.54-8.59,36.43-8.59s26.94,3.05,36.66,8.6c8.65,4.93,13.41,11.11,13.43,17.4S272.05,444.74,263.51,449.67Z" style="fill:#fff;opacity:0.45"></path><path d="M276.73,432.33a12.77,12.77,0,0,1-.4,3.18c-1.31-5.19-5.82-10.16-13-14.26-9.72-5.55-22.74-8.6-36.66-8.6s-26.83,3.05-36.43,8.59c-7,4-11.42,8.95-12.71,14.07a12.48,12.48,0,0,1-.4-3.15c0-6.24,4.67-12.36,13.11-17.24,9.6-5.54,22.54-8.59,36.43-8.59s26.94,3.05,36.66,8.6C272,419.86,276.71,426,276.73,432.33Z" style="fill:#407BFF"></path><path d="M276.73,432.33a12.77,12.77,0,0,1-.4,3.18c-1.31-5.19-5.82-10.16-13-14.26-9.72-5.55-22.74-8.6-36.66-8.6s-26.83,3.05-36.43,8.59c-7,4-11.42,8.95-12.71,14.07a12.48,12.48,0,0,1-.4-3.15c0-6.24,4.67-12.36,13.11-17.24,9.6-5.54,22.54-8.59,36.43-8.59s26.94,3.05,36.66,8.6C272,419.86,276.71,426,276.73,432.33Z" style="fill:#fff;opacity:0.25"></path><path d="M276.63,434c-.74,5.67-5.33,11.19-13.12,15.69-9.65,5.58-22.62,8.64-36.53,8.64s-26.86-3.06-36.52-8.64c-7.89-4.56-12.53-10.15-13.26-15.91.73-5.69,5.28-11.19,13-15.65,9.6-5.54,22.54-8.59,36.43-8.59s26.94,3.05,36.66,8.6C271.24,422.64,275.91,428.22,276.63,434Z" style="fill:#fff;opacity:0.55"></path></g></g><g id="freepik--Device--inject-5"><g id="freepik--device--inject-5"><g id="freepik--Case--inject-5"><path d="M292.06,243.64l5-2.91s26.71-87.16,29.2-92.21-2-7.63-6.82-4.85L68.67,288.29c-4.81,2.77-6.33,6.59-10.61,14.91s-28.4,88.4-28.4,88.4a4.45,4.45,0,0,0,2.15,4.7l57.1,33.07L351.24,277.92Z" style="fill:#407BFF"></path><path d="M292.06,243.64l5-2.91s26.71-87.16,29.2-92.21-2-7.63-6.82-4.85L68.67,288.29c-4.81,2.77-6.33,6.59-10.61,14.91s-28.4,88.4-28.4,88.4a4.45,4.45,0,0,0,2.15,4.7l57.1,33.07L351.24,277.92Z" style="fill:#fff;opacity:0.35000000000000003"></path><path d="M61.21,305.21C58,311.51,32.84,393.3,32.84,393.3L300.26,238.9s26.53-83.13,29.18-88.37-2-7.62-6.82-4.85L71.81,290.3C67,293.08,64.47,298.91,61.21,305.21Z" style="fill:#407BFF"></path><path d="M61.21,305.21C58,311.51,32.84,393.3,32.84,393.3L300.26,238.9s26.53-83.13,29.18-88.37-2-7.62-6.82-4.85L71.81,290.3C67,293.08,64.47,298.91,61.21,305.21Z" style="opacity:0.25"></path><polygon points="295.17 241.85 32.84 393.3 90.93 426.85 353.26 275.4 295.17 241.85" style="fill:#407BFF"></polygon><polygon points="295.17 241.85 32.84 393.3 90.93 426.85 353.26 275.4 295.17 241.85" style="opacity:0.15"></polygon><path d="M313.44,50.84,60.7,196.49c-5.55,3.2-7.28,8.38-6.3,15.21L84.31,421.6c1,6.82,6.41,10.82,12,7.62l250.5-144.57c5.55-3.2,9.25-11.33,8.27-18.15L325.24,57.4C324.26,50.58,319,47.64,313.44,50.84Z" style="fill:#407BFF"></path><path d="M313.44,50.84,60.7,196.49c-5.55,3.2-7.28,8.38-6.3,15.21L84.31,421.6c1,6.82,6.41,10.82,12,7.62l250.5-144.57c5.55-3.2,9.25-11.33,8.27-18.15L325.24,57.4C324.26,50.58,319,47.64,313.44,50.84Z" style="fill:#fff;opacity:0.35000000000000003"></path></g><g id="freepik--Tablet--inject-5"><path d="M330.47,55.3a7.8,7.8,0,0,0-6.81.84L73.15,200.72a16.85,16.85,0,0,0-6.4,7.33l-8.08-3.42c1.77-3.88,4.88-5.3,7.53-6.85L316.69,53.21a7.69,7.69,0,0,1,7.08-.73h0Z" style="fill:#455a64"></path><path d="M92.43,431.33v0c-2.48-1-4.33-3.59-4.86-7.34l-29.64-208c-.61-4.26-.81-8.09.74-11.31l8.09,3.43c-.22.45-.41.9-.61,1.37s-.28.75-.39,1.13a.55.55,0,0,0-.05.17,10.28,10.28,0,0,0-.38,1.31,13.43,13.43,0,0,0-.3,1.37,7.48,7.48,0,0,0-.14,1,15.72,15.72,0,0,0,0,4.44L94.68,428c.54,3.79,2.42,6.39,4.93,7.39Z" style="fill:#263238"></path><path d="M323.65,56.15,70.91,201.81c-5.54,3.2-7.27,8.38-6.29,15.2L94.67,428c1,6.82,6.27,9.76,11.81,6.56L357,290c5.54-3.2,9.24-11.33,8.27-18.16L335.46,62.72C334.48,55.89,329.19,53,323.65,56.15Z" style="fill:#37474f"></path><path d="M341.6,289,118,418c-2.87,1.66-5.61.13-6.12-3.4L82.39,207.71c-.51-3.54,1.41-7.75,4.28-9.41l223.6-129c2.87-1.66,5.61-.14,6.12,3.4L345.88,279.6C346.39,283.13,344.47,287.35,341.6,289Z" style="fill:#263238"></path><path d="M82.39,207.71l29.49,206.93c0,.14.05.27.08.4l223.6-129c2.87-1.66,4.79-5.87,4.28-9.41L310.27,69.27l-223.6,129C83.8,200,81.88,204.17,82.39,207.71Z" style="fill:#fafafa"></path><path d="M93.79,335.84a5,5,0,0,1-2.15,4.73c-1.45.83-2.82.07-3.08-1.71a5,5,0,0,1,2.16-4.73C92.16,333.29,93.54,334.06,93.79,335.84Z" style="fill:#263238"></path><path d="M84,287.39h0a3.87,3.87,0,0,0-1.67,3.67l4.89,34.07c.2,1.39,1.27,2,2.39,1.34h0a3.9,3.9,0,0,0,1.67-3.68l-4.88-34.07C86.21,287.33,85.14,286.74,84,287.39Z" style="fill:#263238"></path></g><g id="freepik--Map--inject-5"><path d="M191.93,184.7v0l21.55-16.62-4.79-33.38L148.5,169.43l32,17.91Zm129-3.62-9-63-44.07,22.16,9,63ZM204.76,274.42l15-12.84a26.75,26.75,0,0,1,5.71-10L214.3,173.89l-21.54,16.64v0l-11.39,2.62,12,83.61ZM311,112.22l-4.85-33.83-43.64,25.22L267,134.4Zm-73.16,36.52v0l22-11.06-4.31-30-38.31,22.13,4.5,31.44Zm90.53,84.8-6.68-46.69L277.62,209l2.5,17.52ZM109,231.21l22.8-5.27-6.19-43.28L87.23,204.81l5.3,37Zm78.6,46.66-11.94-83.38L138.53,175.2l-6.34,3.66,15.36,107.35ZM113.17,260.4l22.8-5.27-3.36-23.34L109.81,237,93.38,247.64,96.7,271Zm41.22,123.39-5-35-4.29,40.34ZM199.06,358l-6.46-45.1-36.14,35.48L161,380ZM335,279.52l-5.74-40.15-48.26-7-14.73,54.35,4.29,30Zm-225.72,79L116,405.92l23.58-13.6,7.16-61.78-5.53-38.66-22.89,4.68-9.9,5.25a34.56,34.56,0,0,1-6,9.51l6,41.4L124.86,342l.82,5.84Zm8.25-67.74,22.91-4.7L136.79,261,114,266.23,97.55,276.82l.31,2.23c6.46-1.43,11.66,2.06,12.72,9.41a22.06,22.06,0,0,1-.09,6.22Zm74.27,16.24-3.35-23.35-40,8.28,7.24,50.55Zm41.13-35.7c4.56-2.64,7.69-8.69,7-13.51s-5-6.63-9.54-4-7.71,8.68-7,13.52S228.33,274,232.9,271.35Zm29.68,50L258,289l5.89-23.95-11-2.85-9.59,7.87L238,274.84l8,56Zm-25.11,14.5-8.19-57.29c-5.25.59-9.49-2.58-10.36-8.61a16.33,16.33,0,0,1-.15-2.34l-13.25,12.11-11.39,2.68,10.37,72.49Zm10.25-118.36v0l22-11-9-62.92-22,11.07v0L222.59,167l9,62.91Zm5.44,38v0l12.27,3.21,7.43-30.35-2.3-16-22,11.06v0l-16.12,12.46L234,246.64c5.24-.58,9.43,2.62,10.3,8.67a18.85,18.85,0,0,1-.52,7.38Z" style="fill:#f0f0f0"></path><path d="M257.9,267.93l-3.38-.87L247,273.22l-3.7,3.34L250,323.21l7.22-4.17-4.37-30.52Zm13.46,19.34,3.12,21.8,55.13-31.83L324.71,243l-39.8-5.78ZM247.5,249.54l14,3.69,6.24-25.42-1.2-8.35-14.71,7.39-14.08,10.88.71,5a14.51,14.51,0,0,1,4.64,2A14,14,0,0,1,247.5,249.54Zm37.15-26.67,38,5.51L317.7,194,283,211.47ZM132.55,266.5l-16.2,3.74-9,5.83c.32.16.63.33.94.51a15.12,15.12,0,0,1,7,10.15l6.53-1.26,13-2.72Zm87.53,13.93a13.82,13.82,0,0,1-3.88-4l-7.73,7.09-8.83,2.08,8.81,61.55,23.66-13.66-7.31-51A14.46,14.46,0,0,1,220.08,280.43ZM120.4,300.7l-7.75,4.12c-.22.48-.45.95-.69,1.42a37.88,37.88,0,0,1-4.23,6.49l4.57,31.86,16.43-10.68L131,350,114.6,360.68,120,398.27l14.81-8.55,6.89-59.46-4.72-33Zm63.75-11.61-30.24,6.26,5.28,36.87,27.3-26.8ZM280.81,196l34.68-17.38-7.64-53.39-34.68,17.45ZM201.94,270.5l13.21-11.34a30.17,30.17,0,0,1,1.64-3.81,31,31,0,0,1,3.38-5.21l-9.64-67.31-15.09,11.64-8.57,2L197.6,271.4Zm-75.66-47.83-4.64-32.34-29,16.76,3.81,26.59,9.81-6.38ZM305.63,109.78l-3.39-23.72L267.9,105.88,271,127.21Zm-70.87,35.34,19.72-9.91-2.85-19.93-29,16.75,2.89,20.23Zm-26.62,21-3.4-23.79-47.12,27.21,23.44,13.11,8.09-1.87ZM182.06,274.5,171,196.92l-32-16.61-1.43.83,14.27,99.66Z" style="fill:#e0e0e0"></path><path d="M193.7,355.71,189,323.2,161.73,350l3.2,22.34Zm38.61-88.44a7.85,7.85,0,0,0,3.78-7.23c-.39-2.61-2.67-3.56-5.13-2.16a7.93,7.93,0,0,0-3.76,7.27C227.57,267.73,229.87,268.7,232.31,267.27Zm12.3-53.43L264.32,204l-7.62-53.27L242,158.07,227.9,169,235.36,221Zm-134.7,43,20.54-5-2.07-14.55-16.2,3.74-13.45,8.73,1.87,13.07Z" style="fill:#407BFF"></path><path d="M193.7,355.71,189,323.2,161.73,350l3.2,22.34Zm38.61-88.44a7.85,7.85,0,0,0,3.78-7.23c-.39-2.61-2.67-3.56-5.13-2.16a7.93,7.93,0,0,0-3.76,7.27C227.57,267.73,229.87,268.7,232.31,267.27Zm12.3-53.43L264.32,204l-7.62-53.27L242,158.07,227.9,169,235.36,221Zm-134.7,43,20.54-5-2.07-14.55-16.2,3.74-13.45,8.73,1.87,13.07Z" style="fill:#fff;opacity:0.6000000000000001"></path></g></g><g id="freepik--Pins--inject-5"><path d="M126.79,200.53c0-5.31-3.5-7.6-7.81-5.11s-7.81,8.81-7.81,14.12v1.21c0,4.09,4.63,8.83,6.76,10.8a1.06,1.06,0,0,0,1.66-.31c1.84-3.77,7.2-15.11,7.2-19.51ZM119,209.22c-2.29,1.33-4.15.25-4.15-2.39a9.17,9.17,0,0,1,4.15-7.18c2.29-1.32,4.14-.25,4.14,2.4A9.14,9.14,0,0,1,119,209.22Z" style="fill:#407BFF"></path><path d="M199.64,183.92c0-5.31-3.5-7.59-7.81-5.1S184,187.63,184,192.94v1.21c0,4.08,4.63,8.83,6.76,10.79a1,1,0,0,0,1.66-.31c1.84-3.76,7.2-15.1,7.2-19.5Zm-7.81,8.7c-2.29,1.32-4.15.25-4.15-2.39a9.15,9.15,0,0,1,4.15-7.18c2.29-1.32,4.14-.25,4.14,2.39A9.14,9.14,0,0,1,191.83,192.62Z" style="fill:#407BFF"></path><path d="M220.17,201.13c0-5.31-3.5-7.6-7.81-5.11s-7.81,8.81-7.81,14.12v1.21c0,4.09,4.63,8.83,6.76,10.8a1.05,1.05,0,0,0,1.66-.31c1.84-3.77,7.2-15.11,7.2-19.51Zm-7.81,8.69c-2.29,1.33-4.14.25-4.14-2.39a9.16,9.16,0,0,1,4.14-7.18c2.29-1.32,4.14-.25,4.14,2.4A9.14,9.14,0,0,1,212.36,209.82Z" style="fill:#407BFF"></path><path d="M145.37,308.12c0-5.31-3.5-7.59-7.81-5.1s-7.81,8.81-7.81,14.12v1.21c0,4.09,4.63,8.83,6.76,10.79a1,1,0,0,0,1.66-.31c1.84-3.76,7.2-15.1,7.2-19.5Zm-7.81,8.7c-2.29,1.32-4.15.25-4.15-2.39a9.17,9.17,0,0,1,4.15-7.18c2.28-1.32,4.14-.25,4.14,2.39A9.17,9.17,0,0,1,137.56,316.82Z" style="fill:#407BFF"></path><path d="M285.43,266c0-5.31-3.5-7.59-7.81-5.1s-7.81,8.81-7.81,14.11v1.21c0,4.09,4.63,8.83,6.76,10.8a1.05,1.05,0,0,0,1.66-.31c1.84-3.77,7.2-15.11,7.2-19.5Zm-7.81,8.7c-2.29,1.32-4.14.25-4.14-2.4a9.14,9.14,0,0,1,4.14-7.17c2.29-1.33,4.14-.25,4.14,2.39A9.16,9.16,0,0,1,277.62,274.68Z" style="fill:#407BFF"></path><path d="M291.66,169.35c0-5.31-3.49-7.59-7.81-5.1s-7.8,8.81-7.8,14.12v1.21c0,4.08,4.63,8.83,6.76,10.79a1,1,0,0,0,1.66-.31c1.84-3.76,7.19-15.1,7.19-19.5Zm-7.81,8.7c-2.29,1.32-4.14.25-4.14-2.39a9.14,9.14,0,0,1,4.14-7.18c2.29-1.32,4.15-.25,4.15,2.39A9.17,9.17,0,0,1,283.85,178.05Z" style="fill:#407BFF"></path></g></g><g id="freepik--search-bar--inject-5"><g id="freepik--Search--inject-5"><path d="M261.34,15.48c-1.5-.87-3.58-.74-5.88.58L70,123.14c-4.59,2.66-8.32,9.1-8.32,14.4v18.34c0,2.65.93,4.52,2.44,5.39L72.24,166c1.5.87,3.58.74,5.87-.58L263.6,58.3c4.59-2.65,8.31-9.1,8.31-14.4V25.56c0-2.65-.93-4.51-2.42-5.38Z" style="fill:#407BFF"></path><path d="M261.34,15.48c-1.5-.87-3.58-.74-5.88.58L70,123.14c-4.59,2.66-8.32,9.1-8.32,14.4v18.34c0,2.65.93,4.52,2.44,5.39L72.24,166c1.5.87,3.58.74,5.87-.58L263.6,58.3c4.59-2.65,8.31-9.1,8.31-14.4V25.56c0-2.65-.93-4.51-2.42-5.38Z" style="fill:#fff;opacity:0.35000000000000003"></path><path d="M61.66,137.54v18.34c0,2.65.93,4.52,2.44,5.39L72.24,166c1.44.83,3.42.74,5.6-.44V137.37l-13.74-8A16.94,16.94,0,0,0,61.66,137.54Z" style="fill:#407BFF"></path><path d="M271.91,25.56c0-5.3-3.72-7.45-8.31-4.8L78.11,127.84c-4.59,2.65-8.31,9.1-8.31,14.4v18.34c0,5.3,3.72,7.45,8.31,4.8L263.6,58.3c4.59-2.65,8.31-9.1,8.31-14.4Z" style="fill:#407BFF"></path><path d="M271.91,25.56c0-5.3-3.72-7.45-8.31-4.8L78.11,127.84c-4.59,2.65-8.31,9.1-8.31,14.4v18.34c0,5.3,3.72,7.45,8.31,4.8L263.6,58.3c4.59-2.65,8.31-9.1,8.31-14.4Z" style="fill:#fff;opacity:0.15"></path><path d="M79.79,132.29a12.44,12.44,0,0,0-5.6,9.7v15.69c0,2.54,1.79,3.57,4,2.31L238.08,67.6V40.83Z" style="fill:#fafafa"></path></g></g><g id="freepik--Icon--inject-5"><path d="M265.47,49l-3.33-2.52c-.44-.33-1.06-.13-1.61.43l.06-.12-1.17-.88a16.25,16.25,0,0,0,1.46-6.42c0-5-3-7.25-6.75-5.1s-6.75,7.93-6.75,12.9,3,7.25,6.75,5.1a12.61,12.61,0,0,0,4.17-4.36l1.18.89.06-.12a2,2,0,0,0,.37,1.93l3.33,2.52a1,1,0,0,0,1.11,0A3.05,3.05,0,0,0,265.47,52C266.08,50.81,266.08,49.48,265.47,49Zm-11.34.59c-2.57,1.48-4.66-.1-4.66-3.52s2.09-7.4,4.66-8.88,4.65.09,4.65,3.51S256.69,48.13,254.13,49.61Z" style="fill:#e6e6e6"></path></g><g id="freepik--Character--inject-5"><g id="freepik--character--inject-5"><g id="freepik--Bottom--inject-5"><path d="M447.57,407.07c-1.05-14.46.57-25.54-.63-48.11h0c-.11-5.79-.32-12-.7-17.49-1.31-18.53-4.17-24.86-4.43-28.44,0,0-.49-28.82-1.7-69.36-.57-19.07-6.1-24.85-10.51-35H377.11c-5.86,25-7.53,79.45-7.35,105.19.09,13.12,5.38,83.33,5.49,84.95.37,5.73-.13,8-2.37,10.4-4.7,5-11.52,9.84-17.41,14.24.85,2.26,7.94,2.17,11.45.46A89.71,89.71,0,0,0,380,415.6c4.84-3.58,11-6.46,11.1-11.91a5.59,5.59,0,0,1,.17-1c.09-3.18,7.51-50.15,8.13-61,.53-9.37-.61-25.28-.61-25.28l6-39.69s3.72,23.46,7.49,39.48c3.07,13,8.13,35.29,11.59,51.34h0c3.32,18.49,8.19,31.64,9,40.9.26,2.21,2.76,23.89,3.79,28.86s11.86,5.1,12.56-3.44C449.76,428.15,447.77,409.79,447.57,407.07Z" style="fill:#b16668"></path><path d="M345.44,429.25c-.3,0-.79,3.29.83,4.71,1.86,1.64,7.34,4.36,14.64,3.5s11.27-3.08,14.21-5.49,7.06-5.8,10.37-6.5c3.07-.64,6.41-2,7.4-2.93s.9-5.14.9-5.14Z" style="fill:#263238"></path><path d="M391.42,401.17s.55,0,.73,1c.21,1.16.41,4.54.88,6.45.64,2.65,1,8.07.6,10.23s-5.43,3.59-8.63,4.77A40.89,40.89,0,0,0,374.59,430c-3.45,2.78-10.68,5.54-15.43,5.56-7.25,0-11.93-2-13.35-4.61-1.76-3.24-.33-5.1,8-8.87,1.58-.71,7.16-3.93,9.06-5.1a42.39,42.39,0,0,0,5.72-4.16,31.77,31.77,0,0,0,2.57-2.49,11.13,11.13,0,0,0,2.13-2.67c.1-.22.17-.48.26-.7a12.35,12.35,0,0,0,.56-1.95c.14-.69.24-1.7.9-2.11a5.58,5.58,0,0,1,3-.32,21.63,21.63,0,0,1,3.21.49c1.22.29,2.64.41,3.36,1.57a6.19,6.19,0,0,1,.65,3c0,.48,0,1,0,1.46,0,.21-.09.58.2.5s.59-.8.7-1.05c.24-.54.39-1.12.65-1.66a8.87,8.87,0,0,1,1.06-1.75,8.37,8.37,0,0,1,1.33-1.33,15.21,15.21,0,0,0,1.44-.91A3.38,3.38,0,0,0,391.42,401.17Z" style="fill:#37474f"></path><path d="M352.5,422.74c10.49.84,13.72,7.36,14.13,11.37a24.64,24.64,0,0,1-7.47,1.49c-7.25,0-12.23-2-13.65-4.61C343.85,427.93,345,425.49,352.5,422.74Z" style="fill:#fafafa"></path><path d="M368.23,423a.57.57,0,0,0,.33-.11.51.51,0,0,0,.08-.72,12.33,12.33,0,0,0-9.45-3.85.51.51,0,0,0-.46.56.5.5,0,0,0,.56.46,11.46,11.46,0,0,1,8.55,3.47A.51.51,0,0,0,368.23,423Z" style="fill:#f0f0f0"></path><path d="M372.78,420.43a.51.51,0,0,0,.33-.11.52.52,0,0,0,.08-.72,12.29,12.29,0,0,0-9.45-3.84.51.51,0,0,0,.1,1,11.42,11.42,0,0,1,8.55,3.46A.48.48,0,0,0,372.78,420.43Z" style="fill:#f0f0f0"></path><path d="M377,417.47a.51.51,0,0,0,.33-.11.52.52,0,0,0,.08-.72,12.37,12.37,0,0,0-9.45-3.85.51.51,0,0,0-.46.56.5.5,0,0,0,.56.46,11.46,11.46,0,0,1,8.55,3.47A.51.51,0,0,0,377,417.47Z" style="fill:#f0f0f0"></path><path d="M381.14,414.51a.56.56,0,0,0,.32-.11.52.52,0,0,0,.09-.72c-2-2.56-6.51-4.28-10.32-3.91a.52.52,0,0,0-.47.56.52.52,0,0,0,.56.46c3.44-.33,7.66,1.25,9.42,3.52A.54.54,0,0,0,381.14,414.51Z" style="fill:#f0f0f0"></path><path d="M433.34,441.15c.29,5,1.06,8.24,2.82,11.14s5.07,3.81,8.42,3,7.66-3.12,8.62-7.39,1.52-7.2.76-11.79Z" style="fill:#263238"></path><path d="M447.45,405.3c1.38.11,1.79,6.76,2.59,13.41.85,7.14,3,10.09,3.75,15.94.87,6.68-.24,9.67-2.58,13.71s-10.63,8-14.71,2.22c-3.33-4.72-3.47-9.95-3.17-16.63a147.68,147.68,0,0,0-.44-16.91c-.27-5-1.38-10.05-.18-10.6.09.73.18,1.66.28,2.38a12,12,0,0,0,.45,2.67c.14.37.45.77.57.16a3.69,3.69,0,0,0,0-1.24c-.2-1.85.73-2,1.23-2.14a61,61,0,0,1,6.41-.91c1.06-.07,4.71-.23,5.18.37a4.15,4.15,0,0,1,.47,1.93c.11,1,.35,1.75.38,1.43.06-.72-.08-2.59-.1-3s-.08-1-.09-1.46S447.48,405.73,447.45,405.3Z" style="fill:#37474f"></path><path d="M454.17,438.52a16.7,16.7,0,0,1-2.58,10.16c-2.35,4-11.3,8-15.39,2.23-2-2.88-2.58-6.29-2.86-9.76C435.79,436.69,450.31,434.72,454.17,438.52Z" style="fill:#fafafa"></path><path d="M436.36,433.88a.47.47,0,0,0,.17,0c.06,0,6.46-2.68,12.68-1.23a.53.53,0,0,0,.62-.39.52.52,0,0,0-.39-.62c-6.58-1.52-13.11,1.2-13.35,1.31a.51.51,0,0,0,.27,1Z" style="fill:#f0f0f0"></path><path d="M448.9,427.62a.51.51,0,0,0,.12-1c-6.2-2.1-13.08,1.05-13.34,1.19a.51.51,0,0,0-.22.69.52.52,0,0,0,.7.21s6.76-3.08,12.53-1.12A.5.5,0,0,0,448.9,427.62Z" style="fill:#f0f0f0"></path><path d="M448.69,422.93a.52.52,0,0,0,.43-.34.53.53,0,0,0-.31-.66c-6.82-2.44-13.35,1-13.59,1.15a.51.51,0,1,0,.53.88c.05,0,6.36-3.33,12.71-1.06A.61.61,0,0,0,448.69,422.93Z" style="fill:#f0f0f0"></path><path d="M448.35,418.3a.51.51,0,0,0,.13-1c-6.39-2.39-13.42,1.14-13.69,1.3a.52.52,0,0,0-.19.7.51.51,0,0,0,.7.18c.07,0,6.88-3.44,12.82-1.22A.45.45,0,0,0,448.35,418.3Z" style="fill:#ebebeb"></path><path d="M431,208.87c6.22,11.34,10.84,20.61,11.46,54.32s.53,43.16.66,47.22,2.5,11.34,4.58,31.36-.38,43.89-.38,43.89-1.43,3.22-9.09,3.91c-7.07.63-10.56-2-10.56-2s-9.69-39-12.37-51.06-10.46-51.72-10.46-51.72l-4.62,32.16s2.15,11.06,0,28.62-6,35.55-6,35.55a32,32,0,0,1-10.85,1.77,18.28,18.28,0,0,1-9.52-2.49s-6-52.25-6-72.15,1.68-69.67,7.94-99.14Z" style="fill:#407BFF"></path><path d="M431,208.87c6.22,11.34,10.84,20.61,11.46,54.32s.53,43.16.66,47.22,2.5,11.34,4.58,31.36-.38,43.89-.38,43.89-1.43,3.22-9.09,3.91c-7.07.63-10.56-2-10.56-2s-9.69-39-12.37-51.06-10.46-51.72-10.46-51.72l-4.62,32.16s2.15,11.06,0,28.62-6,35.55-6,35.55a32,32,0,0,1-10.85,1.77,18.28,18.28,0,0,1-9.52-2.49s-6-52.25-6-72.15,1.68-69.67,7.94-99.14Z" style="fill:#fff;opacity:0.6000000000000001"></path><path d="M435.26,314s-3.88-4.05-11.35-3.15-10.51,5.29-10.51,5.29C421.4,312.53,435.26,314,435.26,314Zm-17.58,3.58c4.4.88,8.79,1.27,18.42-.64C431.53,315.82,417.68,317.57,417.68,317.57Z" style="fill:#b16668"></path><path d="M387.35,314.06c-2.75-1.58-13-3.66-19.42-2.8l.07,2.16A94.4,94.4,0,0,1,387.35,314.06Zm-19.24,2.16.11,2s10.26-.52,14.56-1.68C375.45,316,368.11,316.22,368.11,316.22Z" style="fill:#b16668"></path><path d="M441.36,326c-.25-1.16-.49-2.26-.71-3.3-1.95-9.32-1.93-21.5-1.89-36.92,0-4.66,0-9.48,0-14.6-.18-20.08-1.72-42.57-11.88-57.07l-.82.58c6.83,9.75,9.7,23.24,10.9,37.16-10.08-1.34-12.29-11.3-15.3-25-.41-1.87-.83-3.81-1.29-5.8l-1,.23c.46,2,.89,3.92,1.3,5.79,3,13.68,5.38,24.51,16.35,25.82.49,6.13.67,12.33.72,18.31,0,5.12,0,9.93,0,14.59,0,15.48-.06,27.71,1.91,37.12.22,1.05.46,2.15.71,3.31,2.61,12,6.52,30.11,4.57,61.58a8,8,0,0,0,1.05-.67C447.85,355.94,444,338,441.36,326ZM377.82,237.8c1.41,6.63,12,12.21,16.78,13.36l1.22,6.74c-.24,3.58-.5,7.34-.76,11.23-1.46,21.41-3,43.55-1.88,48.55,2.88,13.15,2,21.49.48,36.63-.16,1.54-.32,3.16-.49,4.86-.88,8.79-1.85,17.41-2.49,22.94l1-.24c.64-5.54,1.59-14,2.44-22.6.17-1.7.34-3.32.5-4.86,1.56-15.24,2.41-23.64-.51-37-1.06-4.85.52-27.91,1.91-48.26.16-2.47.33-4.89.49-7.24l4.28,23.73-.61,31.24,4.62-32.16-6.31-38.28S385.22,245.54,377.82,237.8Z" style="fill:#407BFF;opacity:0.30000000000000004"></path></g><g id="freepik--Top--inject-5"><path d="M425.67,119.4s2.57,15.56,4.17,19.19,4.5,6.6,1.53,6.63a3.68,3.68,0,0,1-3.65-2.71l.64,12.37L390,157.08V119.32Z" style="fill:#263238"></path><g id="freepik--Arm--inject-5"><path d="M387.47,151.08c-8,1.92-12,3-17,10.47-5.07,7.64-10.2,16.15-17.83,27.85l-20-9.33-8,13.92s20.46,11.71,29.44,15.84c5.69,2.63,9.88.75,14.27-3.84,4.89-5.1,16.71-22.46,16.71-22.46Z" style="fill:#37474f"></path><path d="M352.68,189.4c3.38,1.15,7,4.36,7.59,6.28-1.94-5.9-5-7-6.62-7.76Z" style="fill:#9a4a4d"></path></g><g id="freepik--Chest--inject-5"><path d="M440.74,234.06c-1.32-9.85-6.63-28.64-6.93-30.91-1.78-13.2.57-19.9,1.43-25.68,1.88-12.58-1.72-23.12-4.65-25.6,0,0-3.33-.82-6.12-1.32-2.21-.4-3.92-.66-6.84-1.37-7.26-1.76-15.2,0-18,.25a29.42,29.42,0,0,0-5.67.41c-2,.45-6.51,1.24-6.52,1.24a41.33,41.33,0,0,0-8.65,11.12c-3.19,5.7-5.39,10.13-5.88,21.41-.82,18.76-.77,42.46-1.35,53.1,10.38,6.39,43.11,10.52,58.83,3.19l-.08-15.63L434,238.59A20.63,20.63,0,0,0,440.74,234.06Z" style="fill:#455a64"></path><path d="M395.79,176c-.43,2.87-.71,5.75-1,8.64-.52,5.78-.79,11.57-1,17.36s-.28,11.59-.23,17.38c0,2.9.06,5.79.14,8.69s.2,5.79.36,8.68l.27-17.36c.11-5.79.23-11.58.46-17.36s.44-11.56.8-17.33c.18-2.88.39-5.77.71-8.64a48.34,48.34,0,0,1,1.42-8.54A43.73,43.73,0,0,0,395.79,176Z" style="fill:#37474f"></path></g><g id="freepik--tablet--inject-5"><path d="M308,164h0l1.55-1.45v0a1.85,1.85,0,0,1,1.65-.25l47.91,11.09a6.4,6.4,0,0,1,4.06,3.5l14,35.69a1.63,1.63,0,0,1-.16,1.86h0l-1.6,1.5v0a1.85,1.85,0,0,1-1.67.26l-47.91-11.09a6.4,6.4,0,0,1-4.06-3.5l-14-35.69C307.42,165,307.54,164.32,308,164Z" style="fill:#407BFF"></path><path d="M308,164h0l1.55-1.45v0a1.85,1.85,0,0,1,1.65-.25l47.91,11.09a6.4,6.4,0,0,1,4.06,3.5l14,35.69a1.63,1.63,0,0,1-.16,1.86h0l-1.6,1.5v0a1.85,1.85,0,0,1-1.67.26l-47.91-11.09a6.4,6.4,0,0,1-4.06-3.5l-14-35.69C307.42,165,307.54,164.32,308,164Z" style="fill:#fff;opacity:0.35000000000000003"></path><path d="M359.46,175.75a6.27,6.27,0,0,1,2.13,2.58l14,35.68a1.74,1.74,0,0,1-.1,1.82l1.51-1.4,0,0a1.63,1.63,0,0,0,.16-1.85l-14-35.69a6.25,6.25,0,0,0-2-2.45Z" style="fill:#407BFF"></path><path d="M375.57,214l-14-35.68a6.47,6.47,0,0,0-4.07-3.51l-47.91-11.08c-1.63-.38-2.46.58-1.85,2.14l14,35.69a6.4,6.4,0,0,0,4.06,3.5l47.91,11.09C375.36,216.53,376.19,215.57,375.57,214Z" style="fill:#407BFF"></path><path d="M375.57,214l-14-35.68a6.47,6.47,0,0,0-4.07-3.51l-47.91-11.08c-1.63-.38-2.46.58-1.85,2.14l14,35.69a6.4,6.4,0,0,0,4.06,3.5l47.91,11.09C375.36,216.53,376.19,215.57,375.57,214Z" style="opacity:0.15"></path><path d="M361.87,185.92l-2.62-6.68a1.24,1.24,0,0,0-.76-.66l-3.3-.75c-.3-.07-.46.11-.35.4.52,1.31,2.11,5.36,2.62,6.68a1.23,1.23,0,0,0,.76.65l3.3.76C361.83,186.39,362,186.21,361.87,185.92Z" style="fill:#407BFF"></path><path d="M359.15,180.86a3,3,0,0,0-1.93-1.61c-.79-.18-1.21.25-.93,1a3,3,0,0,0,1.94,1.61C359,182,359.43,181.57,359.15,180.86Z" style="fill:#263238"></path><path d="M360.43,184.24a3,3,0,0,0-1.93-1.62c-.79-.18-1.21.25-.93,1a3,3,0,0,0,1.94,1.61C360.3,185.38,360.71,185,360.43,184.24Z" style="fill:#263238"></path><path d="M312.86,187.45c-1.82-2-1.71-2.35-1-3.57a7,7,0,0,1,5.34-3.52c1.95-.16,3.91-.41,5,0s.43,2.61-2,3.45c-3.89,1.33-3.74,2.41-3.74,2.41a49.56,49.56,0,0,1,5.05-1.46c1.46-.25,4.23.16,5.94.24s2.29,2.22-.48,3.28l3.13.15c2.2.11,3.06,1.18,1.51,2.7a3.23,3.23,0,0,1-1.87,1s2.29-.26,2.43.5c.37,2.18-1,2.91-5.48,4.77-4.29,1.77-4.94,4.25-3.88,5.8,0,0-1.9-.84-3.61-1.77-1.25-.67-2.34-1.47-2-3.34,0,0-2.53.32-2.85-1.22a8.12,8.12,0,0,1,.24-3.43,2.78,2.78,0,0,1-1.68-2.44,4.55,4.55,0,0,1,.62-2.85Z" style="fill:#b16668"></path><path d="M326.93,188.28a14.18,14.18,0,0,0-2.84,0,9,9,0,0,0-2.61,1.16,32.49,32.49,0,0,0-4.6,3.14,32.54,32.54,0,0,0,5-2.43,14.67,14.67,0,0,1,2.37-1.25C325.07,188.67,326,188.55,326.93,188.28Z" style="fill:#9a4a4d"></path><path d="M329.7,192.08a6.16,6.16,0,0,0-3,.24,15.82,15.82,0,0,0-2.79,1.22,28.48,28.48,0,0,0-5,3.4,58,58,0,0,0,5.35-2.67A15.81,15.81,0,0,1,329.7,192.08Z" style="fill:#9a4a4d"></path></g><g id="freepik--arm--inject-5"><path d="M394.74,178.74c-3.62-2.7-5.45-3.75-7.14-4.23s-7.61-2.94-9.88-3.51c-1.44-.35-2,1.94-.19,3.51,1.41,1.22,5.08,2.81,6.7,3.69s4.77,4.73,4.77,4.73Z" style="fill:#9a4a4d"></path><path d="M445.64,161.12c-3.59-7.65-4.92-7.27-13.61-8.28-6.22,7.32-3.28,24.69-3.28,24.69L433.13,199s-21.65-5.82-24.1-7.39-9-8.63-11.23-10.75c-3-2.88-4.49-2.49-6-2.26-5,.75-6.09,1.17-7.14,1.84a2.26,2.26,0,0,0-1,1.94c-1.32.17-3.31.13-3.56,2.31a6,6,0,0,0-.08,1.74,1.43,1.43,0,0,0-.86.5c-1.11,1.28.78,5.7,2,6.78.84.76,2.05.85,3.63.64,1.34-.18.71-1.55.71-1.55l1.88.11c4.07,2.88,4.27,8.6,9.64,9.86a37,37,0,0,1,6.56,1.28c11.56,3.88,30.52,15.65,40.82,16.54,10.06.86,9.77-4.5,9.92-10.65C454.45,204.45,449.22,168.75,445.64,161.12Z" style="fill:#b16668"></path><path d="M432.7,196.91l.43,2.1c4.58,1.18,9.53,4.48,10.62,7C442.9,202,440.76,199.06,432.7,196.91Z" style="fill:#9a4a4d"></path><path d="M430.59,151.87c6.33.77,10.47.69,13.16,4.57s3.3,5,5.26,14.53,5.49,30.34,5,34c-4.09-4.09-20.84-6-20.84-6l-.43-.11s-2.35-11.24-3.43-15S425.19,161.21,430.59,151.87Z" style="fill:#37474f"></path><path d="M431.9,195.13c-.62.31-.81.79-.57,1.78a7.43,7.43,0,0,1,.23,1.68s-.34-.05,1.57.42,11.64,4.87,15.4,9.45a25.84,25.84,0,0,1,4.89,8.75,5,5,0,0,1-1.44,2c1,0,2.13-.78,3.11-3.34.44-1.16-.53-2.46.29-5.11a9.22,9.22,0,0,0-.14-6.41c-.7-1.95,2-3.77-1.68-6S439.79,193.08,431.9,195.13Z" style="fill:#455a64"></path><path d="M383.66,182.39l5.94-1.19-5.81.37A2.38,2.38,0,0,0,383.66,182.39Z" style="fill:#9a4a4d"></path><path d="M380,186.44l6.82-.88-6.83.09A3.5,3.5,0,0,0,380,186.44Z" style="fill:#9a4a4d"></path><path d="M380.92,189.45a2.17,2.17,0,0,0,.92.8,4.69,4.69,0,0,0,1.16.4l-.09-.07c.19.36.38.71.58,1.06l.14-.19a1.39,1.39,0,0,0-1.09.27,1.82,1.82,0,0,0-.59.89,2.14,2.14,0,0,1,.69-.74,1.41,1.41,0,0,1,.93-.17l.26.05-.12-.23c-.18-.36-.37-.71-.57-1.06l0-.06h-.06a6.4,6.4,0,0,1-1.14-.31A2.54,2.54,0,0,1,380.92,189.45Z" style="fill:#9a4a4d"></path><path d="M382.73,190.33a21,21,0,0,0,2.47.17,2.75,2.75,0,0,0,.85,1.31,13.61,13.61,0,0,0,1.32,1.11l-1.88-.11a3,3,0,0,0-2.15-1.16Z" style="fill:#9a4a4d"></path></g><path d="M408,93.55c-1.15-2.91,1.12-5.21,3.05-4.54a3.09,3.09,0,0,1,1.37-3.79c2-1.16,4.3.39,4.3.39a3.76,3.76,0,0,1,3-3c2.51-.39,3.79.37,4.88,1.94,0,0,4-1,9.59,3.25,3.26,2.46,4.48,4.36,3.95,6.9-.36,1.75-2.57,1.79-2.57,1.79s2.77,1.56,1.82,4.33-3.25,1.55-3.25,1.55a3,3,0,0,1,.39,3.77,3.27,3.27,0,0,1-3.33,1.25c.46.06.51,4.65-3.79,3.34C423.55,110.64,408,93.55,408,93.55Z" style="fill:#263238"></path><path d="M428.72,110.85a1.82,1.82,0,0,0-.14-2.21,3.44,3.44,0,0,0-.93-4.77s0-5-4.18-3.9l1.8,7.63Z"></path><path d="M424.59,84.58a14.34,14.34,0,0,1,7.5-2.71c4.33-.2,5.06,1.27,4.38,2.1s-4.07.52-6.91,3.18S424.59,84.58,424.59,84.58Z" style="fill:#263238"></path><path d="M424,85.2a8.57,8.57,0,0,1,1.44-5.62c1.88-2.7,3.58-1.14,3,.77a14.84,14.84,0,0,0-.35,4.43Z" style="fill:#263238"></path><path d="M435.56,96.52s-4.68-6.16-10-7.49a13.54,13.54,0,0,1,7,3.07C435.37,94.73,435.56,96.52,435.56,96.52Z"></path><path d="M417.31,84.24a4.19,4.19,0,0,0-.57,1.37c.59,2.63,4.52,6.91,7.28,8.39C424,94,418.22,88.76,417.31,84.24Z"></path><path d="M417.23,123.38s6.41,1.21,8.48-.32c3.41-2.5,3.28-4.61,3.19-5.68a3,3,0,0,0-1.17-2.35,3.61,3.61,0,0,0,1.36-3.56c-.46-2.29-2-2.24-2-2.24s1.63-3-1.07-4c0,0,1.19-2.14.06-3.81a4,4,0,0,0-2.74-1.81,3.8,3.8,0,0,0-1-3.27,3.16,3.16,0,0,0-4.08-.37,3,3,0,0,0-1.18-3.51,3.69,3.69,0,0,0-4-.35,3.88,3.88,0,0,0-3.11-2.8,3.34,3.34,0,0,0-3.56,2.19,4.55,4.55,0,0,0-4.5-2.16,4.41,4.41,0,0,0-3.67,2.46,5.08,5.08,0,0,0-4.45-.71c-2.73,1-2.88,3-2.88,3a3.6,3.6,0,0,0-3.68.6,3.13,3.13,0,0,0-1.34,3.24,3.15,3.15,0,0,0-2.25,1.87,3.61,3.61,0,0,0,.21,3.29s-2.78,2.73-.63,5.65c1.49,2,6.29,12.45,16.14,16.39A19.82,19.82,0,0,0,417.23,123.38Z" style="fill:#263238"></path><path d="M384.52,100.61c-2.83-.18-4.47,4-5.16,8.81s-4.1,8.1-2.55,9.39,3.64-1.08,5-3.49,2.41-9.21,4-10.23S384.52,100.61,384.52,100.61Z" style="fill:#263238"></path><path d="M385.16,105.89a16.41,16.41,0,0,0-1.83,9,25.8,25.8,0,0,1-.15,6.21c-1.47,8.51.9,17.24,6.63,20a18.49,18.49,0,0,0,9.2,1.7l.07,3.42a3,3,0,0,1-2.16,3l-3.29.8a29.6,29.6,0,0,0,4.06,17.53c8.54-1.72,23.91-12.95,27.24-16.8h0a6.39,6.39,0,0,1-7.05-6.53l.3-10.91s2.32,2.49,6.63-.91c3.57-2.8,5-7.77,2.46-10.61a6.15,6.15,0,0,0-9.76,1.36s-5.81.45-4.61-4.29l-.06-.4,0-.25c-2.16-.75-2.42-4.65-.67-4.65-.07-.39-.05-.3-.12-.69-2.35-.42-3.11-5-1-4.76a11.44,11.44,0,0,0-3.81-5.24l-.68.27c-.48,2.62-4.33,2.93-5.17,1.87-.5.13-1.37-1.62-1.86-1.5-.81,2.39-5.17,1.26-6.29-.19C392.44,104.44,389.58,105.66,385.16,105.89Z" style="fill:#b16668"></path><path d="M399,142.78c9.61-1.22,13-6.6,14.56-10.07,0,0-.19,5.41-3.8,8.46a18.12,18.12,0,0,1-10.71,4.51Z" style="fill:#9a4a4d"></path><path d="M402.76,130.25l-5.85,1.94a3,3,0,0,0,3.84,2.06A3.22,3.22,0,0,0,402.76,130.25Z" style="fill:#9a4a4d"></path><path d="M402.4,131.61a3.4,3.4,0,0,0-3.36,2.68,2.94,2.94,0,0,0,1.71,0,3.17,3.17,0,0,0,2.11-2.59A3.41,3.41,0,0,0,402.4,131.61Z" style="fill:#f28f8f"></path><path d="M385.66,115.19l4.32-2a2.28,2.28,0,0,0-3.07-1.23A2.49,2.49,0,0,0,385.66,115.19Z" style="fill:#263238"></path><path d="M406.48,115.76l-4.23-2.26a2.29,2.29,0,0,1,3.17-1A2.53,2.53,0,0,1,406.48,115.76Z" style="fill:#263238"></path><polygon points="396.26 116.41 395.75 128.88 389.32 126.31 396.26 116.41" style="fill:#9a4a4d"></polygon><path d="M390.81,118.67a2,2,0,0,1-1.8,2.18,1.91,1.91,0,0,1-2.14-1.73,2,2,0,0,1,1.8-2.17A1.92,1.92,0,0,1,390.81,118.67Z" style="fill:#263238"></path><path d="M405.12,118.86a2,2,0,0,1-1.79,2.17,1.9,1.9,0,0,1-2.14-1.72,2,2,0,0,1,1.8-2.17A1.89,1.89,0,0,1,405.12,118.86Z" style="fill:#263238"></path><path d="M407.43,103.36c-.79-4-2.24-7.56-9.17-11.61,0,0,8.11,4.19,8.28,12.46Z" style="fill:#b16668"></path><path d="M390.93,94.07a14.5,14.5,0,0,1,10.63,11.59l-2.1-1.29C399.59,102.53,398.09,96.84,390.93,94.07Z" style="fill:#b16668"></path><path d="M385.91,97.91a7,7,0,0,1,7.34,5.68l-.81.62S392.12,99.69,385.91,97.91Z" style="fill:#b16668"></path><path d="M410,107.22s8.36,1.63,14.75-1.56c0,0-3.9,3.2-14.62,2.32Z" style="fill:#b16668"></path><path d="M410.78,112.68s7.94,1.19,14.8-2.6c0,0-3.65,3.49-14.4,3.41Z" style="fill:#b16668"></path><path d="M411.14,118.05s8.35,1.06,14.85-2.68c0,0-3.65,3.49-14.41,3.41Z" style="fill:#b16668"></path><path d="M397.69,167.48s9.38-5.93,13-9.06c6.76-5.89,7.53-10.39,7.53-10.39s-.08-1.2-.27-2.78c.92.12,1.08.84,2.12,2.14a11.37,11.37,0,0,0,5.15,3.26s-.28,3.64-5.36,10.49c-4.07,5.48-13.82,11.05-15.06,11.36S397.69,167.48,397.69,167.48Z" style="fill:#37474f"></path><path d="M397.69,167.48c-3.43-6.37-1.73-12.68-1.11-14.71s1.11-3.82,1.11-3.82a3.18,3.18,0,0,0,1.39-2.75l0-.83a5.85,5.85,0,0,0-2.27,1.66,11.56,11.56,0,0,1-6.08,3.47c-3,6.13-3.2,13.85-.55,19C390.58,170.26,397.69,167.48,397.69,167.48Z" style="fill:#37474f"></path><path d="M422.38,133.76c.26,3.76.38,15.74-1.38,24.26-1.65,8-7,22-7.7,25.68s-3.9,3.33-3.49-1,3.41-13.57,5.52-20.23a49.43,49.43,0,0,0,2.35-11l.5-18.2A4.71,4.71,0,0,0,422.38,133.76Z" style="fill:#263238"></path><path d="M411.83,173.73s2.76-1.41,4.17,1.22l1.1-3.34S416.49,169,413,170Z" style="fill:#407BFF"></path></g></g></g><g id="freepik--speech-bubble--inject-5"><g id="freepik--speech-bubble--inject-5"><g id="freepik--speech-bubble--inject-5"><path d="M464.68,67.92c-.94,7.68-4.62,12.06-9.3,14.3l-4.48-2.59a11.43,11.43,0,0,0,2.2-5,15.29,15.29,0,0,0,.11-5.23l7-4C459.91,67.76,464.68,67.92,464.68,67.92Z" style="fill:#407BFF"></path><path d="M464.68,67.92c-.94,7.68-4.62,12.06-9.3,14.3l-4.48-2.59a11.43,11.43,0,0,0,2.2-5,15.29,15.29,0,0,0,.11-5.23l7-4C459.91,67.76,464.68,67.92,464.68,67.92Z" style="opacity:0.2"></path><path d="M475.32,20.05V59.3a4.65,4.65,0,0,1-2.1,3.64l-8.54,5c-.94,7.68-4.62,12.06-9.3,14.3C458,79,458.08,74.3,457.69,72L453.1,74.6,447,78.11a4.64,4.64,0,0,1-4.2,0l-1.72-1A4.66,4.66,0,0,1,439,73.48V34.23a4.65,4.65,0,0,1,2.1-3.64l26.22-15.16a4.64,4.64,0,0,1,4.2,0l1.71,1A4.66,4.66,0,0,1,475.32,20.05Z" style="fill:#407BFF"></path><path d="M439,73.48a4.65,4.65,0,0,0,2.1,3.64l1.71,1a4.67,4.67,0,0,0,3.84.17c-1,.37-1.74-.18-1.74-1.38V37.64a4.32,4.32,0,0,1,.61-2.07l-5.91-3.41a4.29,4.29,0,0,0-.61,2.07Z" style="opacity:0.2"></path><path d="M475.25,19.46c-.24-.9-1.05-1.18-2-.62L447,34a4.09,4.09,0,0,0-1.48,1.57l-5.91-3.41a4.16,4.16,0,0,1,1.48-1.57l26.22-15.17a4.64,4.64,0,0,1,4.2,0l1.72,1A4.6,4.6,0,0,1,475.25,19.46Z" style="fill:#fff;opacity:0.30000000000000004"></path></g><path d="M468.83,39.24c0-6.09-4-8.71-9-5.86s-9,10.12-9,16.21V51c0,4.69,5.32,10.13,7.76,12.39a1.21,1.21,0,0,0,1.91-.36c2.11-4.32,8.26-17.34,8.26-22.38Zm-9,10c-2.62,1.52-4.75.29-4.75-2.74a10.52,10.52,0,0,1,4.75-8.24c2.63-1.52,4.76-.29,4.76,2.75A10.49,10.49,0,0,1,459.86,49.22Z" style="fill:#fafafa"></path></g></g></svg>