<svg xmlns="http://www.w3.org/2000/svg" viewBox="0 0 500 500"><g id="freepik--Scale--inject-1343"><path d="M268.91,468H181.44c-2.85,0-4.4-2.32-3.5-5.08l10.95-33.52c.52-1.58,2.59-2.83,4.65-2.83h63.27c2.06,0,4.14,1.25,4.65,2.83l11,33.52C273.31,465.66,271.76,468,268.91,468Z" style="fill:#fff;stroke:#263238;stroke-linecap:round;stroke-linejoin:round"></path><path d="M268.91,465H181.44c-2.85,0-4.4-2.31-3.5-5.08l10.95-33.52c.52-1.58,2.59-2.82,4.65-2.82h63.27c2.06,0,4.14,1.24,4.65,2.82l11,33.52C273.31,462.67,271.76,465,268.91,465Z" style="fill:#fff;stroke:#263238;stroke-linecap:round;stroke-linejoin:round"></path><path d="M258.47,453.88H191.88c-2.17,0-3.52-1.38-3-3.05l6.49-21.72c.33-1.1,2-2,3.67-2h52.31c1.7,0,3.35.87,3.67,2l6.49,21.72C262,452.5,260.64,453.88,258.47,453.88Z" style="fill:#263238;stroke:#263238;stroke-linecap:round;stroke-linejoin:round"></path><path d="M232.92,444.26h-15.6l-8.87,8.18c2.88,5.51,9.13,9.47,16.73,9.47S239,458,241.87,452.5Z" style="fill:#fff;stroke:#263238;stroke-linecap:round;stroke-linejoin:round"></path><line x1="224.55" y1="455.51" x2="224.53" y2="458.83" style="fill:none;stroke:#263238;stroke-linecap:round;stroke-linejoin:round"></line><line x1="220.44" y1="454.44" x2="218.8" y2="457.7" style="fill:none;stroke:#263238;stroke-linecap:round;stroke-linejoin:round"></line><line x1="229.78" y1="454.85" x2="230.94" y2="458.22" style="fill:none;stroke:#263238;stroke-linecap:round;stroke-linejoin:round"></line><line x1="234.34" y1="452.94" x2="235.92" y2="455.23" style="fill:none;stroke:#263238;stroke-linecap:round;stroke-linejoin:round"></line><line x1="215.26" y1="452.75" x2="213.04" y2="455.23" style="fill:none;stroke:#263238;stroke-linecap:round;stroke-linejoin:round"></line></g><g id="freepik--Character--inject-1343"><path d="M190.11,286s-2,16.46,2,30.89,6.59,21,5.32,28.36-1.26,24.81,1.27,34.69,5.82,32.41,6.33,35.7-8.61,12.92-12.41,16.71-4.81,6.34-2.53,7.6,10.13,2.53,14.43,1a17.64,17.64,0,0,0,7.6-5.31c1.52-1.52,7.59-1.27,7.09-9.37a236.39,236.39,0,0,1,.25-23.8c.25-5.07,3.29-22.29,3.55-31.66s-.76-23.8-.76-23.8a171.82,171.82,0,0,0,1.26-21.52c-.25-9.37.26-29.12.26-29.12Z" style="fill:#d9d9d9;stroke:#263238;stroke-linecap:round;stroke-linejoin:round"></path><path d="M219.23,426.23c-.27-4.29-.25-9.27-.14-13.78-7.56,2.86-12.36.95-14.59-.49.26,1.74.45,3,.55,3.63.5,3.29-8.61,12.92-12.41,16.71s-4.81,6.33-2.53,7.6,10.13,2.53,14.43,1a17.64,17.64,0,0,0,7.6-5.31C213.66,434.08,219.73,434.33,219.23,426.23Z" style="fill:#fff;stroke:#263238;stroke-linecap:round;stroke-linejoin:round"></path><path d="M262.59,286s2,16.46-2,30.89-6.58,21-5.32,28.36S256.51,370,254,379.89s-5.83,32.41-6.33,35.7,8.61,12.92,12.41,16.71,4.81,6.34,2.53,7.6-10.13,2.53-14.44,1a17.66,17.66,0,0,1-7.59-5.31c-1.52-1.52-7.6-1.27-7.09-9.37s0-18.74-.25-23.8-3.3-22.29-3.55-31.66.76-23.8.76-23.8a173,173,0,0,1-1.27-21.52c.26-9.37-.25-29.12-.25-29.12Z" style="fill:#d9d9d9;stroke:#263238;stroke-linecap:round;stroke-linejoin:round"></path><path d="M233.47,426.23c.27-4.29.25-9.27.14-13.78,7.55,2.86,12.35.95,14.59-.49-.27,1.74-.46,3-.55,3.63-.51,3.29,8.61,12.92,12.41,16.71s4.81,6.33,2.53,7.6-10.13,2.53-14.44,1a17.66,17.66,0,0,1-7.59-5.31C239,434.08,233,434.33,233.47,426.23Z" style="fill:#fff;stroke:#263238;stroke-linecap:round;stroke-linejoin:round"></path><path d="M187.83,235.05s-5.57,21.27-7.85,28.62c-1.32,4.26-1,10.56-3.8,13.92a5.7,5.7,0,0,0-1,3.8s15.44,12.41,26.59,15.19,23.54,6.08,23.54,6.08l1.78-2.78s.25,3,1.26,3a12.54,12.54,0,0,0,3-.76S269.62,292,272.66,290s6.07-3.8,5.57-6.08-3.55-6.33-3.55-6.33S271.9,250,261,233.79c0,0-15.39,9-42.29,3.29S188.5,232.43,187.83,235.05Z" style="fill:#263238;stroke:#263238;stroke-linecap:round;stroke-linejoin:round"></path><path d="M251.4,263.09s-12.86,10-16.72,12.86" style="fill:none;stroke:#d9d9d9;stroke-linecap:round;stroke-linejoin:round"></path><line x1="251.07" y1="258.59" x2="242.72" y2="266.95" style="fill:none;stroke:#d9d9d9;stroke-linecap:round;stroke-linejoin:round"></line><path d="M203.5,261.49s7.07,9.32,9.65,11.57" style="fill:none;stroke:#d9d9d9;stroke-linecap:round;stroke-linejoin:round"></path><path d="M204.15,256.67s5.46,7.71,7.07,9" style="fill:none;stroke:#d9d9d9;stroke-linecap:round;stroke-linejoin:round"></path><path d="M228.34,302.91a12.54,12.54,0,0,0,3-.76S269.62,292,272.66,290s6.07-3.8,5.57-6.08-3.55-6.33-3.55-6.33S271.9,250,261,233.79a24.15,24.15,0,0,1-2.81,1.31c.85,2.83,3.69,6.05,7.78,16.28,4.18,10.45,5.75,27.44,5.75,27.44s2.61,2.35,2.35,3.4-4.7,3.13-11.76,5.74-29.26,10.72-31.61,10.2a3.51,3.51,0,0,0-3.63,1.72S227.33,302.91,228.34,302.91Z" style="fill:#fff;stroke:#263238;stroke-linecap:round;stroke-linejoin:round"></path><path d="M180,263.67c-1.32,4.26-1,10.56-3.8,13.92a5.7,5.7,0,0,0-1,3.8s15.44,12.41,26.59,15.19,23.54,6.08,23.54,6.08l1.78-2.78-1.34-1.72c-1.34-1.72-2.87.78-2.87.78s-7.32-2.35-20.91-7.58a77.43,77.43,0,0,1-23-14.11l8.86-42.2S182.26,256.32,180,263.67Z" style="fill:#fff;stroke:#263238;stroke-linecap:round;stroke-linejoin:round"></path><path d="M211.79,136.59s-13.34-3.08-21.81,3.84-43.1,41.31-45.41,44.65,5.65,9.75,9,10.26,43.62-29.25,43.62-29.25l4.1-4.1s-1.79,36.94-3.33,45.67-6.67,14.88-9,16.42-8,4.1-6.67,8.46S194.6,241,201,242.8s23.86,6.93,36.43,4.88,22.83-6.41,23.86-10.52-4.62-15.39-4.87-20.27a129.45,129.45,0,0,1,.25-14.62c.26-2.83,3.08-28.23,3.08-28.23s17.19,25.4,19.5,30,14.88,9.24,19.24,5.65,5.13-7.19,2.82-13.34-18.21-29.25-25.91-40.54-7.18-12.32-19-17.19S231,135.3,231,135.3Z" style="fill:#d9d9d9;stroke:#263238;stroke-linecap:round;stroke-linejoin:round"></path><path d="M213.59,134.53c.26-.77-11.29,32.59,9.75,36.18s20.78-35.66,20.78-35.66l8.21,1.79s.77,17.19,4.88,28,6.15,23.86,1.79,32.07-15.39,7.7-23.6,7.7-32.59-1.8-36.44-5.39-9.75-9.75-5.64-22.07,8.72-18.73,11-26.68,3.85-15.65,3.85-15.65Z" style="fill:#407BFF;stroke:#263238;stroke-linecap:round;stroke-linejoin:round"></path><path d="M214.21,86.94s-13.23-2.3-19.44,2.93-9.4,15.62-6.73,19.35,7.21,5.87,6.46,9.67-10.84,3.45-7.75,14,8.1,8.95,9.76,13.76-3.3,6.17-4.66,4.87.52,5.46,5.38,8.24,14.46,1.29,16.44-4.47-1.56-17.06-1.26-22.87-1.15-17.3,4.35-26.32,7.65-10.75,5.66-14.31S214.21,86.94,214.21,86.94Z" style="fill:#263238;stroke:#263238;stroke-linecap:round;stroke-linejoin:round"></path><path d="M209.85,90s-5.12,9.36-4.94,14.66.7,13.07.53,17.66,1.41,8.83,4.59,13.77,7.59,10.25,10.77,11a10.15,10.15,0,0,0,9-2.29c2.12-2.12,8.83-7.77,10.24-11.13S242.7,114,242.7,114s-10.42-19.61-17.48-23.49S214.27,84.86,209.85,90Z" style="fill:#d9d9d9;stroke:#263238;stroke-linecap:round;stroke-linejoin:round"></path><path d="M216.74,113.11a46,46,0,0,1,1.06,6.36s-.18,5.48-1.06,8" style="fill:none;stroke:#263238;stroke-linecap:round;stroke-linejoin:round"></path><path d="M216.39,131.83s1.94,1.59,3.35,1.24,3-.88,3.53-1.59" style="fill:none;stroke:#263238;stroke-linecap:round;stroke-linejoin:round"></path><path d="M216.39,137.31s4.06-.35,6.35,1.06" style="fill:none;stroke:#263238;stroke-linecap:round;stroke-linejoin:round"></path><path d="M224.86,119.12s4.42,2.82,8.3-.18" style="fill:none;stroke:#263238;stroke-linecap:round;stroke-linejoin:round"></path><path d="M208.08,117.88s3.18,2.65,6.72.89" style="fill:none;stroke:#263238;stroke-linecap:round;stroke-linejoin:round"></path><path d="M214.44,111.52s-5.3-.17-7.24,3.18" style="fill:none;stroke:#263238;stroke-linecap:round;stroke-linejoin:round"></path><path d="M221.86,111.88a10.68,10.68,0,0,1,10.24,2.82" style="fill:none;stroke:#263238;stroke-linecap:round;stroke-linejoin:round"></path><path d="M209.85,90s9.89-.88,11.83,6.71,4.42,10.6,9,11.83,9.18,3.53,9.18,7.77-4.76,10.25-1.23,16.78,4.41,5.3,4.24,7.6-3.89,5.65-2.12,10.24,6.36,2.29,7.59,4.77.88,3.88-1.41,4.06l-2.3.18s-.35,4.94,6.89,4.94,12.89-5.83,13.6-11.3S262.66,143,263,139.43s8.12-7.24,7.95-16.78-5.48-7.77-5.3-13.07,3.89-13.07,1.59-16.6S252.94,80.79,242.7,74.44s-27.2-7.07-32.32-1.77-5.3,10.24-5.3,10.24S203.49,88.21,209.85,90Z" style="fill:#263238;stroke:#263238;stroke-linecap:round;stroke-linejoin:round"></path><path d="M152.53,176.87s-7.44,5.38-8,8.21a27.38,27.38,0,0,0,1.54,17.44c3.59,8.73,11.29,16.94,16.42,21s5.39,4.11,6.67,6.42,6.42,7.69,8.73,8,5.9,2.57,7.18,3.34,3.33,0,4.87-.52a5.82,5.82,0,0,0,1.8-.77l-4.62-2.31a52.56,52.56,0,0,1-4.87-5.13c-1.54-2-.77-7.18-.77-7.18a58.77,58.77,0,0,1,5.9,3.59c2.05,1.54,3.33,2.05,6.16.77s.51-1.28-1.29-2.82-9.49-8.73-9.49-8.73l-8.21-.25s-8-6.16-9-8.73-.51-21.55-4.36-26.17" style="fill:#d9d9d9;stroke:#263238;stroke-linecap:round;stroke-linejoin:round"></path><path d="M191.83,231.35a27.4,27.4,0,0,0,5.72.47" style="fill:none;stroke:#263238;stroke-linecap:round;stroke-linejoin:round"></path><path d="M193.46,232.87a34.15,34.15,0,0,0,8.76,2" style="fill:none;stroke:#263238;stroke-linecap:round;stroke-linejoin:round"></path><path d="M272.63,191.93s-9-12.82-11.38-14.42-10.58.65-13.78,1.76c-2.52.88-5.25.22-9.77.65-3.15.29-1,2.88,1.6,3.2s5.93-.32,7.69.48,8.33,8,8.82,8.49-2.41.48-5-.48-6.25-2.88-7.05-1.76.32,3.2,2.08,3.69,5.29,3.36,9.29,4a22.32,22.32,0,0,0,6.73.16l4.81.8s10.42,12,20.67,15.71,14.1,2.24,16.83-1,3.36-10.09,1-13.46-2.73-3.2-10.74-4.64S272.63,191.93,272.63,191.93Z" style="fill:#d9d9d9;stroke:#263238;stroke-linecap:round;stroke-linejoin:round"></path><path d="M253.56,179.76s-4.32-4.49-5.61-4.17-5.6,7-5.28,8.17,1.76.8,3-.64a40,40,0,0,1,3.37-3.2" style="fill:#d9d9d9;stroke:#263238;stroke-linecap:round;stroke-linejoin:round"></path><path d="M258.05,178s-4.49-3.36-6.41-1.92-5,9-3.85,9.13,1.83-.22,3.37-1.76c3.36-3.36,1.28-1.76,1.28-1.76" style="fill:#d9d9d9;stroke:#263238;stroke-linecap:round;stroke-linejoin:round"></path><path d="M263,179s-4-3.52-5.61-3.2-5.29,8.81-4.81,9.93,3-.32,4-1.76,2.24-3.52,2.24-3.52,2.08,7.21,3.2,8.65" style="fill:#d9d9d9;stroke:#263238;stroke-linecap:round;stroke-linejoin:round"></path><path d="M266.7,198.5s2.4,1,4.33-2.08" style="fill:#fff;stroke:#263238;stroke-linecap:round;stroke-linejoin:round"></path></g></svg>