<svg xmlns="http://www.w3.org/2000/svg" viewBox="0 0 500 500"><g id="freepik--character-2--inject-2"><g id="freepik--Character--inject-2"><polygon points="401.83 363.76 392.51 362.69 390.1 343.91 401.49 347.29 401.83 363.76" style="fill:#b16668"></polygon><path d="M381.41,379.08a2.81,2.81,0,0,0,.16,2.28c1,1.16,3.58,2.52,7.1,2.77,3.37.24,6.37-.21,8.34-1.46a5.83,5.83,0,0,0,3.12-4.56c.19-1.91,0-3.76.89-5.23s2.18-2.9,2.47-3.64a7.45,7.45,0,0,0,0-3.9Z" style="fill:#263238"></path><path d="M390.62,362.36a7.77,7.77,0,0,1-.39,2.13,19.56,19.56,0,0,1-2.06,4.21,17.23,17.23,0,0,1-1.4,2c-1,1.21-2.28,2.21-3.36,3.37a6.9,6.9,0,0,0-2.08,4.12c-.14,2.64,4.06,3.54,6.27,3.93a16.19,16.19,0,0,0,7.16-.36,6.57,6.57,0,0,0,4.82-5.25c.13-.74.08-1.49.17-2.22a10.35,10.35,0,0,1,2.05-4.62,13.69,13.69,0,0,0,1.57-2.51c.69-1.63.14-3.47-.3-5.09-.38-1.41-.84-3-1.34-2.89,0,.73,0,.83-.49,1.32s-.68,1.57-1.38,2.12a10.11,10.11,0,0,0,.49-1.88,1.05,1.05,0,0,0-.15-.74,2,2,0,0,0-.81-.44,16.68,16.68,0,0,0-3.2-.73,19.66,19.66,0,0,0-4.47,0,1.33,1.33,0,0,0-.79.46,1.63,1.63,0,0,0-.28.9C390.6,360.57,390.64,361.66,390.62,362.36Z" style="fill:#455a64"></path><path d="M387.81,369.26c1-.74,4.53-.75,5.73-.62a7.26,7.26,0,0,1,3.42,1.2.78.78,0,0,0,1-.08h0a.74.74,0,0,0-.08-1.12,7.43,7.43,0,0,0-3.84-1.43,19.86,19.86,0,0,0-5.18.3S387.52,368.38,387.81,369.26Z" style="fill:#f5f5f5"></path><path d="M385.55,372c1.24-.73,5-.63,6.21-.5a6.83,6.83,0,0,1,3.32,1.27.79.79,0,0,0,1-.08h0a.74.74,0,0,0-.08-1.12,14.26,14.26,0,0,0-5.27-1.54c-3-.21-3.73.39-3.73.39A2.49,2.49,0,0,0,385.55,372Z" style="fill:#f5f5f5"></path><path d="M395.22,364.38a14.56,14.56,0,0,0-5.06.31c-.52.29-.87,1.12-.53,1.33a14.22,14.22,0,0,1,4.64-.46,9.9,9.9,0,0,1,3.2.88c.26.12.56.27.82.42a.69.69,0,0,0,1-.3h0a.66.66,0,0,0-.25-.85A9.55,9.55,0,0,0,395.22,364.38Z" style="fill:#f5f5f5"></path><polygon points="367.08 355.22 358.22 352.75 358.22 334.84 369.21 335.32 367.08 355.22" style="fill:#b16668"></polygon><path d="M339.5,364.81a3.27,3.27,0,0,0,.13,2.35c.33.68,3.92,2.71,8.76,2.38a20.22,20.22,0,0,0,10-3.5c1.84-1.22,3.76-1.45,6.16-1.58s5.54-1.34,6.07-2.46a5.35,5.35,0,0,0-.08-3.05Z" style="fill:#263238"></path><path d="M359,349.71l-.38-.08a1.39,1.39,0,0,0-.64,0,1.35,1.35,0,0,0-.6.4,11.88,11.88,0,0,0-1.23,1.95c-1,1.65-3.15,3-5.47,4.27-1.58.85-3.13,1.51-4.76,2.24s-3.88,1.21-5.18,2.09c-1.9,1.28-2.15,4.49,0,5.76,1.86,1.1,6.78,2.29,11.93.83,2.8-.8,5.92-3.79,9.6-4.08,2.34-.19,6.77-.84,8.28-2.62.56-.79-.19-3.29-.8-5.45-.67-2.36-1.3-6-2.08-5.83a1.06,1.06,0,0,1-.41.88c-.29.3-.68.49-1,.76a6.15,6.15,0,0,0-1.3,1.87,1.41,1.41,0,0,1-.66.72c-.4.14-.69-.1-1-.26a2,2,0,0,0-1.4-.1,9.42,9.42,0,0,1,.25-1.39.74.74,0,0,0,0-.44.66.66,0,0,0-.3-.34A7.43,7.43,0,0,0,359,349.71Z" style="fill:#455a64"></path><path d="M352.9,354.94a2.16,2.16,0,0,1,1.73-1.16c1.06-.2,2.94.59,4.11,1.55a.87.87,0,0,1-.12,1.44h0a.86.86,0,0,1-1-.11A6.7,6.7,0,0,0,352.9,354.94Z" style="fill:#f5f5f5"></path><path d="M349.59,356.79a2.51,2.51,0,0,1,2.05-1.06,7.78,7.78,0,0,1,4.51,1.69.85.85,0,0,1-.12,1.39h0a.83.83,0,0,1-1-.11A6.7,6.7,0,0,0,349.59,356.79Z" style="fill:#f5f5f5"></path><path d="M346,358.45a2.78,2.78,0,0,1,2.12-.95,7.53,7.53,0,0,1,4.32,1.7.86.86,0,0,1-.12,1.4h0a.83.83,0,0,1-1-.11A6.39,6.39,0,0,0,346,358.45Z" style="fill:#f5f5f5"></path><path d="M399.79,238.37c.61,18.47.65,58.47.65,58.47.19,2.3.39,6.38.56,14.66.25,12,.83,41.63.83,41.63s-5.73,2.69-11,.5c0,0-7.32-41.66-8.82-53.54-1.31-10.37-3.82-34.69-3.82-34.69l-3.46,30.87s0,8-.47,15.06c-.39,5.5-5.73,33.83-5.73,33.83a18.36,18.36,0,0,1-10.59-.35s-.48-43.49-.58-48.54c-.11-5.74,1.37-67.8,1.37-67.8Z" style="fill:#455a64"></path><path d="M378.21,265.4l-1.32-10.47a36.59,36.59,0,0,1-11.9-5.46s2.54,3.4,10,7l1.68,9.5-1.9,30.3Z" style="fill:#37474f"></path><path d="M358.26,186.54c-2.7,3.54-16.59,22.6-16.59,22.6l-12.83-9.94c-3-2.35-3.89-5.43-5.77-7.56s-3.94-2.64-6.05-4.42-2.92-3.13-3.64-1.61,1.61,4.17,2,4.81,2.8,2.17-.38,2-9.3-3.8-10.78-4.47-1.52,1.16-.82,2.36.35,4.54,1.17,6.69,2.26,3.47,5.19,4.92c2.73,1.36,9.37,2.21,11.53,3.57h0c4.74,4.86,13.68,13.93,15.94,15.61,3.11,2.31,6.12,4.44,10.88-.14s18.55-22.55,18.55-22.55l2.85-17.09C364.83,181.15,361.52,182.27,358.26,186.54Z" style="fill:#b16668"></path><path d="M341.67,209.14c1.76,1.3,3.59,4.22,3.76,5.53a9,9,0,0,0-3-6.56Z" style="fill:#9a4a4d"></path><path d="M370.61,180.9s-6.6-.08-9.5,1.95-5.05,5-9.76,11.85c-4.13,6-6.13,8.88-6.13,8.88a22.14,22.14,0,0,0,11.21,8.56l12.32-15.26Z" style="fill:#37474f"></path><path d="M383.38,180.58c3.74.36,9,.4,12.7.78,2.57,1.06,7.53,5.38,7.16,8.46-1.38,11.51-4.17,30.38-4.17,30.38l.92,20c-5.15,5.14-29.25,7.15-41.67-1.07,0,0,.4-35.92,1.26-42,1.53-10.89,2.87-14.93,8.49-15.89S383.38,180.58,383.38,180.58Z" style="fill:#407BFF"></path><path d="M404.56,186.83c2.7,3.54,16.6,22.6,16.6,22.6L434,199.49c3-2.36,3.89-5.44,5.77-7.56s3.94-2.64,6.05-4.42,2.92-3.13,3.64-1.62-1.61,4.18-2,4.82-2.8,2.17.38,2,9.29-3.81,10.78-4.48,1.51,1.16.82,2.36-.36,4.55-1.17,6.7-2.26,3.46-5.19,4.92c-2.73,1.36-9.37,2.21-11.53,3.57h0c-4.74,4.85-13.68,13.93-15.94,15.6-3.11,2.31-6.12,4.44-10.88-.13s-15.64-18.8-15.64-18.8l-5.76-20.84C398,181.44,401.31,182.56,404.56,186.83Z" style="fill:#b16668"></path><path d="M421.16,209.43c-1.76,1.3-3.59,4.22-3.76,5.53a9,9,0,0,1,3-6.57Z" style="fill:#9a4a4d"></path><path d="M392.67,181.11s5.93-.37,9.05,2c2.81,2.16,5,5,9.76,11.85,4.13,6,6.13,8.88,6.13,8.88a22.2,22.2,0,0,1-11.22,8.56L398,202.06C393.63,196.52,389.3,188.09,392.67,181.11Z" style="fill:#37474f"></path><path d="M384.31,153.5a11.6,11.6,0,1,1-11.7-11.5A11.6,11.6,0,0,1,384.31,153.5Z" style="fill:#263238"></path><path d="M392.84,161.68s-1.81,8.85-2.55,10.3a4,4,0,0,1-2.29,1.89l.07-6.22Z" style="fill:#263238"></path><path d="M390.37,149.05a4.33,4.33,0,0,1,3.61,1.23c1.56,1.57.74,6.53-1.14,11.4l-3.54.44Z" style="fill:#263238"></path><path d="M388.24,162.13c.71.42,1.71-1,2.58-1.88s3.71-2.2,5.17.79-1.2,7.12-3.44,7.84c-3.87,1.26-4.48-1.23-4.48-1.23l-.16,14.42h0c-4.76,6.23-18.15,5.82-12.63-.68l0-4.26a24.52,24.52,0,0,1-5.22.31c-2.86-.41-4.67-2.65-5.57-5.73-1.43-4.94-2-8.94-.9-18.71,1.2-10.7,13.63-10.92,20.38-6.75S388.24,162.13,388.24,162.13Z" style="fill:#b16668"></path><path d="M388.25,163.32c.35,0,1.69-2.26,2.57-3.07,1.21-1.13-.45-11.2-.45-11.2a4.9,4.9,0,0,0-.9-5.45c-1.69-1.83-4.05-4.06-11.65-3.1-5.43.69-11.32,2.44-16.11.14a8.13,8.13,0,0,0,2.9,8.6s1.74,1.1,6.29,1.61a67.39,67.39,0,0,0,12.58-.35c1.32-.19,1.61,1.08,2.35,4.57C386.48,158.12,387.05,163.31,388.25,163.32Z" style="fill:#263238"></path><path d="M390.37,149.83l4.27-2.34a2.36,2.36,0,0,0-3.26-1.05A2.56,2.56,0,0,0,390.37,149.83Z" style="fill:#263238"></path><path d="M375.25,177.13s6.36-1.34,8.57-2.54a7.32,7.32,0,0,0,3.05-3.07,10,10,0,0,1-1.71,3.6c-1.61,2.1-9.89,3.7-9.89,3.7Z" style="fill:#9a4a4d"></path><path d="M374.74,161.11a1.29,1.29,0,0,0,1.28,1.31,1.33,1.33,0,1,0-1.28-1.31Z" style="fill:#263238"></path><path d="M378.53,156.72l-2.84-1.29a1.64,1.64,0,0,0,.8,2.12A1.53,1.53,0,0,0,378.53,156.72Z" style="fill:#263238"></path><path d="M366.38,155.15l-2.47,1.94a1.49,1.49,0,0,0,2.16.31A1.66,1.66,0,0,0,366.38,155.15Z" style="fill:#263238"></path><path d="M364.89,160.8a1.22,1.22,0,1,0,1.21-1.28A1.24,1.24,0,0,0,364.89,160.8Z" style="fill:#263238"></path><polygon points="371.51 159.77 370.79 167.42 366.84 165.9 371.51 159.77" style="fill:#9a4a4d"></polygon><path d="M373.68,170.29a1.23,1.23,0,1,0,1.23-1.22A1.23,1.23,0,0,0,373.68,170.29Z" style="fill:#9a4a4d"></path></g><g id="freepik--question-marks--inject-2"><path d="M404.9,88.82a20.89,20.89,0,0,1,5.46,2.05,15.67,15.67,0,0,1,4.34,3.45A12.37,12.37,0,0,1,417.26,99a11,11,0,0,1,.12,5.62,11.35,11.35,0,0,1-1.72,4.11,13.43,13.43,0,0,1-2.69,2.83,21.92,21.92,0,0,1-3.21,2.07l-3.18,1.68a17.43,17.43,0,0,0-2.72,1.76,5.15,5.15,0,0,0-1.7,2.27,2.37,2.37,0,0,1-.81,1,1.43,1.43,0,0,1-1.22.25l-4.68-1a1.73,1.73,0,0,1-1.1-.76,1.42,1.42,0,0,1-.2-1.27,11.15,11.15,0,0,1,2-4,15.74,15.74,0,0,1,2.88-2.78,22.54,22.54,0,0,1,3.29-2c1.14-.57,2.2-1.12,3.18-1.66a13.89,13.89,0,0,0,2.51-1.7,4,4,0,0,0,1.33-2.2,4.77,4.77,0,0,0-1.12-4.28,8.58,8.58,0,0,0-4.91-2.67q-5.24-1.17-8.86,3.53a3.23,3.23,0,0,1-.87.87,1.57,1.57,0,0,1-1.21.09l-5-1.11a1.35,1.35,0,0,1-.87-.58,1.27,1.27,0,0,1-.19-1.07,9.78,9.78,0,0,1,2.3-4.11,15.48,15.48,0,0,1,4.29-3.32,18.43,18.43,0,0,1,5.65-1.88A16.42,16.42,0,0,1,404.9,88.82Zm-5.28,35.54a1.63,1.63,0,0,1,1.06.76,1.65,1.65,0,0,1,.23,1.28l-1.2,5.42a1.71,1.71,0,0,1-2,1.29l-5.3-1.17a1.65,1.65,0,0,1-1.06-.75,1.62,1.62,0,0,1-.23-1.28l1.2-5.43a1.71,1.71,0,0,1,2-1.29Z" style="fill:#407BFF"></path><path d="M420.62,139.81a14,14,0,0,1,4-.08,10.81,10.81,0,0,1,3.67,1.1,8.54,8.54,0,0,1,2.82,2.32,7.5,7.5,0,0,1,1.51,3.57,7.65,7.65,0,0,1,0,3.07,9.21,9.21,0,0,1-1,2.51,15.59,15.59,0,0,1-1.52,2.14l-1.61,1.9a13.05,13.05,0,0,0-1.3,1.82,3.58,3.58,0,0,0-.5,1.89,1.65,1.65,0,0,1-.26.88,1,1,0,0,1-.71.47l-3.27.54a1.23,1.23,0,0,1-.9-.21,1,1,0,0,1-.45-.76,7.44,7.44,0,0,1,.23-3.06,10.16,10.16,0,0,1,1.13-2.53,15.53,15.53,0,0,1,1.59-2.13c.59-.66,1.12-1.28,1.62-1.88a9.77,9.77,0,0,0,1.17-1.73,2.76,2.76,0,0,0,.29-1.75,3.29,3.29,0,0,0-1.82-2.46,5.86,5.86,0,0,0-3.82-.46,5.73,5.73,0,0,0-4.78,4.53,2.34,2.34,0,0,1-.34.79,1.11,1.11,0,0,1-.75.36l-3.48.57a1,1,0,0,1-.71-.15.89.89,0,0,1-.4-.64,6.75,6.75,0,0,1,.43-3.22,10.48,10.48,0,0,1,1.9-3.23,12.79,12.79,0,0,1,3.14-2.65A11.38,11.38,0,0,1,420.62,139.81ZM426.33,164a1.16,1.16,0,0,1,.88.21,1.15,1.15,0,0,1,.47.76l.62,3.78a1.16,1.16,0,0,1-.21.88,1.12,1.12,0,0,1-.76.47l-3.7.61a1.15,1.15,0,0,1-.87-.21,1.12,1.12,0,0,1-.48-.76l-.62-3.79a1.19,1.19,0,0,1,1-1.35Z" style="fill:#407BFF"></path><g style="opacity:0.2"><path d="M420.62,139.81a14,14,0,0,1,4-.08,10.81,10.81,0,0,1,3.67,1.1,8.54,8.54,0,0,1,2.82,2.32,7.5,7.5,0,0,1,1.51,3.57,7.65,7.65,0,0,1,0,3.07,9.21,9.21,0,0,1-1,2.51,15.59,15.59,0,0,1-1.52,2.14l-1.61,1.9a13.05,13.05,0,0,0-1.3,1.82,3.58,3.58,0,0,0-.5,1.89,1.65,1.65,0,0,1-.26.88,1,1,0,0,1-.71.47l-3.27.54a1.23,1.23,0,0,1-.9-.21,1,1,0,0,1-.45-.76,7.44,7.44,0,0,1,.23-3.06,10.16,10.16,0,0,1,1.13-2.53,15.53,15.53,0,0,1,1.59-2.13c.59-.66,1.12-1.28,1.62-1.88a9.77,9.77,0,0,0,1.17-1.73,2.76,2.76,0,0,0,.29-1.75,3.29,3.29,0,0,0-1.82-2.46,5.86,5.86,0,0,0-3.82-.46,5.73,5.73,0,0,0-4.78,4.53,2.34,2.34,0,0,1-.34.79,1.11,1.11,0,0,1-.75.36l-3.48.57a1,1,0,0,1-.71-.15.89.89,0,0,1-.4-.64,6.75,6.75,0,0,1,.43-3.22,10.48,10.48,0,0,1,1.9-3.23,12.79,12.79,0,0,1,3.14-2.65A11.38,11.38,0,0,1,420.62,139.81ZM426.33,164a1.16,1.16,0,0,1,.88.21,1.15,1.15,0,0,1,.47.76l.62,3.78a1.16,1.16,0,0,1-.21.88,1.12,1.12,0,0,1-.76.47l-3.7.61a1.15,1.15,0,0,1-.87-.21,1.12,1.12,0,0,1-.48-.76l-.62-3.79a1.19,1.19,0,0,1,1-1.35Z"></path></g><path d="M454.72,150.54a1.41,1.41,0,0,1,.33,1.94l-2.64,3.7a1.41,1.41,0,0,1-1.94.33l-3.62-2.57a1.35,1.35,0,0,1-.56-.9,1.4,1.4,0,0,1,.23-1l2.64-3.71a1.39,1.39,0,0,1,.9-.56,1.37,1.37,0,0,1,1,.24ZM470,125.45a16.58,16.58,0,0,1,3.46,3.28,12.85,12.85,0,0,1,2.17,4,10.15,10.15,0,0,1,.45,4.31,9,9,0,0,1-1.7,4.27,9.33,9.33,0,0,1-2.6,2.55,10.87,10.87,0,0,1-2.94,1.27,18,18,0,0,1-3.07.54l-2.94.25a15.81,15.81,0,0,0-2.6.46,4.28,4.28,0,0,0-2,1.18,2.11,2.11,0,0,1-.94.53,1.2,1.2,0,0,1-1-.21l-3.2-2.27a1.45,1.45,0,0,1-.58-.92,1.16,1.16,0,0,1,.25-1,9,9,0,0,1,2.75-2.39,12.32,12.32,0,0,1,3.06-1.18,18.7,18.7,0,0,1,3.12-.48c1-.06,2-.14,2.92-.23a11,11,0,0,0,2.43-.49,3.23,3.23,0,0,0,1.7-1.23,3.87,3.87,0,0,0,.52-3.58,7,7,0,0,0-2.84-3.57q-3.57-2.55-7.8-.17a2.8,2.8,0,0,1-.93.38,1.3,1.3,0,0,1-.95-.32l-3.4-2.42a1.15,1.15,0,0,1-.48-.72,1.06,1.06,0,0,1,.21-.86,7.93,7.93,0,0,1,3-2.37,12.69,12.69,0,0,1,4.29-1.13,15.31,15.31,0,0,1,4.85.38A13.32,13.32,0,0,1,470,125.45Z" style="fill:#407BFF"></path><g style="opacity:0.6000000000000001"><path d="M454.72,150.54a1.41,1.41,0,0,1,.33,1.94l-2.64,3.7a1.41,1.41,0,0,1-1.94.33l-3.62-2.57a1.35,1.35,0,0,1-.56-.9,1.4,1.4,0,0,1,.23-1l2.64-3.71a1.39,1.39,0,0,1,.9-.56,1.37,1.37,0,0,1,1,.24ZM470,125.45a16.58,16.58,0,0,1,3.46,3.28,12.85,12.85,0,0,1,2.17,4,10.15,10.15,0,0,1,.45,4.31,9,9,0,0,1-1.7,4.27,9.33,9.33,0,0,1-2.6,2.55,10.87,10.87,0,0,1-2.94,1.27,18,18,0,0,1-3.07.54l-2.94.25a15.81,15.81,0,0,0-2.6.46,4.28,4.28,0,0,0-2,1.18,2.11,2.11,0,0,1-.94.53,1.2,1.2,0,0,1-1-.21l-3.2-2.27a1.45,1.45,0,0,1-.58-.92,1.16,1.16,0,0,1,.25-1,9,9,0,0,1,2.75-2.39,12.32,12.32,0,0,1,3.06-1.18,18.7,18.7,0,0,1,3.12-.48c1-.06,2-.14,2.92-.23a11,11,0,0,0,2.43-.49,3.23,3.23,0,0,0,1.7-1.23,3.87,3.87,0,0,0,.52-3.58,7,7,0,0,0-2.84-3.57q-3.57-2.55-7.8-.17a2.8,2.8,0,0,1-.93.38,1.3,1.3,0,0,1-.95-.32l-3.4-2.42a1.15,1.15,0,0,1-.48-.72,1.06,1.06,0,0,1,.21-.86,7.93,7.93,0,0,1,3-2.37,12.69,12.69,0,0,1,4.29-1.13,15.31,15.31,0,0,1,4.85.38A13.32,13.32,0,0,1,470,125.45Z" style="fill:#fff"></path></g></g></g><g id="freepik--question-mark--inject-2"><g id="freepik--big-question-mark--inject-2"><path d="M272.44,219.65c-2.85-1.63-14.85-8.57-18.93-10.93-.81-.46-1.32-.76-1.36-.79a9.58,9.58,0,0,0-6.67-1,17.39,17.39,0,0,0-5.52,2.15c-.28.16-.56.35-.83.53-4.61,2.91-8.57,7.49-11.87,13.79a42.75,42.75,0,0,0-5.25,20q0,9.94,5.3,13.95a10.7,10.7,0,0,0,1.12.73c3.31,1.88,19.91,11.5,20.28,11.71l.09,0a9.33,9.33,0,0,1-1.17-.76q-5.31-4-5.3-13.94a42.75,42.75,0,0,1,5.25-20q5.23-10,12.69-14.33,7.1-4.1,12.26-1.07Z" style="fill:#407BFF"></path><path d="M272.53,219.71q-5.16-3-12.26,1.06-6.93,4-11.95,13L228,222c3.14-5.61,6.85-9.74,11.12-12.43.27-.17.55-.37.83-.53a17.12,17.12,0,0,1,5.52-2.14,9.52,9.52,0,0,1,6.67,1l1.36.79c4.08,2.35,16.08,9.29,18.93,10.92Z" style="opacity:0.4"></path><path d="M248.8,269.76l-.09,0c-.37-.21-17-9.83-20.28-11.71a10.7,10.7,0,0,1-1.12-.73q-5.3-4-5.3-13.94a42.69,42.69,0,0,1,5.25-20c.24-.47.49-.93.75-1.37l20.31,11.73c-.25.44-.5.9-.74,1.36a42.75,42.75,0,0,0-5.25,20q0,9.94,5.3,13.94A9.33,9.33,0,0,0,248.8,269.76Z" style="opacity:0.30000000000000004"></path><path d="M263.58,48.05q14.79-8.55,25.18-7.27a21,21,0,0,1,8,2.66,2.12,2.12,0,0,1-.2-.12c-2.38-1.34-16.72-9.61-20-11.54a20.91,20.91,0,0,0-8.16-2.72q-10.4-1.27-25.19,7.26-23,13.27-37,39t-13.85,52.53l20.31,11.73q-.21-26.82,13.85-52.54T263.58,48.05Z" style="fill:#407BFF"></path><path d="M296.6,43.33a21.41,21.41,0,0,0-7.84-2.55q-10.38-1.28-25.18,7.27-23,13.26-37,39c-.39.71-.77,1.43-1.14,2.14L205.08,77.44c.37-.71.75-1.43,1.14-2.14q14.06-25.71,37-39,14.81-8.54,25.19-7.26a20.92,20.92,0,0,1,8.16,2.73C279.88,33.72,294.22,42,296.6,43.33Z" style="opacity:0.2"></path><path d="M225.39,89.17q-12.91,24.69-12.71,50.39l-20.31-11.73q-.19-25.71,12.71-50.39Z" style="opacity:0.30000000000000004"></path><path d="M277.38,81.29q-5.53-2.94-14.77,2.3a36.82,36.82,0,0,1-2.24,10.72q-2.31,6.22-13.44,25.66-11.53,20.1-16.68,38.39a136.14,136.14,0,0,0-5.14,37l.1,6.23,13.86,8,6.46,3.73-.11-6.24V207a136.61,136.61,0,0,1,5.14-36.88q5.15-18.29,16.69-38.38,11.12-19.44,13.43-25.67A36.52,36.52,0,0,0,283,93.23Q283,84.28,277.38,81.29Z" style="fill:#407BFF"></path><path d="M278.69,110.56q-3.44,7.16-11.44,21.14-11.55,20.1-16.69,38.39A136.54,136.54,0,0,0,245.42,207v.16l.11,6.24-6.46-3.72-13.86-8-.1-6.24a136.2,136.2,0,0,1,5.14-37q5.15-18.29,16.68-38.39,8-14,11.46-21.13Z" style="opacity:0.30000000000000004"></path><path d="M283,93.23a36.52,36.52,0,0,1-2.31,12.8c-.43,1.17-1.1,2.68-2,4.53l-20.3-11.72q1.33-2.78,2-4.53a36.82,36.82,0,0,0,2.24-10.72q9.24-5.24,14.77-2.3T283,93.23Z" style="opacity:0.4"></path><path d="M240.17,123.68l-27.49,15.88q-.21-26.82,13.85-52.54t37-39q14.79-8.55,25.18-7.27t16.63,11.39q6.25,10.11,6.25,25.22a81.52,81.52,0,0,1-2,17.38,130.84,130.84,0,0,1-6.29,20q-2.52,6.36-12.07,23.48-9.13,16.32-11.44,22.21A79.47,79.47,0,0,0,276,174.8a150.73,150.73,0,0,0-2,22.14l-28.43,16.42-.11-6.24a136.2,136.2,0,0,1,5.14-37q5.15-18.29,16.69-38.38,11.12-19.44,13.43-25.67A36.52,36.52,0,0,0,283,93.23q0-9-5.61-11.94t-15.06,2.46q-9.66,5.58-15.85,16.74A48,48,0,0,0,240.17,123.68Z" style="fill:#407BFF"></path><path d="M260.22,220.83q7.65-4.43,13.06-.55t5.41,13.81a42.9,42.9,0,0,1-5.35,20.09Q268,264.33,260.43,268.7t-12.86.36q-5.3-4-5.3-13.95a42.75,42.75,0,0,1,5.25-20Q252.77,225.13,260.22,220.83Z" style="fill:#407BFF"></path></g></g></svg>