<svg xmlns="http://www.w3.org/2000/svg" viewBox="0 0 500 500"><g id="freepik--background-complete--inject-409"><path d="M64.34,121.28l-2-2.72c-.09-.13.35-.89.21-1.06s-2,.58-1.77.94.74.27.8.37S63,122,63,122Z" style="fill:#ebebeb"></path><path d="M62.4,117.56a3.83,3.83,0,0,1-1.5.73" style="fill:#dbdbdb"></path><path d="M64.34,121.28l-2-2.72c-.09-.13.35-.89.21-1.06s-2,.58-1.77.94.74.27.8.37S63,122,63,122Z" style="fill:#dbdbdb"></path><path d="M69,121.39s.5-3.18.52-3.33.88-.38.9-.6-1.8-1-1.92-.58c-.07.23.33.71.3.83s-1.3,3.23-1.3,3.23Z" style="fill:#ebebeb"></path><path d="M70.22,117.38a3.84,3.84,0,0,1-1.57-.53" style="fill:#dbdbdb"></path><path d="M69,121.39s.5-3.18.52-3.33.88-.38.9-.6-1.8-1-1.92-.58c-.07.23.33.71.3.83s-1.3,3.23-1.3,3.23Z" style="fill:#dbdbdb"></path><path d="M72.16,124.74s2.6-1.9,2.73-2,.88.35,1,.21-.58-2-.94-1.78-.27.74-.37.81-3.21,1.36-3.21,1.36Z" style="fill:#ebebeb"></path><path d="M75.88,122.79a3.91,3.91,0,0,1-.73-1.49" style="fill:#dbdbdb"></path><path d="M72.16,124.74s2.6-1.9,2.73-2,.88.35,1,.21-.58-2-.94-1.78-.27.74-.37.81-3.21,1.36-3.21,1.36Z" style="fill:#dbdbdb"></path><path d="M72.05,129.36l3.33.53c.15,0,.38.87.6.9s1-1.81.59-1.93c-.24-.07-.72.33-.84.31s-3.22-1.3-3.22-1.3Z" style="fill:#ebebeb"></path><path d="M76.06,130.62A3.78,3.78,0,0,1,76.6,129" style="fill:#dbdbdb"></path><path d="M72.05,129.36l3.33.53c.15,0,.38.87.6.9s1-1.81.59-1.93c-.24-.07-.72.33-.84.31s-3.22-1.3-3.22-1.3Z" style="fill:#dbdbdb"></path><path d="M68.7,132.55l2,2.73c.08.12-.36.89-.22,1.06s2-.58,1.78-1c-.12-.21-.74-.27-.81-.37s-1.36-3.2-1.36-3.2Z" style="fill:#ebebeb"></path><path d="M70.65,136.28a3.87,3.87,0,0,1,1.49-.74" style="fill:#dbdbdb"></path><path d="M68.7,132.55l2,2.73c.08.12-.36.89-.22,1.06s2-.58,1.78-1c-.12-.21-.74-.27-.81-.37s-1.36-3.2-1.36-3.2Z" style="fill:#dbdbdb"></path><path d="M64.08,132.44s-.5,3.18-.53,3.33-.87.38-.9.6,1.81,1,1.93.59-.33-.72-.31-.83,1.3-3.23,1.3-3.23Z" style="fill:#ebebeb"></path><path d="M62.82,136.45a3.94,3.94,0,0,1,1.58.54" style="fill:#dbdbdb"></path><path d="M64.08,132.44s-.5,3.18-.53,3.33-.87.38-.9.6,1.81,1,1.93.59-.33-.72-.31-.83,1.3-3.23,1.3-3.23Z" style="fill:#dbdbdb"></path><path d="M60.89,129.1l-2.73,2c-.12.09-.89-.35-1.06-.21s.59,2,.95,1.77.27-.74.37-.8,3.2-1.36,3.2-1.36Z" style="fill:#ebebeb"></path><path d="M57.16,131a4,4,0,0,1,.74,1.5" style="fill:#dbdbdb"></path><path d="M60.89,129.1l-2.73,2c-.12.09-.89-.35-1.06-.21s.59,2,.95,1.77.27-.74.37-.8,3.2-1.36,3.2-1.36Z" style="fill:#dbdbdb"></path><path d="M61,124.48,57.67,124c-.15,0-.38-.88-.6-.9s-1,1.8-.59,1.92.72-.33.83-.3,3.23,1.3,3.23,1.3Z" style="fill:#ebebeb"></path><path d="M57,123.22a3.92,3.92,0,0,1-.54,1.57" style="fill:#dbdbdb"></path><path d="M61,124.48,57.67,124c-.15,0-.38-.88-.6-.9s-1,1.8-.59,1.92.72-.33.83-.3,3.23,1.3,3.23,1.3Z" style="fill:#dbdbdb"></path><path d="M65,120.79,63,116.65c-.08-.13.45-.84.34-1s-2,.34-1.89.73c.09.23.71.36.76.47s1.42,4.53,1.42,4.53Z" style="fill:#ebebeb"></path><path d="M63.1,115.66a3.79,3.79,0,0,1-1.58.55" style="fill:#dbdbdb"></path><path d="M69.72,121.61s1.41-4.26,1.45-4.4.92-.28,1-.49-1.68-1.2-1.85-.82c-.1.23.24.75.2.87s-2.2,4.21-2.2,4.21Z" style="fill:#ebebeb"></path><path d="M72,116.62a4,4,0,0,1-1.51-.73" style="fill:#dbdbdb"></path><path d="M72.45,125.51s4-2,4.14-2.1.84.46,1,.34-.35-2-.73-1.88-.36.7-.47.75S71.89,124,71.89,124Z" style="fill:#ebebeb"></path><path d="M77.58,123.57A3.9,3.9,0,0,1,77,122" style="fill:#dbdbdb"></path><path d="M71.63,130.19l4.4,1.44c.15.05.28.93.49,1s1.19-1.68.82-1.84-.75.24-.87.2-4.21-2.21-4.21-2.21Z" style="fill:#ebebeb"></path><path d="M76.62,132.45a3.84,3.84,0,0,1,.73-1.51" style="fill:#dbdbdb"></path><path d="M67.73,132.92s2,4,2.1,4.14-.46.84-.34,1,2-.34,1.88-.72-.7-.36-.76-.47-1.41-4.54-1.41-4.54Z" style="fill:#ebebeb"></path><path d="M69.67,138.05a3.9,3.9,0,0,1,1.58-.56" style="fill:#dbdbdb"></path><path d="M63.05,132.09,61.6,136.5c0,.15-.92.27-1,.49s1.68,1.19,1.84.82-.24-.76-.2-.87,2.2-4.21,2.2-4.21Z" style="fill:#ebebeb"></path><path d="M60.79,137.09a3.92,3.92,0,0,1,1.51.72" style="fill:#dbdbdb"></path><path d="M60.32,128.2l-4.14,2.09c-.13.08-.84-.45-1-.34s.35,2,.73,1.89c.23-.09.36-.71.47-.76s4.54-1.42,4.54-1.42Z" style="fill:#ebebeb"></path><path d="M55.19,130.14a3.9,3.9,0,0,1,.56,1.58" style="fill:#dbdbdb"></path><path d="M61.15,123.52l-4.41-1.45c-.15,0-.27-.92-.49-1s-1.19,1.68-.82,1.85.76-.24.87-.2,4.21,2.2,4.21,2.2Z" style="fill:#ebebeb"></path><path d="M56.15,121.26a3.92,3.92,0,0,1-.72,1.51" style="fill:#dbdbdb"></path><path d="M59,128.56a7.59,7.59,0,0,0,9,5.91,7.83,7.83,0,1,0-3.57-15.24,7.16,7.16,0,0,0-2.65,1.19A7.92,7.92,0,0,0,59,128.56Z" style="fill:#ebebeb"></path><path d="M59,128.56a7.59,7.59,0,0,0,9,5.91,7.76,7.76,0,0,0,5.7-4.47c-1.82,1.44-5.58,3.75-9.35,2-5.22-2.47-4.86-8.44-2.57-11.54A7.92,7.92,0,0,0,59,128.56Z" style="fill:#dbdbdb"></path><path d="M65.81,121.21h1.78l0-.19c-.11-.72-.49-3.17-.51-3.31s.83-.71.78-.95-.49-.22-1-.26-1.29,0-1.29.26.6.66.61.8S65.81,121.21,65.81,121.21Z" style="fill:#ebebeb"></path><path d="M67.62,116.72a4.36,4.36,0,0,1-1.9-.06Z" style="fill:#dbdbdb"></path><path d="M67.56,121c-.11-.72-.49-3.17-.51-3.31s.83-.71.78-.95-.49-.22-1-.26a1.22,1.22,0,0,1,.47.21l0,.05c0,.07,0,.13,0,.2s-.56.41-.57.6S67.53,120.92,67.56,121Z" style="fill:#dbdbdb"></path><path d="M70.06,122.18l1.26,1.25.05-.06h0l2-2.78c.11-.14,1.09.08,1.23-.13s-.55-1-1.08-1.43c-.23-.19-.44-.29-.54-.18s-.06.89-.14,1S70.06,122.18,70.06,122.18Z" style="fill:#ebebeb"></path><path d="M74.52,120.28a4.51,4.51,0,0,1-1.3-1.38Z" style="fill:#dbdbdb"></path><path d="M71.38,123.36l2-2.78c.11-.14,1.09.08,1.23-.13s-.55-1-1.08-1.43a3,3,0,0,1,.48.76.49.49,0,0,1,0,.18c0,.08,0,.13,0,.15-.2.06-.64-.09-.84,0A35.56,35.56,0,0,0,71.38,123.36Z" style="fill:#dbdbdb"></path><path d="M72.39,125.87v1.77h0l3.5-.53c.17,0,.71.83.95.78a3.06,3.06,0,0,0,.09-2.25.11.11,0,0,0-.09,0c-.28,0-.67.59-.8.61S72.39,125.87,72.39,125.87Z" style="fill:#ebebeb"></path><path d="M76.88,127.68a4.53,4.53,0,0,1,.06-1.9Z" style="fill:#dbdbdb"></path><path d="M72.4,127.64l3.5-.53c.17,0,.71.83.95.78a3.06,3.06,0,0,0,.09-2.25,1.71,1.71,0,0,1,0,1.39.64.64,0,0,1-.08.14c0,.07-.1.11-.15.11s-.5-.46-.79-.44S72.59,127.6,72.4,127.64Z" style="fill:#dbdbdb"></path><path d="M73,133.48c.1.07,0,.61,0,1,0,.13,0,.23.09.26.21.14,1.95-1.29,1.62-1.62s-.9-.05-1-.13-1-1.17-1.64-2h0l-.69-.86-1.26,1.26Z" style="fill:#ebebeb"></path><path d="M73.32,134.58a4.35,4.35,0,0,1,1.39-1.3Z" style="fill:#dbdbdb"></path><path d="M73.06,134.44c0,.13,0,.23.09.26.21.14,1.95-1.29,1.62-1.62s-.9-.05-1-.13-1-1.17-1.64-2a16.76,16.76,0,0,0,1.43,2.22c.17.07.61.07.65.29a.23.23,0,0,1,0,.14,2.4,2.4,0,0,1-.32.45,3.22,3.22,0,0,1-.43.41l-.06,0c-.09.05-.15.07-.2.05A.27.27,0,0,1,73.06,134.44Z" style="fill:#dbdbdb"></path><path d="M65.72,136.91c0,.05.15.11.36.16.64.15,1.93.19,1.93-.16s-.6-.67-.61-.81.15-1.86.26-2.89h0c0-.45.08-.76.08-.76H66s.51,3.33.54,3.51S65.67,136.66,65.72,136.91Z" style="fill:#ebebeb"></path><path d="M65.93,136.94a4.32,4.32,0,0,1,1.89.06Z" style="fill:#dbdbdb"></path><path d="M66.08,137.07c.64.15,1.93.19,1.93-.16s-.6-.67-.61-.81.15-1.86.26-2.89c-.19,1-.56,2.82-.54,2.9s.48.59.36.75l0,0a1,1,0,0,1-.26.08A5.8,5.8,0,0,1,66.08,137.07Z" style="fill:#dbdbdb"></path><path d="M59.48,134.16c.4.45.87.84,1,.67s0-.9.14-1,2.09-1.75,2.67-2.22h0l.15-.12-1.25-1.26-2.1,2.86c-.11.14-1.09-.09-1.23.12S59.13,133.75,59.48,134.16Z" style="fill:#ebebeb"></path><path d="M59,133.38a4.51,4.51,0,0,1,1.3,1.38Z" style="fill:#dbdbdb"></path><path d="M59.48,134.16c.4.45.87.84,1,.67s0-.9.14-1,2.09-1.75,2.67-2.22h0s-3,1.89-3,2,0,.8-.16.82a.21.21,0,0,1-.13,0A3,3,0,0,1,59.48,134.16Z" style="fill:#dbdbdb"></path><path d="M56.7,128.06c.15,0,.33-.17.48-.32s.26-.28.32-.29c.23,0,3.66.35,3.66.35V126l-.72.11h0l-2.77.42c-.17,0-.71-.82-.95-.78S56.23,128.06,56.7,128.06Z" style="fill:#ebebeb"></path><path d="M56.66,126a4.46,4.46,0,0,1,0,1.9Z" style="fill:#dbdbdb"></path><path d="M56.7,128.06c.15,0,.33-.17.48-.32-.12,0-.29,0-.43,0s-.06,0-.09,0a.28.28,0,0,1,0-.11,2,2,0,0,1,0-.85.81.81,0,0,1,.09-.25h0c0-.06.06-.09.1-.09.23,0,.63.48,1,.44s1.78-.47,2.64-.71l-2.77.42c-.17,0-.71-.82-.95-.78S56.23,128.06,56.7,128.06Z" style="fill:#dbdbdb"></path><path d="M58.78,120.58c.19.2.89,0,1,.14s2.34,2.82,2.34,2.82l1.26-1.26-.28-.2h0l-2.58-1.9c-.14-.1.08-1.08-.12-1.22s-.62.27-1,.66h0C59,120,58.62,120.42,58.78,120.58Z" style="fill:#ebebeb"></path><path d="M60.22,119.08a4.27,4.27,0,0,1-1.38,1.3Z" style="fill:#dbdbdb"></path><path d="M59.35,119.62a2.06,2.06,0,0,1,.51-.2H60c.11,0,.18,0,.19.14.05.26-.12.73,0,.88S63,122,63.1,122.08l-2.58-1.9c-.14-.1.08-1.08-.12-1.22S59.78,119.23,59.35,119.62Z" style="fill:#dbdbdb"></path><path d="M68.92,131.59c.08.17.36.2.64.07s.44-.36.36-.53-.36-.19-.64-.07S68.85,131.43,68.92,131.59Z" style="fill:#dbdbdb"></path><path d="M69.11,132.18a1.82,1.82,0,0,0,1.09-.51.58.58,0,0,0,.17-.64c-.11-.3-.39-.29-.66-.31,0,0,0,0,0,0,.46-.05,1,.14.92.7s-.93,1-1.51.9C69.06,132.29,69,132.19,69.11,132.18Z" style="fill:#dbdbdb"></path><path d="M67.88,122.14c0,.18.28.37.69.42s.75,0,.77-.23-.28-.37-.69-.42S67.9,122,67.88,122.14Z" style="fill:#dbdbdb"></path><path d="M68.92,123a1.63,1.63,0,0,0,.61-.2.45.45,0,0,0,.12-.65,1.38,1.38,0,0,0-1-.54,0,0,0,1,1,0,0c.45,0,1.14.25,1.29.74s-.59.76-1,.75C68.88,123,68.88,123,68.92,123Z" style="fill:#dbdbdb"></path><path d="M62.21,124.43c0,.18.25.32.56.32s.54-.16.54-.35-.26-.32-.56-.31S62.2,124.25,62.21,124.43Z" style="fill:#dbdbdb"></path><path d="M62.81,125.16a2.34,2.34,0,0,0,.85-.42c.43-.46-.23-.75-.6-.85,0,0,0,0,0,0,.39,0,1,.27.91.77s-.75.69-1.16.63A.05.05,0,0,1,62.81,125.16Z" style="fill:#dbdbdb"></path><path d="M71,129.55c0,.14.2.25.44.24s.41-.14.41-.28-.21-.25-.44-.24S71,129.41,71,129.55Z" style="fill:#dbdbdb"></path><path d="M71.47,130.11a1.71,1.71,0,0,0,.65-.35c.33-.36-.2-.57-.48-.65,0,0,0,0,0,0,.31,0,.78.19.72.58s-.56.55-.88.51A0,0,0,0,1,71.47,130.11Z" style="fill:#dbdbdb"></path><path d="M60.81,129.73c0,.22.23.46.6.52s.7-.06.74-.28-.23-.46-.6-.53S60.84,129.51,60.81,129.73Z" style="fill:#dbdbdb"></path><path d="M62.14,129.36s0,0,0,0c.35.27.84.7.49,1.18a1.06,1.06,0,0,1-1.33.21,0,0,0,0,1,0-.08,1.76,1.76,0,0,0,1-.12C62.87,130.24,62.47,129.66,62.14,129.36Z" style="fill:#dbdbdb"></path><path d="M438,163.65l-2-2.73c-.09-.13.35-.89.21-1.06s-2,.58-1.77.94.74.28.8.37,1.36,3.21,1.36,3.21Z" style="fill:#ebebeb"></path><path d="M436,159.92a4,4,0,0,1-1.5.74" style="fill:#dbdbdb"></path><path d="M438,163.65l-2-2.73c-.09-.13.35-.89.21-1.06s-2,.58-1.77.94.74.28.8.37,1.36,3.21,1.36,3.21Z" style="fill:#dbdbdb"></path><path d="M442.59,163.75s.51-3.18.53-3.33.88-.38.9-.59-1.8-1-1.92-.59c-.08.23.33.71.3.83s-1.3,3.23-1.3,3.23Z" style="fill:#ebebeb"></path><path d="M443.85,159.74a3.91,3.91,0,0,1-1.58-.53" style="fill:#dbdbdb"></path><path d="M442.59,163.75s.51-3.18.53-3.33.88-.38.9-.59-1.8-1-1.92-.59c-.08.23.33.71.3.83s-1.3,3.23-1.3,3.23Z" style="fill:#dbdbdb"></path><path d="M445.78,167.1l2.73-2c.13-.09.89.35,1.06.21s-.58-2-.94-1.78-.28.74-.37.81-3.21,1.36-3.21,1.36Z" style="fill:#ebebeb"></path><path d="M449.51,165.15a3.87,3.87,0,0,1-.74-1.49" style="fill:#dbdbdb"></path><path d="M445.78,167.1l2.73-2c.13-.09.89.35,1.06.21s-.58-2-.94-1.78-.28.74-.37.81-3.21,1.36-3.21,1.36Z" style="fill:#dbdbdb"></path><path d="M445.68,171.72l3.33.53c.15,0,.38.88.59.9s1-1.8.59-1.92c-.23-.08-.71.32-.83.3s-3.23-1.3-3.23-1.3Z" style="fill:#ebebeb"></path><path d="M449.69,173a3.87,3.87,0,0,1,.53-1.58" style="fill:#dbdbdb"></path><path d="M445.68,171.72l3.33.53c.15,0,.38.88.59.9s1-1.8.59-1.92c-.23-.08-.71.32-.83.3s-3.23-1.3-3.23-1.3Z" style="fill:#dbdbdb"></path><path d="M442.33,174.91l2,2.73c.09.12-.35.89-.21,1.06s2-.58,1.78-.94-.74-.28-.81-.38-1.36-3.2-1.36-3.2Z" style="fill:#ebebeb"></path><path d="M444.28,178.64a3.87,3.87,0,0,1,1.49-.74" style="fill:#dbdbdb"></path><path d="M442.33,174.91l2,2.73c.09.12-.35.89-.21,1.06s2-.58,1.78-.94-.74-.28-.81-.38-1.36-3.2-1.36-3.2Z" style="fill:#dbdbdb"></path><path d="M437.71,174.8s-.51,3.19-.53,3.33-.88.39-.9.6,1.8,1,1.92.59c.08-.23-.32-.72-.3-.83s1.3-3.23,1.3-3.23Z" style="fill:#ebebeb"></path><path d="M436.45,178.81a3.94,3.94,0,0,1,1.58.54" style="fill:#dbdbdb"></path><path d="M437.71,174.8s-.51,3.19-.53,3.33-.88.39-.9.6,1.8,1,1.92.59c.08-.23-.32-.72-.3-.83s1.3-3.23,1.3-3.23Z" style="fill:#dbdbdb"></path><path d="M434.52,171.46l-2.73,2c-.12.09-.89-.35-1.06-.21s.58,2,.94,1.77.28-.74.38-.8,3.2-1.36,3.2-1.36Z" style="fill:#ebebeb"></path><path d="M430.79,173.4a4,4,0,0,1,.74,1.5" style="fill:#dbdbdb"></path><path d="M434.52,171.46l-2.73,2c-.12.09-.89-.35-1.06-.21s.58,2,.94,1.77.28-.74.38-.8,3.2-1.36,3.2-1.36Z" style="fill:#dbdbdb"></path><path d="M434.63,166.84l-3.33-.53c-.15,0-.38-.88-.6-.9s-1,1.8-.59,1.92c.23.08.72-.33.83-.3s3.23,1.3,3.23,1.3Z" style="fill:#ebebeb"></path><path d="M430.62,165.58a4,4,0,0,1-.54,1.58" style="fill:#dbdbdb"></path><path d="M434.63,166.84l-3.33-.53c-.15,0-.38-.88-.6-.9s-1,1.8-.59,1.92c.23.08.72-.33.83-.3s3.23,1.3,3.23,1.3Z" style="fill:#dbdbdb"></path><path d="M438.67,163.15s-2-4-2.1-4.14.46-.84.34-1-2,.35-1.88.73c.09.23.7.36.76.47s1.41,4.53,1.41,4.53Z" style="fill:#ebebeb"></path><path d="M436.73,158a3.9,3.9,0,0,1-1.58.56" style="fill:#dbdbdb"></path><path d="M443.35,164s1.4-4.26,1.45-4.4.92-.28,1-.49-1.68-1.19-1.84-.82.24.76.2.87-2.2,4.21-2.2,4.21Z" style="fill:#ebebeb"></path><path d="M445.61,159a3.84,3.84,0,0,1-1.51-.73" style="fill:#dbdbdb"></path><path d="M446.08,167.87l4.14-2.1c.13-.07.84.46,1,.34s-.35-2-.73-1.88c-.23.09-.36.7-.47.76s-4.54,1.41-4.54,1.41Z" style="fill:#ebebeb"></path><path d="M451.21,165.93a3.9,3.9,0,0,1-.56-1.58" style="fill:#dbdbdb"></path><path d="M445.25,172.55l4.41,1.45c.15,0,.27.92.49,1s1.19-1.68.82-1.84-.76.24-.87.2-4.21-2.2-4.21-2.2Z" style="fill:#ebebeb"></path><path d="M450.25,174.81a3.84,3.84,0,0,1,.73-1.51" style="fill:#dbdbdb"></path><path d="M441.36,175.28l2.09,4.14c.08.13-.45.84-.34,1s2-.35,1.89-.73c-.09-.23-.71-.36-.76-.47s-1.42-4.54-1.42-4.54Z" style="fill:#ebebeb"></path><path d="M443.3,180.41a3.9,3.9,0,0,1,1.58-.56" style="fill:#dbdbdb"></path><path d="M436.68,174.45s-1.41,4.26-1.45,4.41-.92.27-1,.49,1.68,1.19,1.85.82-.24-.76-.2-.87,2.2-4.21,2.2-4.21Z" style="fill:#ebebeb"></path><path d="M434.42,179.45a3.84,3.84,0,0,1,1.51.73" style="fill:#dbdbdb"></path><path d="M434,170.56l-4.14,2.09c-.13.08-.84-.45-1-.34s.35,2,.73,1.89.36-.71.47-.76,4.53-1.42,4.53-1.42Z" style="fill:#ebebeb"></path><path d="M428.82,172.5a3.9,3.9,0,0,1,.56,1.58" style="fill:#dbdbdb"></path><path d="M434.77,165.88l-4.4-1.45c-.15,0-.28-.92-.49-1s-1.19,1.68-.82,1.85.76-.24.87-.2,4.21,2.2,4.21,2.2Z" style="fill:#ebebeb"></path><path d="M429.78,163.62a3.84,3.84,0,0,1-.73,1.51" style="fill:#dbdbdb"></path><path d="M432.58,170.93a7.57,7.57,0,0,0,9,5.9,7.23,7.23,0,0,0,5.93-9.19,7.69,7.69,0,0,0-9.5-6,7.16,7.16,0,0,0-2.65,1.19A7.94,7.94,0,0,0,432.58,170.93Z" style="fill:#ebebeb"></path><path d="M432.58,170.93a7.57,7.57,0,0,0,9,5.9,7.77,7.77,0,0,0,5.7-4.47c-1.82,1.44-5.58,3.75-9.35,2-5.22-2.47-4.86-8.43-2.57-11.54A7.94,7.94,0,0,0,432.58,170.93Z" style="fill:#dbdbdb"></path><path d="M439.43,163.57h1.79s0-.07,0-.19c-.1-.72-.48-3.17-.5-3.31s.83-.71.78-.95-.5-.22-1-.26-1.29,0-1.29.26.6.67.61.8S439.43,163.57,439.43,163.57Z" style="fill:#ebebeb"></path><path d="M441.25,159.08a4.46,4.46,0,0,1-1.9-.05Z" style="fill:#dbdbdb"></path><path d="M441.18,163.38c-.1-.72-.48-3.17-.5-3.31s.83-.71.78-.95-.5-.22-1-.26a1.31,1.31,0,0,1,.47.21l0,.05c0,.07,0,.13-.05.2s-.55.41-.56.6S441.15,163.28,441.18,163.38Z" style="fill:#dbdbdb"></path><path d="M443.69,164.54,445,165.8a.21.21,0,0,1,.05-.07h0l2.05-2.78c.1-.14,1.08.08,1.22-.13s-.55-1-1.07-1.43c-.23-.19-.44-.29-.55-.18s0,.89-.14,1S443.69,164.54,443.69,164.54Z" style="fill:#ebebeb"></path><path d="M448.15,162.64a4.39,4.39,0,0,1-1.3-1.38Z" style="fill:#dbdbdb"></path><path d="M445,165.72l2.05-2.78c.1-.14,1.08.08,1.22-.13s-.55-1-1.07-1.43a3.27,3.27,0,0,1,.48.76.83.83,0,0,1,.05.18c0,.08,0,.13-.05.15s-.63-.09-.83,0A37,37,0,0,0,445,165.72Z" style="fill:#dbdbdb"></path><path d="M446,168.23V170h0l3.5-.53c.17,0,.7.83,1,.78a3.06,3.06,0,0,0,.09-2.25.12.12,0,0,0-.09,0c-.28,0-.67.6-.81.61S446,168.23,446,168.23Z" style="fill:#ebebeb"></path><path d="M450.51,170a4.36,4.36,0,0,1,.06-1.9Z" style="fill:#dbdbdb"></path><path d="M446,170l3.5-.53c.17,0,.7.83,1,.78a3.06,3.06,0,0,0,.09-2.25,1.71,1.71,0,0,1,0,1.39c0,.05,0,.1-.08.14s-.11.11-.15.11c-.2,0-.5-.46-.79-.44S446.22,170,446,170Z" style="fill:#dbdbdb"></path><path d="M446.66,175.84c.1.07,0,.62,0,1,0,.13,0,.23.09.27s2-1.3,1.62-1.62-.9-.06-1-.14-1-1.17-1.64-2h0l-.69-.86-1.26,1.26Z" style="fill:#ebebeb"></path><path d="M447,176.94a4.39,4.39,0,0,1,1.38-1.3Z" style="fill:#dbdbdb"></path><path d="M446.69,176.8c0,.13,0,.23.09.27s2-1.3,1.62-1.62-.9-.06-1-.14-1-1.17-1.64-2a16.76,16.76,0,0,0,1.43,2.22c.16.07.61.07.65.29a.23.23,0,0,1,0,.14,2.42,2.42,0,0,1-.32.46,3.85,3.85,0,0,1-.43.4l-.07,0c-.08.05-.15.07-.19.05A.27.27,0,0,1,446.69,176.8Z" style="fill:#dbdbdb"></path><path d="M439.34,179.27c0,.06.16.11.36.16.65.15,1.93.19,1.94-.16s-.6-.67-.61-.81.15-1.86.26-2.89h0c0-.44.08-.76.08-.76h-1.78s.51,3.34.53,3.51S439.29,179,439.34,179.27Z" style="fill:#ebebeb"></path><path d="M439.55,179.3a4.54,4.54,0,0,1,1.9.06Z" style="fill:#dbdbdb"></path><path d="M439.7,179.43c.65.15,1.93.19,1.94-.16s-.6-.67-.61-.81.15-1.86.26-2.89c-.19,1-.56,2.82-.54,2.9s.48.59.36.75l-.05,0a1,1,0,0,1-.26.08A5.84,5.84,0,0,1,439.7,179.43Z" style="fill:#dbdbdb"></path><path d="M433.11,176.52c.39.45.87.84,1,.67s.05-.9.14-1,2.09-1.75,2.67-2.22h0l.15-.12-1.26-1.26-2.1,2.86c-.1.14-1.08-.09-1.22.12S432.75,176.12,433.11,176.52Z" style="fill:#ebebeb"></path><path d="M432.65,175.74a4.39,4.39,0,0,1,1.3,1.38Z" style="fill:#dbdbdb"></path><path d="M433.11,176.52c.39.45.87.84,1,.67s.05-.9.14-1,2.09-1.75,2.67-2.22h0s-3,1.89-3,2.05,0,.8-.17.82a.19.19,0,0,1-.12,0A2.52,2.52,0,0,1,433.11,176.52Z" style="fill:#dbdbdb"></path><path d="M430.33,170.43c.14,0,.32-.17.48-.33s.26-.28.32-.28c.23,0,3.65.34,3.65.34v-1.78l-.72.11h0l-2.77.43c-.18,0-.71-.83-.95-.79S429.86,170.43,430.33,170.43Z" style="fill:#ebebeb"></path><path d="M430.29,168.35a4.32,4.32,0,0,1-.06,1.89Z" style="fill:#dbdbdb"></path><path d="M430.33,170.43c.14,0,.32-.17.48-.33a3.12,3.12,0,0,1-.44,0s-.05,0-.08-.05a.58.58,0,0,1-.05-.11,1.86,1.86,0,0,1,0-.84.92.92,0,0,1,.08-.25h0s.07-.09.11-.09c.22,0,.62.49,1,.44s1.78-.47,2.64-.71l-2.77.43c-.18,0-.71-.83-.95-.79S429.86,170.43,430.33,170.43Z" style="fill:#dbdbdb"></path><path d="M432.4,162.94c.2.2.9.05,1,.14s2.35,2.82,2.35,2.82l1.26-1.26-.28-.2h0l-2.59-1.9c-.13-.1.09-1.08-.12-1.22s-.61.27-1,.66h0C432.58,162.36,432.25,162.78,432.4,162.94Z" style="fill:#ebebeb"></path><path d="M433.85,161.45a4.51,4.51,0,0,1-1.38,1.3Z" style="fill:#dbdbdb"></path><path d="M433,162a2.06,2.06,0,0,1,.51-.2h.11a.17.17,0,0,1,.19.14c0,.26-.12.73,0,.89s2.83,1.58,2.94,1.64l-2.59-1.9c-.13-.1.09-1.08-.12-1.22S433.41,161.59,433,162Z" style="fill:#dbdbdb"></path><path d="M442.55,174c.08.17.36.2.64.07s.43-.36.36-.52-.36-.2-.64-.07S442.47,173.79,442.55,174Z" style="fill:#dbdbdb"></path><path d="M442.74,174.55a1.86,1.86,0,0,0,1.08-.52.59.59,0,0,0,.18-.64c-.12-.3-.39-.29-.66-.31,0,0,0,0,0,0,.47-.05,1,.14.93.7s-.94.95-1.51.9A.05.05,0,0,1,442.74,174.55Z" style="fill:#dbdbdb"></path><path d="M441.51,164.5c0,.18.28.37.68.43s.75-.05.78-.23-.29-.38-.69-.43S441.53,164.32,441.51,164.5Z" style="fill:#dbdbdb"></path><path d="M442.55,165.31a1.58,1.58,0,0,0,.6-.2.43.43,0,0,0,.12-.65,1.37,1.37,0,0,0-1-.54,0,0,0,1,1,0,0c.46,0,1.15.25,1.3.74.19.64-.59.76-1,.75C442.51,165.38,442.51,165.31,442.55,165.31Z" style="fill:#dbdbdb"></path><path d="M435.84,166.79c0,.18.25.33.55.32s.55-.16.54-.35-.25-.32-.55-.31S435.83,166.61,435.84,166.79Z" style="fill:#dbdbdb"></path><path d="M436.44,167.52a2.42,2.42,0,0,0,.85-.42c.43-.46-.23-.74-.6-.85,0,0,0,0,0,0,.39,0,1,.28.91.77s-.75.7-1.16.63A.05.05,0,0,1,436.44,167.52Z" style="fill:#dbdbdb"></path><path d="M444.61,171.91c0,.14.21.25.44.24s.42-.14.42-.28-.21-.25-.44-.23S444.61,171.77,444.61,171.91Z" style="fill:#dbdbdb"></path><path d="M445.1,172.47a1.87,1.87,0,0,0,.65-.35c.32-.36-.2-.57-.48-.65,0,0,0,0,0,0,.31,0,.78.2.72.58s-.56.56-.88.51A0,0,0,0,1,445.1,172.47Z" style="fill:#dbdbdb"></path><path d="M434.43,172.09c0,.23.23.46.61.52s.7-.06.74-.28-.23-.46-.6-.52S434.47,171.87,434.43,172.09Z" style="fill:#dbdbdb"></path><path d="M435.77,171.72s0,0,0,0c.35.27.84.7.49,1.18a1.07,1.07,0,0,1-1.33.21s0-.08,0-.07a1.76,1.76,0,0,0,1-.13C436.5,172.6,436.1,172,435.77,171.72Z" style="fill:#dbdbdb"></path><path d="M202.51,212.43l-2-2.73c-.09-.12.35-.89.22-1s-2,.58-1.78.94.74.27.8.37,1.37,3.2,1.37,3.2Z" style="fill:#ebebeb"></path><path d="M200.57,208.71a4,4,0,0,1-1.5.73" style="fill:#dbdbdb"></path><path d="M202.51,212.43l-2-2.73c-.09-.12.35-.89.22-1s-2,.58-1.78.94.74.27.8.37,1.37,3.2,1.37,3.2Z" style="fill:#dbdbdb"></path><path d="M207.14,212.54s.5-3.18.52-3.33.88-.38.9-.6-1.8-1-1.92-.59c-.07.24.33.72.31.84s-1.31,3.22-1.31,3.22Z" style="fill:#ebebeb"></path><path d="M208.4,208.53a3.78,3.78,0,0,1-1.58-.54" style="fill:#dbdbdb"></path><path d="M207.14,212.54s.5-3.18.52-3.33.88-.38.9-.6-1.8-1-1.92-.59c-.07.24.33.72.31.84s-1.31,3.22-1.31,3.22Z" style="fill:#dbdbdb"></path><path d="M210.33,215.89l2.73-2c.12-.09.89.36,1.05.22s-.58-2-.94-1.78-.27.74-.37.8-3.2,1.37-3.2,1.37Z" style="fill:#ebebeb"></path><path d="M214.05,213.94a3.91,3.91,0,0,1-.73-1.49" style="fill:#dbdbdb"></path><path d="M210.33,215.89l2.73-2c.12-.09.89.36,1.05.22s-.58-2-.94-1.78-.27.74-.37.8-3.2,1.37-3.2,1.37Z" style="fill:#dbdbdb"></path><path d="M210.22,220.51l3.33.53c.15,0,.38.87.6.89s1-1.8.59-1.92-.72.33-.84.31-3.22-1.31-3.22-1.31Z" style="fill:#ebebeb"></path><path d="M214.23,221.77a3.78,3.78,0,0,1,.54-1.58" style="fill:#dbdbdb"></path><path d="M210.22,220.51l3.33.53c.15,0,.38.87.6.89s1-1.8.59-1.92-.72.33-.84.31-3.22-1.31-3.22-1.31Z" style="fill:#dbdbdb"></path><path d="M206.87,223.7l2,2.73c.09.12-.36.89-.22,1.06s2-.59,1.78-1-.74-.27-.81-.37-1.36-3.2-1.36-3.2Z" style="fill:#ebebeb"></path><path d="M208.82,227.42a3.91,3.91,0,0,1,1.49-.73" style="fill:#dbdbdb"></path><path d="M206.87,223.7l2,2.73c.09.12-.36.89-.22,1.06s2-.59,1.78-1-.74-.27-.81-.37-1.36-3.2-1.36-3.2Z" style="fill:#dbdbdb"></path><path d="M202.25,223.59s-.5,3.18-.53,3.33-.87.38-.89.6,1.8,1,1.92.59-.33-.72-.31-.83,1.3-3.23,1.3-3.23Z" style="fill:#ebebeb"></path><path d="M201,227.6a3.94,3.94,0,0,1,1.58.54" style="fill:#dbdbdb"></path><path d="M202.25,223.59s-.5,3.18-.53,3.33-.87.38-.89.6,1.8,1,1.92.59-.33-.72-.31-.83,1.3-3.23,1.3-3.23Z" style="fill:#dbdbdb"></path><path d="M199.06,220.24l-2.73,2c-.12.09-.89-.35-1.06-.22s.59,2,.95,1.78.27-.74.37-.8,3.2-1.37,3.2-1.37Z" style="fill:#ebebeb"></path><path d="M195.33,222.19a4,4,0,0,1,.74,1.5" style="fill:#dbdbdb"></path><path d="M199.06,220.24l-2.73,2c-.12.09-.89-.35-1.06-.22s.59,2,.95,1.78.27-.74.37-.8,3.2-1.37,3.2-1.37Z" style="fill:#dbdbdb"></path><path d="M199.17,215.62l-3.33-.52c-.15,0-.38-.88-.6-.9s-1,1.8-.59,1.92c.24.07.72-.33.83-.31s3.23,1.31,3.23,1.31Z" style="fill:#ebebeb"></path><path d="M195.16,214.36a3.94,3.94,0,0,1-.54,1.58" style="fill:#dbdbdb"></path><path d="M199.17,215.62l-3.33-.52c-.15,0-.38-.88-.6-.9s-1,1.8-.59,1.92c.24.07.72-.33.83-.31s3.23,1.31,3.23,1.31Z" style="fill:#dbdbdb"></path><path d="M203.21,211.94l-2.09-4.14c-.08-.13.45-.85.34-1s-2,.34-1.89.73c.09.23.71.36.76.46s1.42,4.54,1.42,4.54Z" style="fill:#ebebeb"></path><path d="M201.27,206.81a3.94,3.94,0,0,1-1.58.55" style="fill:#dbdbdb"></path><path d="M207.89,212.76s1.41-4.26,1.45-4.41.92-.27,1-.48-1.68-1.2-1.85-.82c-.1.22.24.75.2.86s-2.2,4.21-2.2,4.21Z" style="fill:#ebebeb"></path><path d="M210.15,207.76a3.92,3.92,0,0,1-1.51-.72" style="fill:#dbdbdb"></path><path d="M210.62,216.65s4-2,4.14-2.09.84.46,1,.34-.34-2-.73-1.88c-.23.08-.36.7-.47.75s-4.53,1.42-4.53,1.42Z" style="fill:#ebebeb"></path><path d="M215.75,214.72a3.9,3.9,0,0,1-.56-1.58" style="fill:#dbdbdb"></path><path d="M209.8,221.34l4.4,1.44c.15,0,.28.92.49,1s1.19-1.68.82-1.85-.75.25-.87.21-4.21-2.21-4.21-2.21Z" style="fill:#ebebeb"></path><path d="M214.79,223.59a3.9,3.9,0,0,1,.73-1.51" style="fill:#dbdbdb"></path><path d="M205.9,224.07s2,4,2.1,4.13-.46.85-.34,1,2-.34,1.88-.72-.7-.37-.75-.47-1.42-4.54-1.42-4.54Z" style="fill:#ebebeb"></path><path d="M207.84,229.19a3.94,3.94,0,0,1,1.58-.55" style="fill:#dbdbdb"></path><path d="M201.22,223.24s-1.4,4.26-1.44,4.41-.93.27-1,.49,1.68,1.19,1.84.81c.1-.22-.24-.75-.2-.86s2.2-4.21,2.2-4.21Z" style="fill:#ebebeb"></path><path d="M199,228.24a3.92,3.92,0,0,1,1.51.72" style="fill:#dbdbdb"></path><path d="M198.49,219.35l-4.14,2.09c-.13.07-.84-.46-1-.34s.35,2,.73,1.89c.23-.09.36-.71.47-.76s4.54-1.42,4.54-1.42Z" style="fill:#ebebeb"></path><path d="M193.36,221.28a4,4,0,0,1,.56,1.58" style="fill:#dbdbdb"></path><path d="M199.32,214.66l-4.41-1.44c-.15,0-.27-.92-.49-1s-1.19,1.68-.82,1.85.76-.24.87-.21,4.21,2.21,4.21,2.21Z" style="fill:#ebebeb"></path><path d="M194.32,212.41a3.92,3.92,0,0,1-.72,1.51" style="fill:#dbdbdb"></path><path d="M197.12,219.71a7.59,7.59,0,0,0,9,5.91,7.23,7.23,0,0,0,5.93-9.19,7.68,7.68,0,0,0-9.5-6.05,7.23,7.23,0,0,0-2.65,1.19A7.92,7.92,0,0,0,197.12,219.71Z" style="fill:#ebebeb"></path><path d="M197.12,219.71a7.59,7.59,0,0,0,9,5.91,7.78,7.78,0,0,0,5.7-4.47c-1.82,1.44-5.58,3.75-9.35,2-5.22-2.47-4.86-8.44-2.57-11.54A7.92,7.92,0,0,0,197.12,219.71Z" style="fill:#dbdbdb"></path><path d="M204,212.36h1.78l0-.2c-.11-.72-.49-3.16-.51-3.31s.83-.7.78-.95-.49-.21-1-.25-1.29,0-1.29.25.6.67.61.81S204,212.36,204,212.36Z" style="fill:#ebebeb"></path><path d="M205.79,207.87a4.36,4.36,0,0,1-1.9-.06Z" style="fill:#dbdbdb"></path><path d="M205.73,212.16c-.11-.72-.49-3.16-.51-3.31s.83-.7.78-.95-.49-.21-1-.25a1.22,1.22,0,0,1,.47.21l0,0c0,.06,0,.13,0,.2s-.55.41-.57.6S205.7,212.06,205.73,212.16Z" style="fill:#dbdbdb"></path><path d="M208.23,213.32l1.26,1.26,0-.06v0l2-2.78c.11-.13,1.09.09,1.23-.12s-.55-1-1.07-1.43c-.24-.19-.45-.29-.55-.19s-.06.9-.14,1S208.23,213.32,208.23,213.32Z" style="fill:#ebebeb"></path><path d="M212.69,211.43a4.51,4.51,0,0,1-1.3-1.38Z" style="fill:#dbdbdb"></path><path d="M209.55,214.5l2-2.78c.11-.13,1.09.09,1.23-.12s-.55-1-1.07-1.43a3,3,0,0,1,.47.76.45.45,0,0,1,.05.17c0,.08,0,.14,0,.15-.2.07-.64-.08-.84,0S209.66,214.29,209.55,214.5Z" style="fill:#dbdbdb"></path><path d="M210.56,217v1.78h0l3.5-.53c.17,0,.71.82,1,.77a3,3,0,0,0,.09-2.24.1.1,0,0,0-.09,0c-.28,0-.67.59-.8.61S210.56,217,210.56,217Z" style="fill:#ebebeb"></path><path d="M215.05,218.83a4.53,4.53,0,0,1,.06-1.9Z" style="fill:#dbdbdb"></path><path d="M210.57,218.79l3.5-.53c.17,0,.71.82,1,.77a3,3,0,0,0,.09-2.24,1.69,1.69,0,0,1,0,1.38.53.53,0,0,1-.08.15c-.05.07-.1.11-.15.1s-.5-.46-.79-.44S210.76,218.74,210.57,218.79Z" style="fill:#dbdbdb"></path><path d="M211.2,224.63c.1.07,0,.61,0,1a.4.4,0,0,0,.09.26c.21.14,2-1.29,1.62-1.62s-.9,0-1-.14-1-1.16-1.64-2h0c-.4-.47-.7-.85-.7-.85l-1.26,1.26Z" style="fill:#ebebeb"></path><path d="M211.49,225.73a4.35,4.35,0,0,1,1.39-1.3Z" style="fill:#dbdbdb"></path><path d="M211.23,225.59a.4.4,0,0,0,.09.26c.21.14,2-1.29,1.62-1.62s-.9,0-1-.14-1-1.16-1.64-2a16.44,16.44,0,0,0,1.43,2.21c.17.08.61.08.65.3a.18.18,0,0,1,0,.14,2.4,2.4,0,0,1-.32.45,2.58,2.58,0,0,1-.43.4l-.06.05c-.09,0-.15.07-.2,0A.39.39,0,0,1,211.23,225.59Z" style="fill:#dbdbdb"></path><path d="M203.89,228.06c0,.05.15.11.36.16.64.14,1.93.19,1.93-.16s-.6-.68-.61-.81.16-1.87.26-2.89h0c0-.45.08-.76.08-.76h-1.78s.51,3.33.54,3.5S203.84,227.81,203.89,228.06Z" style="fill:#ebebeb"></path><path d="M204.1,228.09a4.32,4.32,0,0,1,1.89.06Z" style="fill:#dbdbdb"></path><path d="M204.25,228.22c.64.14,1.93.19,1.93-.16s-.6-.68-.61-.81.16-1.87.26-2.89c-.19,1-.56,2.82-.54,2.9s.48.58.36.75l-.05,0a1,1,0,0,1-.26.09A6.79,6.79,0,0,1,204.25,228.22Z" style="fill:#dbdbdb"></path><path d="M197.65,225.31c.4.44.87.84,1,.66s.05-.89.14-1,2.09-1.76,2.67-2.22h0l.15-.13-1.25-1.25-2.1,2.86c-.11.13-1.09-.09-1.23.11S197.3,224.9,197.65,225.31Z" style="fill:#ebebeb"></path><path d="M197.2,224.53a4.51,4.51,0,0,1,1.3,1.38Z" style="fill:#dbdbdb"></path><path d="M197.65,225.31c.4.44.87.84,1,.66s.05-.89.14-1,2.09-1.76,2.67-2.22h0s-3,1.89-3,2.05,0,.79-.16.82a.32.32,0,0,1-.13,0A3.76,3.76,0,0,1,197.65,225.31Z" style="fill:#dbdbdb"></path><path d="M194.87,219.21c.15,0,.33-.17.48-.33s.26-.27.32-.28c.23,0,3.66.34,3.66.34v-1.77l-.72.1h0l-2.78.42c-.17,0-.71-.83-.95-.78S194.4,219.21,194.87,219.21Z" style="fill:#ebebeb"></path><path d="M194.84,217.13a4.53,4.53,0,0,1-.06,1.9Z" style="fill:#dbdbdb"></path><path d="M194.87,219.21c.15,0,.33-.17.48-.33a3,3,0,0,1-.43,0,.09.09,0,0,1-.08-.05.19.19,0,0,1-.05-.11,2,2,0,0,1,0-.85,1,1,0,0,1,.09-.25h0c0-.06.06-.09.1-.09.23,0,.63.48.95.43s1.78-.46,2.65-.7l-2.78.42c-.17,0-.71-.83-.95-.78S194.4,219.21,194.87,219.21Z" style="fill:#dbdbdb"></path><path d="M197,211.73c.2.2.89.05,1,.13s2.34,2.83,2.34,2.83l1.26-1.26-.28-.2h0l-2.58-1.9c-.14-.1.09-1.09-.12-1.22s-.62.27-1,.66h0C197.12,211.15,196.79,211.57,197,211.73Z" style="fill:#ebebeb"></path><path d="M198.39,210.23a4.27,4.27,0,0,1-1.38,1.3Z" style="fill:#dbdbdb"></path><path d="M197.53,210.77a1.8,1.8,0,0,1,.51-.2.17.17,0,0,1,.1,0c.11,0,.18,0,.19.13,0,.26-.11.74,0,.89s2.83,1.59,2.94,1.65l-2.58-1.9c-.14-.1.09-1.09-.12-1.22S198,210.38,197.53,210.77Z" style="fill:#dbdbdb"></path><path d="M207.09,222.74c.08.17.37.2.64.07s.44-.36.36-.53-.36-.2-.64-.07S207,222.58,207.09,222.74Z" style="fill:#dbdbdb"></path><path d="M207.28,223.33a1.83,1.83,0,0,0,1.09-.52.57.57,0,0,0,.17-.63c-.11-.3-.39-.29-.66-.31,0,0,0,0,0,0,.46-.05,1,.14.92.7s-.93.94-1.51.9C207.23,223.44,207.21,223.34,207.28,223.33Z" style="fill:#dbdbdb"></path><path d="M206.05,213.29c0,.18.28.37.69.42s.75-.05.77-.23-.28-.37-.69-.42S206.07,213.11,206.05,213.29Z" style="fill:#dbdbdb"></path><path d="M207.09,214.09a1.45,1.45,0,0,0,.61-.19.45.45,0,0,0,.12-.65,1.38,1.38,0,0,0-1-.54s0,0,0,0c.45,0,1.14.25,1.29.75s-.59.75-1,.75C207.05,214.17,207.05,214.1,207.09,214.09Z" style="fill:#dbdbdb"></path><path d="M200.38,215.58c0,.18.25.32.56.32s.54-.17.54-.35-.26-.32-.56-.32S200.37,215.4,200.38,215.58Z" style="fill:#dbdbdb"></path><path d="M201,216.31a2.34,2.34,0,0,0,.85-.42c.44-.46-.23-.75-.6-.86,0,0,0,0,0,0,.39,0,1,.28.91.78s-.75.69-1.16.62C200.94,216.4,200.94,216.33,201,216.31Z" style="fill:#dbdbdb"></path><path d="M209.16,220.7c0,.14.2.25.44.23s.42-.13.41-.27-.21-.25-.44-.24S209.15,220.56,209.16,220.7Z" style="fill:#dbdbdb"></path><path d="M209.64,221.25a1.56,1.56,0,0,0,.65-.34c.33-.37-.2-.57-.48-.65,0,0,0,0,0,0,.31,0,.78.19.73.58s-.57.55-.89.51A0,0,0,0,1,209.64,221.25Z" style="fill:#dbdbdb"></path><path d="M199,220.88c0,.22.23.46.6.52s.7-.06.74-.29-.23-.45-.6-.52S199,220.66,199,220.88Z" style="fill:#dbdbdb"></path><path d="M200.31,220.51s0,0,0,0c.35.27.84.7.49,1.17a1.05,1.05,0,0,1-1.33.21s0-.07,0-.07a1.76,1.76,0,0,0,1-.12C201,221.39,200.64,220.8,200.31,220.51Z" style="fill:#dbdbdb"></path><path d="M369.09,92.93l-5.75,4.17c-.25.19-1.87-.74-2.22-.45s1.22,4.14,2,3.74c.46-.24.58-1.56.79-1.69s6.74-2.87,6.74-2.87Z" style="fill:#ebebeb"></path><path d="M361.25,97a8.3,8.3,0,0,1,1.55,3.15" style="fill:#dbdbdb"></path><path d="M369.09,92.93l-5.75,4.17c-.25.19-1.87-.74-2.22-.45s1.22,4.14,2,3.74c.46-.24.58-1.56.79-1.69s6.74-2.87,6.74-2.87Z" style="fill:#dbdbdb"></path><path d="M369.32,83.2l-7-1.11c-.32,0-.8-1.85-1.26-1.89s-2.06,3.79-1.24,4c.49.16,1.51-.69,1.75-.64.42.09,6.79,2.74,6.79,2.74Z" style="fill:#ebebeb"></path><path d="M360.88,80.55a8.31,8.31,0,0,1-1.13,3.32" style="fill:#dbdbdb"></path><path d="M369.32,83.2l-7-1.11c-.32,0-.8-1.85-1.26-1.89s-2.06,3.79-1.24,4c.49.16,1.51-.69,1.75-.64.42.09,6.79,2.74,6.79,2.74Z" style="fill:#dbdbdb"></path><path d="M376.36,76.48l-4.18-5.74c-.18-.26.74-1.87.45-2.22s-4.14,1.22-3.73,2c.24.46,1.55.58,1.69.78.23.36,2.86,6.75,2.86,6.75Z" style="fill:#ebebeb"></path><path d="M372.26,68.64a8.07,8.07,0,0,1-3.15,1.55" style="fill:#dbdbdb"></path><path d="M376.36,76.48l-4.18-5.74c-.18-.26.74-1.87.45-2.22s-4.14,1.22-3.73,2c.24.46,1.55.58,1.69.78.23.36,2.86,6.75,2.86,6.75Z" style="fill:#dbdbdb"></path><path d="M386.08,76.71l1.11-7c.05-.31,1.85-.8,1.9-1.25s-3.8-2.06-4-1.24c-.15.49.69,1.5.64,1.75-.09.41-2.74,6.79-2.74,6.79Z" style="fill:#ebebeb"></path><path d="M388.73,68.27a8.14,8.14,0,0,1-3.32-1.13" style="fill:#dbdbdb"></path><path d="M386.08,76.71l1.11-7c.05-.31,1.85-.8,1.9-1.25s-3.8-2.06-4-1.24c-.15.49.69,1.5.64,1.75-.09.41-2.74,6.79-2.74,6.79Z" style="fill:#dbdbdb"></path><path d="M392.8,83.75l5.74-4.17c.26-.19,1.87.74,2.23.45s-1.23-4.14-2-3.74c-.45.24-.57,1.56-.78,1.69-.36.24-6.74,2.87-6.74,2.87Z" style="fill:#ebebeb"></path><path d="M400.64,79.66a8.3,8.3,0,0,1-1.55-3.15" style="fill:#dbdbdb"></path><path d="M392.8,83.75l5.74-4.17c.26-.19,1.87.74,2.23.45s-1.23-4.14-2-3.74c-.45.24-.57,1.56-.78,1.69-.36.24-6.74,2.87-6.74,2.87Z" style="fill:#dbdbdb"></path><path d="M392.57,93.48l7,1.11c.32,0,.8,1.85,1.26,1.89s2.06-3.79,1.24-4c-.5-.16-1.51.69-1.75.64-.42-.09-6.8-2.74-6.8-2.74Z" style="fill:#ebebeb"></path><path d="M401,96.13a8.14,8.14,0,0,1,1.13-3.32" style="fill:#dbdbdb"></path><path d="M392.57,93.48l7,1.11c.32,0,.8,1.85,1.26,1.89s2.06-3.79,1.24-4c-.5-.16-1.51.69-1.75.64-.42-.09-6.8-2.74-6.8-2.74Z" style="fill:#dbdbdb"></path><path d="M385.53,100.2l4.17,5.74c.19.26-.74,1.87-.45,2.23s4.14-1.23,3.74-2c-.24-.46-1.55-.58-1.69-.78-.23-.36-2.87-6.75-2.87-6.75Z" style="fill:#ebebeb"></path><path d="M389.63,108a8.08,8.08,0,0,1,3.14-1.55" style="fill:#dbdbdb"></path><path d="M385.53,100.2l4.17,5.74c.19.26-.74,1.87-.45,2.23s4.14-1.23,3.74-2c-.24-.46-1.55-.58-1.69-.78-.23-.36-2.87-6.75-2.87-6.75Z" style="fill:#dbdbdb"></path><path d="M375.8,100l-1.11,7c-.05.31-1.84.8-1.89,1.25s3.79,2.07,4.05,1.24c.15-.49-.7-1.5-.64-1.75.08-.41,2.74-6.79,2.74-6.79Z" style="fill:#ebebeb"></path><path d="M373.15,108.41a8.14,8.14,0,0,1,3.32,1.13" style="fill:#dbdbdb"></path><path d="M375.8,100l-1.11,7c-.05.31-1.84.8-1.89,1.25s3.79,2.07,4.05,1.24c.15-.49-.7-1.5-.64-1.75.08-.41,2.74-6.79,2.74-6.79Z" style="fill:#dbdbdb"></path><path d="M368,91.46s-8.43,4.25-8.71,4.41-1.77-1-2.16-.72.72,4.28,1.53,4c.48-.19.76-1.48,1-1.59.39-.19,9.55-3,9.55-3Z" style="fill:#ebebeb"></path><path d="M357.25,95.54a8.28,8.28,0,0,1,1.17,3.32" style="fill:#dbdbdb"></path><path d="M369.78,81.61s-9-3-9.28-3-.57-1.93-1-2-2.51,3.53-1.72,3.88c.47.22,1.58-.5,1.82-.42.4.13,8.86,4.64,8.86,4.64Z" style="fill:#ebebeb"></path><path d="M359.26,76.86A8.35,8.35,0,0,1,357.74,80" style="fill:#dbdbdb"></path><path d="M378,75.86s-4.25-8.42-4.4-8.7,1-1.78.71-2.17-4.27.72-4,1.53c.18.49,1.48.76,1.59,1s3,9.54,3,9.54Z" style="fill:#ebebeb"></path><path d="M373.9,65.07a8.28,8.28,0,0,1-3.33,1.17" style="fill:#dbdbdb"></path><path d="M387.83,77.6s2.95-9,3-9.27,1.94-.58,2-1-3.54-2.51-3.89-1.72c-.21.47.51,1.58.43,1.82-.14.41-4.64,8.86-4.64,8.86Z" style="fill:#ebebeb"></path><path d="M392.58,67.09a8.2,8.2,0,0,1-3.18-1.53" style="fill:#dbdbdb"></path><path d="M393.57,85.8s8.43-4.25,8.71-4.41,1.78,1,2.17.71-.73-4.27-1.54-4c-.48.18-.76,1.48-1,1.59-.39.19-9.55,3-9.55,3Z" style="fill:#ebebeb"></path><path d="M404.36,81.72a8.28,8.28,0,0,1-1.17-3.33" style="fill:#dbdbdb"></path><path d="M391.84,95.65s9,3,9.27,3,.58,1.94,1,2,2.51-3.53,1.72-3.89c-.48-.21-1.59.51-1.83.43-.4-.13-8.86-4.64-8.86-4.64Z" style="fill:#ebebeb"></path><path d="M402.35,100.4a8.35,8.35,0,0,1,1.52-3.18" style="fill:#dbdbdb"></path><path d="M383.64,101.39s4.25,8.43,4.41,8.71-1,1.78-.72,2.17,4.28-.73,4-1.53c-.19-.49-1.48-.76-1.6-1s-3-9.55-3-9.55Z" style="fill:#ebebeb"></path><path d="M387.72,112.19A8.21,8.21,0,0,1,391,111" style="fill:#dbdbdb"></path><path d="M373.78,99.66s-2.95,9-3,9.27-1.94.58-2,1,3.54,2.51,3.89,1.72c.21-.48-.51-1.59-.43-1.82.14-.41,4.64-8.86,4.64-8.86Z" style="fill:#ebebeb"></path><path d="M369,110.17a8.18,8.18,0,0,1,3.17,1.53" style="fill:#dbdbdb"></path><path d="M364.76,92.82c2.34,10,12.23,13.2,19.65,11.46a17.13,17.13,0,0,0,8.13-4.46,15.26,15.26,0,0,0,4.3-14.53c-2-8.76-9-14.91-19.35-12.48a18.07,18.07,0,0,0-7.91,4A16.18,16.18,0,0,0,364.76,92.82Z" style="fill:#ebebeb"></path><path d="M364.76,92.82c2.34,10,12.23,13.2,19.65,11.46a17.13,17.13,0,0,0,8.13-4.46c-4.35,2.06-9.84,3.25-15.34.64-10.54-5-11.18-16.19-7.62-23.69A16.18,16.18,0,0,0,364.76,92.82Z" style="fill:#dbdbdb"></path><path d="M368.94,89.85V86.1l-.42.07-7,1.06c-.36,0-1.49-1.74-2-1.64-.23,0-.45,1-.54,2.11-.11,1.29,0,2.71.54,2.71s1.4-1.26,1.69-1.28C361.73,89.09,368.94,89.85,368.94,89.85Z" style="fill:#ebebeb"></path><path d="M359.49,86a9.36,9.36,0,0,1-.13,4Z" style="fill:#dbdbdb"></path><path d="M368.52,86.17l-7,1.06c-.36,0-1.49-1.74-2-1.64-.23,0-.45,1-.54,2.11a2.72,2.72,0,0,1,.44-1,.38.38,0,0,1,.11-.08c.13-.08.26,0,.41.09.39.35.86,1.17,1.26,1.19S368.31,86.23,368.52,86.17Z" style="fill:#dbdbdb"></path><path d="M371,80.89l2.64-2.64-.13-.11h0l-5.86-4.31c-.29-.22.19-2.28-.25-2.57s-2.13,1.15-3,2.25c-.41.5-.62.94-.4,1.16.41.41,1.89.11,2.1.29C366.41,75.25,371,80.89,371,80.89Z" style="fill:#ebebeb"></path><path d="M367,71.51a9.4,9.4,0,0,1-2.91,2.74Z" style="fill:#dbdbdb"></path><path d="M373.45,78.13l-5.86-4.31c-.29-.22.19-2.28-.25-2.57s-2.13,1.15-3,2.25a6.59,6.59,0,0,1,1.59-1,1.46,1.46,0,0,1,.37-.11c.17,0,.29,0,.32.1.14.42-.19,1.33.06,1.76S373,77.88,373.45,78.13Z" style="fill:#dbdbdb"></path><path d="M378.73,76h3.74v0c-.06-.41-1.08-7-1.13-7.36s1.75-1.49,1.64-2-4.11-.91-4.73-.2a.27.27,0,0,0-.08.2c0,.59,1.25,1.41,1.28,1.69C379.49,68.79,378.73,76,378.73,76Z" style="fill:#ebebeb"></path><path d="M382.54,66.54a9.42,9.42,0,0,1-4-.12Z" style="fill:#dbdbdb"></path><path d="M382.47,76c-.06-.41-1.08-7-1.13-7.36s1.75-1.49,1.64-2-4.11-.91-4.73-.2a3.59,3.59,0,0,1,2.92.09,1.8,1.8,0,0,1,.31.17c.15.11.23.22.22.31-.1.42-1,1.06-.93,1.67S382.37,75.58,382.47,76Z" style="fill:#dbdbdb"></path><path d="M394.75,74.65c.16-.22,1.3,0,2-.08.27,0,.48-.06.56-.18.29-.43-2.72-4.1-3.41-3.41-.42.42-.11,1.89-.29,2.11s-2.45,2.09-4.13,3.45h0L387.69,78l2.64,2.64Z" style="fill:#ebebeb"></path><path d="M397.07,74a9.28,9.28,0,0,1-2.74-2.91Z" style="fill:#dbdbdb"></path><path d="M396.77,74.57c.27,0,.48-.06.56-.18.29-.43-2.72-4.1-3.41-3.41-.42.42-.11,1.89-.29,2.11s-2.45,2.09-4.13,3.45a36.11,36.11,0,0,0,4.66-3c.16-.35.16-1.28.61-1.37a.5.5,0,0,1,.3.08,4.65,4.65,0,0,1,1,.69,5.69,5.69,0,0,1,.84.89A.8.8,0,0,1,397,74c.11.18.16.32.11.41A.58.58,0,0,1,396.77,74.57Z" style="fill:#dbdbdb"></path><path d="M402,90c.12,0,.24-.32.34-.76.31-1.36.4-4.06-.34-4.06s-1.42,1.26-1.7,1.28-3.93-.33-6.08-.55h0l-1.6-.17v3.74L400,88.4C400.32,88.35,401.45,90.14,402,90Z" style="fill:#ebebeb"></path><path d="M402,89.6a9.3,9.3,0,0,1,.12-4Z" style="fill:#dbdbdb"></path><path d="M402.31,89.28c.31-1.36.4-4.06-.34-4.06s-1.42,1.26-1.7,1.28-3.93-.33-6.08-.55c2,.4,5.92,1.18,6.09,1.13s1.24-1,1.59-.75a.2.2,0,0,1,.07.1,1.55,1.55,0,0,1,.17.55A12.16,12.16,0,0,1,402.31,89.28Z" style="fill:#dbdbdb"></path><path d="M396.19,103.16c.93-.83,1.76-1.83,1.4-2.19s-1.89-.11-2.1-.29-3.69-4.4-4.66-5.61h0l-.26-.33-2.65,2.64,6,4.43c.29.22-.18,2.28.25,2.57C394.39,104.52,395.33,103.91,396.19,103.16Z" style="fill:#ebebeb"></path><path d="M394.54,104.12a9.28,9.28,0,0,1,2.91-2.74Z" style="fill:#dbdbdb"></path><path d="M396.19,103.16c.93-.83,1.76-1.83,1.4-2.19s-1.89-.11-2.1-.29-3.69-4.4-4.66-5.61h0s4,6.26,4.31,6.31,1.68-.08,1.73.34a.73.73,0,0,1,0,.27A6.6,6.6,0,0,1,396.19,103.16Z" style="fill:#dbdbdb"></path><path d="M383.36,109c0-.31-.36-.69-.69-1s-.59-.54-.6-.68c0-.48.72-7.68.72-7.68h-3.74s.1.63.23,1.51v0c.33,2.08.86,5.59.9,5.84s-1.75,1.49-1.65,2S383.36,110,383.36,109Z" style="fill:#ebebeb"></path><path d="M379,109.09a9.25,9.25,0,0,1,4,.12Z" style="fill:#dbdbdb"></path><path d="M383.36,109c0-.31-.36-.69-.69-1a8.93,8.93,0,0,1,0,.92.27.27,0,0,1-.11.17.61.61,0,0,1-.23.1,4,4,0,0,1-1.78,0,2.17,2.17,0,0,1-.53-.18h0c-.12-.07-.2-.14-.2-.22,0-.47,1-1.32.92-2-.08-.49-1-3.75-1.49-5.56.33,2.08.86,5.59.9,5.84s-1.75,1.49-1.65,2S383.36,110,383.36,109Z" style="fill:#dbdbdb"></path><path d="M367.6,104.64c.42-.41.11-1.88.29-2.1.31-.37,5.95-4.93,5.95-4.93L371.19,95l-.42.58h0l-4,5.43c-.22.29-2.29-.18-2.58.26-.15.22.57,1.29,1.4,2.19h0C366.38,104.28,367.27,105,367.6,104.64Z" style="fill:#ebebeb"></path><path d="M364.46,101.6a9.29,9.29,0,0,1,2.73,2.91Z" style="fill:#dbdbdb"></path><path d="M365.59,103.43a3.65,3.65,0,0,1-.42-1.08.61.61,0,0,1,0-.23c0-.21.09-.36.29-.39.55-.09,1.55.25,1.87,0s3.34-6,3.46-6.18l-4,5.43c-.22.29-2.29-.18-2.58.26C364,101.46,364.76,102.53,365.59,103.43Z" style="fill:#dbdbdb"></path><path d="M379.15,98.18c.16.35.76.41,1.34.15s.92-.77.76-1.12-.76-.41-1.34-.15S379,97.83,379.15,98.18Z" style="fill:#dbdbdb"></path><path d="M379.54,99.42a3.88,3.88,0,0,0,2.29-1.09A1.21,1.21,0,0,0,382.2,97c-.24-.62-.82-.6-1.39-.66,0,0,0,0,0,0,1-.11,2.13.29,1.95,1.48-.21,1.4-2,2-3.19,1.89C379.44,99.64,379.41,99.44,379.54,99.42Z" style="fill:#dbdbdb"></path><path d="M381.11,79.07c0,.38.76.62,1.62.53s1.5-.48,1.46-.86-.76-.62-1.61-.53S381.07,78.69,381.11,79.07Z" style="fill:#dbdbdb"></path><path d="M383.65,80.2a3.57,3.57,0,0,0,1.13-.7.94.94,0,0,0-.08-1.4,2.86,2.86,0,0,0-2.28-.6,0,0,0,1,1,0-.07c.95-.18,2.46-.07,3,.86.72,1.2-.81,1.85-1.74,2.06C383.6,80.37,383.57,80.23,383.65,80.2Z" style="fill:#dbdbdb"></path><path d="M389,91.53c0,.39.53.68,1.17.67s1.15-.34,1.14-.73-.54-.68-1.18-.66S388.94,91.15,389,91.53Z" style="fill:#dbdbdb"></path><path d="M390.22,93.07a4.93,4.93,0,0,0,1.79-.89c.91-1-.5-1.57-1.27-1.79,0,0,0-.07,0-.07.83.08,2.1.59,1.92,1.63s-1.58,1.46-2.44,1.32A.1.1,0,0,1,390.22,93.07Z" style="fill:#dbdbdb"></path><path d="M386.44,87.37c-.06.29.28.61.77.71s.92-.06,1-.35-.28-.61-.76-.71S386.5,87.08,386.44,87.37Z" style="fill:#dbdbdb"></path><path d="M387.13,88.76a3.94,3.94,0,0,0,1.51-.36c.85-.58-.1-1.27-.64-1.58a0,0,0,0,1,0,0c.61.2,1.48.81,1.16,1.57s-1.44.83-2.07.57A.08.08,0,0,1,387.13,88.76Z" style="fill:#dbdbdb"></path><path d="M368.71,88.5c-.08.47.48,1,1.26,1.09s1.49-.13,1.57-.6-.49-1-1.27-1.1S368.79,88,368.71,88.5Z" style="fill:#dbdbdb"></path><path d="M371.51,87.71s0,0,0,0c.74.56,1.77,1.47,1,2.47a2.23,2.23,0,0,1-2.79.44.08.08,0,0,1,.05-.15,3.77,3.77,0,0,0,2-.26C373.06,89.57,372.21,88.34,371.51,87.71Z" style="fill:#dbdbdb"></path><path d="M216.61,262.18a33.36,33.36,0,0,0,6.53,13.09c6.51,8.05,17.27,11.12,23.82,19,.43,1.14.84,2.32,1.18,3.54,0,0,0,0,0,.06l0,0h0v0a.14.14,0,0,0,.13.05c0-.15,0-.31,0-.45,0-.29-.05-.56-.09-.83s-.11-.77-.18-1.16c0,0,0-.18,0-.23-2-10.82-10.82-19-17.66-27.12-3.91-4.67-6.62-10.11-10.43-14.8-.91-1.12-2.27-3.46-3.77-2C214.43,253.1,216.13,260.22,216.61,262.18Z" style="fill:#ebebeb"></path><path d="M222.39,269c5.76,11.06,21.18,14.61,25.2,26.68l.3,1c.06.24.13.48.18.72h0a2.82,2.82,0,0,1,.07.31s0,0,0,.06l0,0h0v0a.14.14,0,0,0,.13.05h.05a.17.17,0,0,0,0-.12c-.06-.39-.15-.78-.23-1.15a15.75,15.75,0,0,0-.86-2.7s0,0,0,0a39.86,39.86,0,0,0-8.67-14.23c-4.82-5.36-9.85-10.35-14.58-15.85-.59-.68-2.36-3.68-3.34-2.56C219.48,262.71,221.73,267.74,222.39,269Zm-.41-1.9c-.26-.66-1.86-5.15-.61-5.32.74-.11,2.62,2.9,3,3.28l4,4.34c2.82,3,5.65,6.06,8.46,9.1a53.43,53.43,0,0,1,8.79,12.2C239.49,281.64,226.16,277.77,222,267.11Z" style="fill:#fff"></path><path d="M274.72,366.68c.09.14.31.27.44,0,5-10,17.68-11.73,23.34-21.36a50.14,50.14,0,0,0,4.79-12.54,39.8,39.8,0,0,0,1.64-9.79c0-.44.26-2.37-.3-2.94-4.24-4.25-12.26,11.9-13.74,14.38-5.77,9.66-11.06,18.48-15,28.83q-.63,1.6-1.2,3.27S274.69,366.64,274.72,366.68Z" style="fill:#ebebeb"></path><path d="M274.72,366.68l.56-1.08c4-6,9.67-10.58,14.77-15.65a38.92,38.92,0,0,0,10.75-17.76c.33-1.24,1.88-6.16,0-7.08-1.67-.84-3.46,3.72-4,4.65-4.05,6.95-7.94,13.87-12.52,20.5-2.93,4.25-5.92,8.51-8.42,13q-.63,1.6-1.2,3.27S274.69,366.64,274.72,366.68Zm2.46-4.5c3-5.1,6.43-9.93,9.76-14.85q3.44-5.07,6.45-10.39c1.09-1.95,2.17-3.92,3.28-5.86.56-1,1.12-1.94,1.7-2.89.29-.49,1.21-2.11,1.95-1.68,2,1.19-2.13,15.54-12.36,24.65A83.72,83.72,0,0,0,277.18,362.18Z" style="fill:#fff"></path><path d="M279.17,343.33a.09.09,0,0,0,.07.1.1.1,0,0,0,.12-.08c.08-.27.15-.52.22-.79.26-1,.49-1.94.7-2.9,0-.18.08-.35.11-.53a.23.23,0,0,0,.08-.09c2.58-10.46,11.21-18.29,12.22-29.24a43.6,43.6,0,0,0-1.52-14.5c-.52-2-1.15-8.82-4.15-8.91-2.34-.06-3.64,3.84-4.17,5.48-1.68,5.22-1.6,11.09-1.72,16.52s.05,10.63.08,15.94a88.67,88.67,0,0,1-1.27,14.43C279.69,340.27,279.44,341.79,279.17,343.33Z" style="fill:#ebebeb"></path><path d="M279.17,343.33a.09.09,0,0,0,.07.1c.21-.87.41-1.74.63-2.61-.1.59-.2,1.17-.29,1.74.26-1,.49-1.94.7-2.9.09-.5.18-1,.28-1.5a119.6,119.6,0,0,1,6.12-17,25.7,25.7,0,0,0,2.24-8.53c.42-5.5-.77-17.17-2.4-18.08s-1.6,3-1.7,3.94c-.74,7.38-.51,14.78-1.65,22.14-.77,4.94-1.59,9.88-2.41,14.82-.3,1.08-.58,2.17-.82,3.27C279.69,340.27,279.44,341.79,279.17,343.33Zm2.5-10.93c.91-4.73,1.78-9.47,2.4-14.23.5-3.95.63-7.93.79-11.91.08-2,.16-4,.32-5.95,0-.54.12-4.91.92-5s1.25,3,1.36,3.8a120,120,0,0,1,.91,12c.07,4.23-1.25,7.83-3,11.62A88.21,88.21,0,0,0,281.67,332.4Z" style="fill:#fff"></path><path d="M258,420.12a1.53,1.53,0,0,0,.5-.6c6.44-8.07,15.44-13.57,21.92-21.67a28.14,28.14,0,0,0,5.94-12.11c.37-1.92,1.67-8.56-.38-10.07-6.12-4.58-22.89,31.09-28.06,43.4a2.07,2.07,0,0,0-.25.54C257.52,420,257.7,420.25,258,420.12Z" style="fill:#ebebeb"></path><path d="M258,420.12c.41-.71.83-1.42,1.26-2.12,1.54-2,3.12-4,4.81-5.85,2.68-3,5.71-5.59,8.55-8.4A37,37,0,0,0,282.2,388c.39-1.3,1.71-4.93.28-6.08s-2.62,1.52-3.16,2.31c-7.57,11.24-14.43,23.07-21.3,34.78-.14.2-.26.39-.38.59C257.52,420,257.7,420.25,258,420.12Zm3.31-5.57c2.73-4.54,5.45-9.07,8.2-13.58q3.24-5.3,6.51-10.57c1.09-1.73,2.14-3.49,3.25-5.21.44-.67,2.12-3.32,2.85-2.58s0,3.33-.08,3.81c-1.87,7.67-6.47,13.76-12.13,19.05A89.88,89.88,0,0,0,261.28,414.55Z" style="fill:#fff"></path><path d="M256.41,326.43a.42.42,0,0,0,.15.34.47.47,0,0,0,.51,0,.6.6,0,0,0,.23-.16.23.23,0,0,0,.11-.14c1.67-6.15,5.55-13.25,7.42-19.31a49.37,49.37,0,0,0,2-14.41,67,67,0,0,0-1.78-16.15c-.62-2.5-1.75-8.61-4.71-9.68-6.09-2.22-4,17.67-4,20C256.29,300.13,256.29,313.28,256.41,326.43Z" style="fill:#ebebeb"></path><path d="M256.56,326.77a.47.47,0,0,0,.51,0c0-.46.07-.94.11-1.4.47-2.71.94-5.42,1.57-8.1,1-4.37,2.62-8.59,3.49-13,1.51-7.67.47-28.64-2.89-28.82-1.75-.09-1.36,4.13-1.36,5.18,0,4.15.55,8.27.51,12.43,0,4.36-.32,8.71-.6,13.07-.44,6.7-.9,13.39-1.27,20.1C256.6,326.44,256.58,326.6,256.56,326.77Zm.93-5.78c.41-5.93.76-11.87,1.13-17.81.25-4.1.46-8.21.42-12.33,0-2.29-.2-4.59-.36-6.88-.07-1.12-.15-2.24-.15-3.36s-.2-4.89,1.15-4.21,2,6.63,2.15,8c.23,2.27.43,4.53.56,6.81a53.92,53.92,0,0,1-.78,13.42c-.91,4.39-2.51,8.61-3.45,13C257.93,318.76,257.69,319.87,257.49,321Z" style="fill:#fff"></path><path d="M214,362c11.84,3.59,24.78-1.09,37.13,10.15a.06.06,0,0,0,.11,0,0,0,0,0,0,0-.06c-1.08-1.24-2.2-2.43-3.38-3.59a69.8,69.8,0,0,0-22.13-14.73,52.75,52.75,0,0,0-15.37-3.81c-2.7-.22-8.84-1.23-10.9.7C194.94,354.75,211.8,361.31,214,362Z" style="fill:#ebebeb"></path><path d="M211.54,356.87c6.27,4,14.21,4.29,21.24,6.13a60.48,60.48,0,0,1,13.94,5.4c1.51,1.19,3,2.41,4.47,3.67a0,0,0,0,0,0-.06c-1.08-1.24-2.2-2.43-3.38-3.59l-.26-.14a74,74,0,0,0-13.06-8.47,77,77,0,0,0-20.22-7.1c-1.22-.25-5.67-1.81-6.57-.22S210.66,356.32,211.54,356.87Zm-3.1-4.14c.77-1,8.12.92,11,1.72a76.82,76.82,0,0,1,18,7.55,71.14,71.14,0,0,1,7,4.69,61.76,61.76,0,0,0-9.08-3.46c-6.49-1.92-13.48-2.4-19.79-4.86a21.19,21.19,0,0,1-4.68-2.48C210.38,355.48,207.74,353.61,208.44,352.73Z" style="fill:#fff"></path><path d="M197.68,313.87a57.13,57.13,0,0,0,6.73,11.6,56.11,56.11,0,0,0,19.8,16.36l.42.21c.28.32.57.65.87,1l.2.21.05,0h0a.11.11,0,0,0,.12-.17c-.27-.45-.53-.9-.78-1.36-5.33-9.38-9-19.49-15.7-28.06-1.48-1.87-10.64-14.39-14-9.38C193.92,306.61,196.77,311.79,197.68,313.87Z" style="fill:#ebebeb"></path><path d="M200.64,314.65c3.05,5.91,8.18,11.18,12.64,16.06,3.47,3.8,7.06,7.65,10.93,11.12l1,.85.33.32a2,2,0,0,0,.25.25h0a.11.11,0,0,0,.12-.17c-.27-.45-.53-.9-.78-1.36l-.89-.86a125.8,125.8,0,0,1-9.56-14.93c-1.61-2.78-3.27-5.51-5.14-8.12s-3.6-5.29-5.93-7.36c-1-.89-3.05-2.65-4.14-.92C198.53,311,200,313.4,200.64,314.65Zm2.27-3.95c2.76,2.43,5,5.88,7.06,8.91,2,2.88,3.73,5.93,5.48,9a111.7,111.7,0,0,0,5.92,9.52c-3.48-3.38-6.92-6.79-10.14-10.47-2.52-2.87-5-5.8-7.27-8.85a27.77,27.77,0,0,1-3.16-5,16.11,16.11,0,0,1-.81-1.93C199.3,309.76,201.67,309.6,202.91,310.7Z" style="fill:#fff"></path><path d="M240.52,256.12c0,.17.12.33.17.49a.32.32,0,0,0,.53.11.33.33,0,0,0,.07-.33c-.09-.31-.19-.62-.29-.92h0l-.23-.74a13.84,13.84,0,0,1,0-1.44c.26-5.18,2.68-10.85,3.7-15.74A67.56,67.56,0,0,0,246.17,224a33.5,33.5,0,0,0-2.38-13.54c-.5-1.14-1.58-4.13-3.31-4-2.18.15-2.85,4.89-3.26,6.27a56.27,56.27,0,0,0-2.16,14.71C234.87,237.43,237.27,246.78,240.52,256.12Z" style="fill:#ebebeb"></path><path d="M240.18,253.82a19.3,19.3,0,0,0,.34,2.3c0,.17.12.33.17.49a.32.32,0,0,0,.53.11c0-.13-.07-.25-.09-.38,0-.29-.09-.58-.13-.87h0c-.09-.73-.15-1.45-.2-2.18a44.5,44.5,0,0,1,.22-7.87c.51-4.55,1.18-9.08,1.52-13.65.17-2.29,1.44-19.93-2.67-19.11-.77.14-.89,1.37-1,1.92a30.65,30.65,0,0,0-.64,6c-.17,4.67-.16,9.37,0,14A128.31,128.31,0,0,0,240.18,253.82Zm-1.43-16.58q-.28-6.17-.2-12.33c0-2,0-4,.16-6,.07-1,.63-5.6,1.54-5.57,1.34,0,1.94,6.35,2,8.1.09,2,.08,4,0,6-.13,4-.52,8-1,12-.42,3.53-1.11,7.42-1.2,11.25A131.41,131.41,0,0,1,238.75,237.24Z" style="fill:#fff"></path><path d="M219.84,335.44a252.53,252.53,0,0,0,18.95,21c5.23,5.11,10.52,10.3,14.49,16.49,4.73,7.39,7.49,17.08,7.93,26.59q1.13-5.67,2.14-11.42c1.36-7.79,2.62-15.71,2.17-23.65,0-.78-.12-1.56-.2-2.34a.18.18,0,0,1-.11-.13,95.69,95.69,0,0,0-12.84-25.42,79.35,79.35,0,0,0-12.56-9.11c-4.59-2.72-9-5.39-12.84-9.17-.22-.22.05-.59.3-.39,5.75,4.6,13.79,7.63,20.15,12.16-.76-.92-1.52-1.84-2.31-2.74-7.51-8.68-16.63-16.47-18.8-28.29-.07-.39.52-.44.61-.07,3,12.81,15.33,21.63,23.23,31.47,5.88,7.32,11.35,15.71,14.11,24.82a150.08,150.08,0,0,0-4.36-15.55c-10-30.9-18.87-62.21-20.22-94.83,0-.32.48-.38.5-.06,2.27,34.92,14.13,67.35,24.14,100.52.12.38.22.76.33,1.14a63.37,63.37,0,0,1,2.46-15.34.2.2,0,0,1,.39.06c-.95,7.28-.71,14.48-1.15,21.75a65.67,65.67,0,0,1,1.81,14.67,108.19,108.19,0,0,1-1.75,17.68c2.8-7.91,5.69-15.79,7.92-23.92a287.89,287.89,0,0,0,7.8-37.43c0-.19.3-.14.28,0a240.78,240.78,0,0,1-6.55,39.3c-2.86,10.92-6.13,22.27-11.3,32.41-2.55,13.77-5.62,27.91-11.7,40.47a.5.5,0,0,1-.92-.4q1.31-4.08,2.47-8.16c-.54-4.88-.24-9.82-1-14.72a72.86,72.86,0,0,0-4.89-16.69c-.16-.39.43-.61.61-.24,3.59,7,7,16.3,7.19,24.92q1.59-6,3-12c.65-13.76-2.07-28.05-10.48-39.09-4.33-5.67-9.56-10.54-14.5-15.65a153.24,153.24,0,0,1-14.82-18.31A.26.26,0,0,1,219.84,335.44Z" style="fill:#ebebeb"></path></g><g id="freepik--character-2--inject-409"><path d="M369.81,215c-2.22,4.94.63,30.25,23.67,30.15,22.69-.1,31-34.27,9-43.51C387.77,195.45,374.53,204.5,369.81,215Z" style="fill:#263238"></path><path d="M402.23,357.27s-1.43,16.13-3.55,39.47h0c-.06.68-.13,1.36-.19,2-1,11.47-2.22,24.52-3.47,38.2H321.69c5.26-41.09,9.8-76.5,10.18-79.51a1.76,1.76,0,0,1,0-.21Z" style="fill:#37474f"></path><path d="M392,366.51q-.69,8.46-1.42,16.93h0c-.14,1.64-.3,3.26-.44,4.9v0Q388,412.71,385.51,437h-1.06c1.79-16.66,3.46-33.32,5.15-50v0l.54-5.43v0l1.53-15C391.7,366.34,392,366.34,392,366.51Z" style="fill:#263238"></path><path d="M419.34,357.27s-3.34,18.92-8,45.42v0c-.09.42-.16.84-.24,1.29h0c-1.79,10.14-3.78,21.33-5.84,33H354.15L353,429.31h0l-.22-1.51-.06-.39-.85-5.65h0l-.33-2.11-9.46-62.36Z" style="fill:#263238"></path><path d="M439,437H369.61c0-.3,0-.53-.05-.73s-.05-.47-.05-.47l-1.16-.63c-4.08-2.22-7.66-4-10.61-5.26l-1.45-.66c-1.34-.57-2.54-1.06-3.53-1.45-2.55-1-4-1.46-4-1.46-.09-.22-.16-.42-.24-.63-10.05-25.59-16.11-64.59-16.68-68.22l0-.28H431S434.72,393.89,439,437Z" style="fill:#37474f"></path><path d="M429.28,437h-.92c-1.82-23-3.5-45.95-5.27-68.93,0-.38.56-.38.58,0Q426.42,402.53,429.28,437Z" style="fill:#263238"></path><path d="M345.25,424.5a153.69,153.69,0,0,1,24.27,11.3.28.28,0,0,1-.23.5c-8.18-3.51-16.51-6.87-24.48-10.83A.53.53,0,0,1,345.25,424.5Z" style="fill:#263238"></path><path d="M342.65,368.39c0-.28.52-.34.51,0-.06,9.71.56,18.25,1.37,27.32.38,4.21,3.77,27.49,11.07,25.79,1.23-.28,1.85-1.49,2-3.33.23-2.22-.6-4.94-1-7.14-.81-4.87-1.46-9.76-1.88-14.68a133.32,133.32,0,0,1,.3-27.53.24.24,0,0,1,.47,0c0,12.72.32,25.42,2.23,38,.91,6.05,4,15.17-2.37,16.1S344.8,408.59,344,404.42C341.81,392.76,341.73,380.18,342.65,368.39Z" style="fill:#263238"></path><path d="M355.41,422.09a39.08,39.08,0,0,1,1.64,4.82,11.07,11.07,0,0,1,.69,4c0,.25-.37.28-.51.1a13.79,13.79,0,0,1-1.7-3.86c-.55-1.49-1.14-3-1.65-4.48A.81.81,0,0,1,355.41,422.09Z" style="fill:#263238"></path><path d="M388.46,376a12.7,12.7,0,0,1,.31-3,.15.15,0,0,1,.29,0,12,12,0,0,1,.34,2.61c.11,1,.24,2,.34,3a43.51,43.51,0,0,0,1.08,6.08,21.66,21.66,0,0,0,5.57,10,29.19,29.19,0,0,0,9.43,6.21c3.92,1.66,8.05,2.28,12.1,3.47a.15.15,0,0,1-.05.3,34.91,34.91,0,0,1-13.1-2.58,28.06,28.06,0,0,1-9.84-6.28,21.91,21.91,0,0,1-5.73-10.3,31.46,31.46,0,0,1-.79-6.1A27.85,27.85,0,0,1,388.46,376Z" style="fill:#263238"></path><path d="M342.64,251.86c-9.06,7.08-53.53,48.35-58.64,59.42-5,10.9-4.87,33.48,22.38,30.57,17.7-1.89,40.91-50.21,51.6-79.44C362.89,249,361.65,237,342.64,251.86Z" style="fill:#ebebeb"></path><path d="M244,276.92c-6.46-.51-31,38.61-22.78,43.48,38.6,22.89,77.49,22.85,86.13,20.84,11.34-2.63,15.65-16.51,12.91-23.61C316.25,307.34,250.37,277.43,244,276.92Z" style="fill:#ad6359"></path><path d="M251.49,279.37c-4.38-4.16-24.19-19.57-30.21-23.8S197,240.46,193.33,244.74s1.37,7.91,1.37,7.91-9.16-3.84-11.75,1.27c-2.07,4.07,4.81,9.54,4.81,9.54s-10.27-3.67-12.19,1.72c-1.75,4.91,7.16,8.93,7.16,8.93s-8.9-2.2-9.68,2.86c-.93,6.08,14.48,9.91,20.78,15.07.76.61,4.07,14.13,11,20.76,6.25,5.92,20.2,9.83,20.2,9.83l5.45,7.7,29.5-48Z" style="fill:#455a64"></path><path d="M182.32,274.39c11.25,4,15.79,6,23.72,14.34.16.16.43,0,.29-.21-7-8.85-12.25-11.61-23.9-14.69C181.87,273.68,181.8,274.2,182.32,274.39Z" style="fill:#263238"></path><path d="M187.77,263.57c11.5,4,16.12,7.55,25.07,15.65.13.11.33-.09.21-.22-8.11-8.67-13.23-13.37-25.24-15.83C187.26,263.06,187.24,263.39,187.77,263.57Z" style="fill:#263238"></path><path d="M195.15,253.05c10.86,4.65,16.36,8.18,24,17.15a.22.22,0,0,0,.35-.26c-6.95-9.91-13.78-14.37-24.21-17.21C194.61,252.54,194.47,252.75,195.15,253.05Z" style="fill:#263238"></path><path d="M246,277.39s-25.42-13.95-33.67-10c-6.89,3.29-25.57,10.08-24.54,16.36s11,4.79,24.65,1.4c0,0,13.9,13.35,24,8.3S246,277.39,246,277.39Z" style="fill:#455a64"></path><path d="M260,282.34,238.08,318l-8.86-23.62-10.33-27.51-6.29-16.74c3.56,2,6.75,4.05,8.68,5.4,6,4.23,25.83,19.64,30.21,23.8Z" style="fill:#37474f"></path><path d="M231.63,270.67a86,86,0,0,0-9.23-2.94,33.33,33.33,0,0,0-4.73-.87,10.84,10.84,0,0,0-2.35,0,12.23,12.23,0,0,0-2.22.77c-3,1.21-5.94,2.52-8.88,3.86s-5.83,2.75-8.63,4.34a36.09,36.09,0,0,0-4,2.6,8.43,8.43,0,0,0-2.83,3.54,3.78,3.78,0,0,0,.53,4,6.31,6.31,0,0,0,4.07,1.7,19.31,19.31,0,0,0,4.72-.24c1.6-.22,3.19-.47,4.78-.75,3.18-.54,6.35-1.15,9.48-1.9l.17,0,.13.11a62.29,62.29,0,0,0,7.37,5.65,34.12,34.12,0,0,0,4.05,2.27,17.94,17.94,0,0,0,4.4,1.47A16.91,16.91,0,0,1,224,293a36.43,36.43,0,0,1-4.17-2.14,55.12,55.12,0,0,1-7.59-5.5l.29.08q-4.71,1.21-9.49,2.11c-1.6.29-3.2.55-4.81.78a20.2,20.2,0,0,1-4.93.29,7.24,7.24,0,0,1-4.69-2,4.39,4.39,0,0,1-1.11-2.44,5.36,5.36,0,0,1,.36-2.61,9.26,9.26,0,0,1,3.17-3.94,34.15,34.15,0,0,1,4.14-2.65,140.15,140.15,0,0,1,17.72-8,13,13,0,0,1,2.38-.75,10.9,10.9,0,0,1,2.49,0,29.55,29.55,0,0,1,4.77,1A75.43,75.43,0,0,1,231.63,270.67Z" style="fill:#263238"></path><path d="M262.66,283.19l-32.13,47.14s57.9,19.52,80,10.15c7.91-3.36,15.12-15.28,9.54-24.28S262.66,283.19,262.66,283.19Z" style="fill:#ebebeb"></path><path d="M245,331.79c13.36-17.29,24.77-37.49,27-40.87.11-.16-.16-.32-.26-.15-2,3.43-17.57,25.1-27,40.86C244.57,331.81,244.84,332,245,331.79Z" style="fill:#263238"></path><path d="M358,262.41c-10.69,29.23-33.9,77.55-51.6,79.44l-.24,0h0c-10.81,2.51-26.79.56-41.27-2.41l16.62-16.7,19.83-19.91,57-57.24C361.57,247.66,360.76,254.8,358,262.41Z" style="fill:#dbdbdb"></path><path d="M305.24,303.13c-1.29-.45-2.6-.83-3.93-1.16l-.45-.28a92.79,92.79,0,0,0-13.26-6.36c-.16-.06-.29.17-.14.25q6.44,3.45,12.75,7.06c4.23,2.39,8.44,4.75,12.5,7.43.08,0,.17-.09.1-.14-3.38-2.56-6.85-5.08-10.46-7.31,2.36.74,4.75,1.41,7.06,2.28.09,0,.17-.11.08-.14C308.07,304.22,306.67,303.63,305.24,303.13Z" style="fill:#263238"></path><path d="M326.34,376.14l8.39-46.63a38.72,38.72,0,0,1-8.28-26.82c.93-11.61,28.17-54.89,30.31-56.89,8.57-8,23.2-5,29-.31,29,23.59,40.39,78.21,51.52,130.65Z" style="fill:#407BFF"></path><path d="M351.26,325.81a90.09,90.09,0,0,1,13.16,2.28c2.14.57,4.24,1.23,6.34,1.94,1.05.36,2.1.68,3.16,1a14.45,14.45,0,0,0,3.39.67c.1,0,.1.16,0,.16a19.4,19.4,0,0,1-6.38-.7c-2.18-.56-4.33-1.22-6.5-1.8-4.38-1.16-8.76-2.33-13.22-3.18C351,326.13,351.05,325.78,351.26,325.81Z" style="fill:#263238"></path><path d="M340.25,329.64a96.5,96.5,0,0,1,11-.43c1.84,0,3.66.18,5.49.38.88.09,1.75.2,2.62.32s1.9.38,2.86.5c.1,0,.1.17,0,.16-.9-.08-1.83,0-2.74,0l-2.75-.1c-1.83-.06-3.66-.1-5.5-.18-3.67-.16-7.32-.28-11-.31C340.05,329.94,340.06,329.66,340.25,329.64Z" style="fill:#263238"></path><path d="M353.25,244,328.43,437H314.54S332,331.58,331.87,330.69s-10.68-12.52-7.72-28.48S349.5,246.87,353.25,244Z" style="fill:#ebebeb"></path><path d="M352.47,249.08c-1.09,2.72-2.22,5.42-3.35,8.12s-2.25,5.4-3.41,8.08q-3.45,8.07-7,16.08l-.23-1c2.53,2.07,7.68,6.82,7.68,6.82L337,299.6s.82,37.77,1.1,41.2c-.66-3.38-2.64-41.59-2.64-41.59l9.05-12.32.23,1.2c-2.49-2.13-5-4.26-7.42-6.43l-.5-.44.27-.58q3.72-7.93,7.55-15.83c1.26-2.64,2.57-5.26,3.87-7.88S351.13,251.69,352.47,249.08Z" style="fill:#dbdbdb"></path><path d="M376.58,245.67c-.35,2.14-8.33,15.34-18,15.54-3.14.06-5.36-15.95-5.36-15.95l-.37-1.24-5.16-17.45,19.91-14.75,2.89-2s1.09,4.87,2.39,10.94c.07.28.13.56.19.86s.17.67.23,1c.2.9.41,1.83.6,2.75.14.71.29,1.39.41,2.14s.27,1.46.42,2.21C376,237.1,376.72,244.76,376.58,245.67Z" style="fill:#ad6359"></path><path d="M372.91,220.79a36.49,36.49,0,0,1-20,23.23l-5.16-17.45,19.91-14.75,2.89-2S371.61,214.72,372.91,220.79Z" style="fill:#263238"></path><path d="M321.34,199.31c-2.35,31.84,16.45,36.84,23.32,37.34,6.23.46,27.51,1.21,33.14-30.21s-8.43-42.58-22.63-44.37S323.69,167.48,321.34,199.31Z" style="fill:#ad6359"></path><path d="M327.57,194.9a19.68,19.68,0,0,0,2.16-.44,3.57,3.57,0,0,0,2.12-.88,1.15,1.15,0,0,0,0-1.39,2.81,2.81,0,0,0-2.77-.66,4.14,4.14,0,0,0-2.61,1.45A1.21,1.21,0,0,0,327.57,194.9Z" style="fill:#263238"></path><path d="M348.83,195.51a19.78,19.78,0,0,1-2.16-.47,3.55,3.55,0,0,1-2.11-.89,1.14,1.14,0,0,1,0-1.38,2.81,2.81,0,0,1,2.78-.65,4.14,4.14,0,0,1,2.59,1.47A1.21,1.21,0,0,1,348.83,195.51Z" style="fill:#263238"></path><path d="M344.55,203.54c0-.08.16.11.16.2-.13,2.17.09,4.68,2,5.45.06,0,.06.14,0,.13C344.33,208.91,344.08,205.58,344.55,203.54Z" style="fill:#263238"></path><path d="M346.55,201.33c3.5-.17,3.58,6.84.34,7S343.61,201.47,346.55,201.33Z" style="fill:#263238"></path><path d="M347.93,201.68c.62.39,1.23,1.09,2,1.15s1.5-.67,2.05-1.38c.05-.07.12,0,.12.08,0,1.34-.47,2.73-1.9,2.95s-2.28-1-2.63-2.33C347.47,201.9,347.68,201.53,347.93,201.68Z" style="fill:#263238"></path><path d="M332.26,202.45c0-.08-.16.11-.15.2.22,2.17.11,4.68-1.8,5.54-.06,0-.05.13,0,.12C332.7,207.8,332.82,204.46,332.26,202.45Z" style="fill:#263238"></path><path d="M330.17,200.32c-3.51,0-3.29,7,0,7S333.11,200.34,330.17,200.32Z" style="fill:#263238"></path><path d="M328.8,200.73c-.6.42-1.18,1.14-1.91,1.23s-1.52-.6-2.1-1.29c-.06-.07-.12,0-.12.09,0,1.34.58,2.7,2,2.86s2.22-1.08,2.52-2.44C329.27,200.93,329,200.57,328.8,200.73Z" style="fill:#263238"></path><path d="M344.51,220.39c-.49.54-1,1.27-1.76,1.38a5.66,5.66,0,0,1-2.36-.41.07.07,0,0,0-.09.11,2.91,2.91,0,0,0,2.82,1,2.3,2.3,0,0,0,1.6-2C344.75,220.35,344.58,220.31,344.51,220.39Z" style="fill:#263238"></path><path d="M335.42,212.54s-.45,3.24-.45,4.77c0,.15.37.21.89.25h.06a7.3,7.3,0,0,0,7.07-2.72c.11-.15-.09-.31-.23-.21a11,11,0,0,1-6.64,1.9c-.11-.42.95-5.53.71-5.55a13.38,13.38,0,0,0-3.48.79c.74-6.79,2.56-13.41,3.19-20.18a.21.21,0,0,0-.4-.1c-2.4,6.8-3.42,14.59-4.36,21.59C331.65,214,334.81,212.8,335.42,212.54Z" style="fill:#263238"></path><path d="M376.6,209.16c-5.31.13-6-11-6-11s-10.77-.52-13.52-16.18a23.84,23.84,0,0,0,4.11,13s-18.87-3-26-19.28c0,0,2.77,8.25,5.61,11.28,0,0-7.84-2.63-11.39-9.29,0,0-3.8,9-6.48,11.39,0,0,2.49-33.15,33.06-28,0,0,19.19,2.28,25.32,17.88S376.6,209.16,376.6,209.16Z" style="fill:#263238"></path><path d="M360.24,195.31s16.87.08,21.26,2.68c1.8,1.07,1.34,8.7.22,9.83-.7.71-8.55-2.08-20.62-1.59C361.1,206.23,362.19,199.72,360.24,195.31Z" style="fill:#a6a6a6"></path><path d="M320.25,210.94a10.49,10.49,0,0,0,1.05,1c1.48,1.16,3.23,1.52,5.88.33,1.73-.79,2.82-2.8,5.83-3a10.14,10.14,0,0,1,5.42,1,29.47,29.47,0,0,1,3.21,1.75c.26.14.51.31.77.47a7.63,7.63,0,0,0,.75.41,9.69,9.69,0,0,0,1.22.49c4.79,1.57,12.06.38,14.48-2.18,2.21-2.33,3.18-8.19,1.94-13.46a16.79,16.79,0,0,0-1.12-3.29,13.22,13.22,0,0,0-1.8-2.89c-.14-.16-.26-.31-.4-.46a8.74,8.74,0,0,0-1.27-1.1c-3.13-2.26-8.6-3.56-14.38-3.9l-1.76-.07c-1.28,0-2.56,0-3.82,0-1.45.07-2.9.19-4.27.39-4.9.67-9.05,2.11-11,4.31a11.8,11.8,0,0,0-2.52,5.74,20.79,20.79,0,0,0-.37,3.06,27.88,27.88,0,0,0,1.26,9.71A5.56,5.56,0,0,0,320.25,210.94Z" style="fill:#fff;opacity:0.2"></path><g style="opacity:0.2"><path d="M320.25,210.94a10.49,10.49,0,0,0,1.05,1l10.38-7.73a1.65,1.65,0,0,0-1.67-2.83,3.07,3.07,0,0,0-.31.17l-10.33,7.7A5.56,5.56,0,0,0,320.25,210.94Z" style="fill:#fff"></path><path d="M338.43,210.2a29.47,29.47,0,0,1,3.21,1.75l19.16-14.27a16.79,16.79,0,0,0-1.12-3.29Z" style="fill:#fff"></path><path d="M343.56,200.76a1.11,1.11,0,0,0,1.35.35.75.75,0,0,0,.21-.12l12.76-9.49c-.14-.16-.26-.31-.4-.46a8.74,8.74,0,0,0-1.27-1.1l-12.43,9.25A1.13,1.13,0,0,0,343.56,200.76Z" style="fill:#fff"></path><path d="M318.11,199.51,336.25,186c-1.45.07-2.9.19-4.27.39l-13.5,10A20.79,20.79,0,0,0,318.11,199.51Z" style="fill:#fff"></path><path d="M322.21,200a.54.54,0,0,0,.67.17l.11-.06,18.84-14-1.76-.07-17.75,13.21A.55.55,0,0,0,322.21,200Z" style="fill:#fff"></path><path d="M343.16,212.83a9.69,9.69,0,0,0,1.22.49l9.72-7.24a.55.55,0,0,0-.56-1l-.11.06Z" style="fill:#fff"></path></g><path d="M342.13,212.9c-4.57-2.64-6.28-3.46-9.05-3.11a7.69,7.69,0,0,0-3.83,1.79,10.36,10.36,0,0,1-1.84,1.17c-3.12,1.4-6.12.81-7.63-1.5-2.22-3.4-4.26-15.12.8-20.91,3.07-3.5,11-4.85,17.33-4.94,6.87-.1,16.22,1.22,20,5.27h0c5.58,6,4.69,16.78,1.4,20.82a8.17,8.17,0,0,1-3,2.2A16.68,16.68,0,0,1,342.13,212.9Zm14.94-21.48c-2.88-3.11-10.4-5-19.14-4.91-7.82.11-14.15,1.86-16.51,4.57-4.64,5.3-2.73,16.46-.71,19.56,1.45,2.22,4.18,2,6.24,1.09a9.7,9.7,0,0,0,1.64-1,8.73,8.73,0,0,1,4.35-2c3.24-.4,5.33.71,9.75,3.26,5,2.88,12.93,2.3,15.74-1.15,3.06-3.76,3.68-13.94-1.36-19.37Z" style="fill:#a6a6a6"></path><path d="M362.79,229.24c5.3-2.43,10.63-5.22,14-10.15a26.29,26.29,0,0,0,4.81-11.71,20,20,0,0,1-1.91,4.82,14.94,14.94,0,0,1-3.41,4.2s0,0,0,0a29.73,29.73,0,0,1-13.72,12C362,228.62,362.26,229.48,362.79,229.24Z" style="fill:#ebebeb"></path><path d="M367.81,209.52c.93-1.15,3.72-7.08,6.33-9.34l0,0c.4-.41.82-.79,1.24-1.15a6.54,6.54,0,0,1,2.43-1.32,4.26,4.26,0,0,0-2.35-.12c-4.09.87-6.62,8.72-8,11.71C367.35,209.49,367.66,209.74,367.81,209.52Z" style="fill:#ebebeb"></path><path d="M368.67,208.18c.65-1.47-10.26,3.9-21.86,2-2.37-.38-9-2.69-12.69-2.57s-7.86,3-12.9,3.72c-1.72.23.21,14.35,4.82,20.4,1.52,2,7.84,6,11.64,6.22,8.92.59,24-5.88,26.19-8.76C365.66,226.9,362.55,222.12,368.67,208.18Z" style="fill:#ebebeb"></path><path d="M322.53,214.41c3.13-1.38,7.33-3.23,10.7-3.47,2.39-.17,5.72.92,9.14,1.61,7.82,1.58,13.75,1.46,21.28-.83.09,0,.13.12,0,.16-6,2.71-12.82,3-19.2,1.78-3.48-.65-7.71-2.19-11.28-1.87-3.9.35-7,1.84-10.6,2.94C322.3,214.83,322.21,214.54,322.53,214.41Z" style="fill:#dbdbdb"></path><path d="M328.65,230.6c2.43,1,4.84,2.55,7.36,3.24,3,.82,6.5-.21,9.42-1,5.54-1.41,10.81-3.74,16.2-5.69.05,0,.06.06,0,.08A75.16,75.16,0,0,1,343,234.1c-2.16.43-4.54,1-6.73.48-2.64-.66-5.31-2.42-7.68-3.83C328.53,230.71,328.57,230.57,328.65,230.6Z" style="fill:#dbdbdb"></path><path d="M324.57,219.11c5.62-1.75,10.91-1.52,16.68-1a70.71,70.71,0,0,0,19.59-.95c.07,0,.1.09,0,.1a59.9,59.9,0,0,1-17.45,1.41c-2.84-.19-5.66-.61-8.51-.71a35,35,0,0,0-10.24,1.47A.18.18,0,0,1,324.57,219.11Z" style="fill:#dbdbdb"></path><path d="M326.08,224.49a29.37,29.37,0,0,0,16.69,2.93c5.87-.7,11.46-3,17-5,.07,0,.11.09,0,.12-11.14,4.86-22.48,8.25-33.9,2.26A.18.18,0,1,1,326.08,224.49Z" style="fill:#dbdbdb"></path><path d="M369.11,207.6s5.07-11,10-9.42,2.33,16.78-2.53,19.68a5.41,5.41,0,0,1-7.64-1.56Z" style="fill:#ad6359"></path><path d="M378.23,202.5c.08,0,.12.09,0,.14-3.39,2.15-4.7,5.9-5.4,9.66.84-1.55,2.19-2.56,4.24-1.6.1.05,0,.22-.07.21a3.32,3.32,0,0,0-3.38,1.8,15.37,15.37,0,0,0-1.19,3.22c-.12.36-.74.29-.68-.11,0,0,0-.06,0-.09C370.87,211.08,373.3,203.89,378.23,202.5Z" style="fill:#263238"></path><path d="M375.85,218.3a1.75,1.75,0,1,1-2.2-1.14A1.75,1.75,0,0,1,375.85,218.3Z" style="fill:#fff"></path><path d="M448.93,437H377.3l-.62-196.15s2.75-.22,11.06,5.53c8.86,6.14,16.5,18.64,28.68,45C444.55,352.19,448.93,437,448.93,437Z" style="fill:#ebebeb"></path><path d="M376.23,244c1.4,3.12,11.66,31.15,14.31,37.48l.24.57-.36.45q-3.68,4.53-7.4,9l0-1.36,8.81,12.24.29.4-.1.51c-1.52,7.38-12.34,41.76-13.24,45.4.61-3.75,10.3-38.58,11.79-46l.19.92L382,291.39l-.52-.72L382,290c2.49-3,5-5.92,7.5-8.85l-.12,1C386.79,275.81,377.44,247.21,376.23,244Z" style="fill:#dbdbdb"></path><path d="M387.81,274.64c-24.67,41.41-51.76,74.62-61.6,75.69-19.54,2.12-52.6-25.12-64.7-36.57-4.89-4.63,23.58-42.08,29.32-37.74,15.3,11.58,30.95,21.07,34.19,24.55,1.23,1.33,39.91-35.91,52.78-46C392.61,243.06,398.68,256.4,387.81,274.64Z" style="fill:#ad6359"></path><path d="M264.11,262.42c3,.92,2.15-7,.72-12.35-3.3-12.44-1.57-20.64,5.84-23.38,6.49-2.41,7.11,20.08,13.49,30,5,7.85,9.55,22.69,9.55,22.69C288.38,276,274.65,269,264.11,262.42Z" style="fill:#455a64"></path><path d="M276.63,301.33l-11.34,14.56c-15.22-10-34.34-22.07-42.81-40.33a10,10,0,0,1-.82-6.47c-3.81-7.85-1.45-12.12-1.3-12.39h0c1.95,4.9,13.13,16.54,18,19.66C242.08,278.71,265.48,294,276.63,301.33Z" style="fill:#455a64"></path><path d="M220.13,251.87a16.64,16.64,0,0,0,.4,4.78v.05l0,.06a10.59,10.59,0,0,0-.66,3.07,14.42,14.42,0,0,0,.08,3.15,16.06,16.06,0,0,0,.78,3,19.44,19.44,0,0,0,1.32,2.86l.08.16-.07.23a5.94,5.94,0,0,0-.15,2.48,12.94,12.94,0,0,0,.6,2.57,9.55,9.55,0,0,0,.47,1.26l.53,1.23c.43.79.82,1.6,1.29,2.38a61.4,61.4,0,0,0,6.47,8.73c1.22,1.34,2.41,2.72,3.71,4s2.52,2.65,3.87,3.88l2,1.88c.66.64,1.32,1.27,2,1.87l4.06,3.69c-2.87-2.26-5.77-4.52-8.47-7a93.75,93.75,0,0,1-7.83-7.74,55.12,55.12,0,0,1-6.64-8.83c-.47-.8-.87-1.65-1.3-2.47l-.54-1.29a9.84,9.84,0,0,1-.47-1.32,12.83,12.83,0,0,1-.61-2.76,7.68,7.68,0,0,1,0-1.44,4.44,4.44,0,0,1,.3-1.5v.39a19.76,19.76,0,0,1-1.28-3,16.53,16.53,0,0,1-.69-3.21,12.53,12.53,0,0,1,.9-6.43v.1A15.48,15.48,0,0,1,220.13,251.87Z" style="fill:#263238"></path><path d="M243.1,286.26c-4.71-4.37-12.94-12.12-22.54-29.68,0-.06-.14,0-.12,0a68.42,68.42,0,0,0,22.45,29.87C243.21,286.73,243.41,286.55,243.1,286.26Z" style="fill:#263238"></path><path d="M239.27,292.53c-7.72-7.74-11.61-13.6-17.55-23.42,0-.06-.14,0-.11.05,5.58,11.87,8.95,15.54,17.43,23.68C239.33,293.12,239.57,292.84,239.27,292.53Z" style="fill:#263238"></path><rect x="248.25" y="239.28" width="18.12" height="2.39" transform="translate(191.89 586.54) rotate(-122.36)" style="fill:#407BFF"></rect><rect x="248.25" y="239.28" width="18.12" height="2.39" transform="translate(191.89 586.54) rotate(-122.36)" style="opacity:0.1"></rect><rect x="265.34" y="230.32" width="11.09" height="2.39" transform="matrix(-0.54, -0.84, 0.84, -0.54, 220.3, 584.25)" style="fill:#407BFF"></rect><rect x="265.34" y="230.32" width="11.09" height="2.39" transform="matrix(-0.54, -0.84, 0.84, -0.54, 220.3, 584.25)" style="opacity:0.1"></rect><rect x="261.08" y="228.94" width="5.88" height="13.87" transform="translate(206.08 585.13) rotate(-122.36)" style="fill:#407BFF"></rect><polygon points="258.48 235.9 260.98 241.28 259.74 242.07 256.59 237.1 258.48 235.9" style="opacity:0.2"></polygon><path d="M213.42,268.46c-1.86,1.27-3.74,2.51-5.63,3.75l-5.69,3.66-5.73,3.57-2.89,1.77c-1,.57-1.93,1.16-2.9,1.72.92-.64,1.86-1.26,2.8-1.89l2.82-1.86,5.69-3.66,5.73-3.57C209.55,270.77,211.47,269.59,213.42,268.46Z" style="fill:#263238"></path><rect x="229.12" y="229.8" width="12.96" height="49.2" transform="translate(146.8 589.58) rotate(-122.36)" style="fill:#407BFF"></rect><rect x="229.12" y="229.8" width="12.96" height="49.2" transform="translate(146.8 589.58) rotate(-122.36)" style="fill:#fff;opacity:0.6000000000000001"></rect><rect x="228.32" y="234.53" width="9.72" height="43.24" transform="translate(141.61 590.22) rotate(-122.36)" style="fill:#407BFF"></rect><rect x="220.58" y="268.66" width="2.41" height="0.29" transform="translate(113.43 600.02) rotate(-122.36)" style="fill:#263238"></rect><rect x="221.4" y="268.15" width="2.41" height="0.29" transform="translate(115.11 599.92) rotate(-122.36)" style="fill:#263238"></rect><rect x="222.21" y="267.63" width="2.41" height="0.29" transform="translate(116.81 599.81) rotate(-122.36)" style="fill:#263238"></rect><rect x="223.03" y="267.11" width="2.41" height="0.29" transform="translate(118.49 599.71) rotate(-122.36)" style="fill:#263238"></rect><rect x="222.49" y="265.84" width="4.18" height="0.29" transform="translate(120.09 598.05) rotate(-122.36)" style="fill:#263238"></rect><rect x="224.63" y="266.1" width="2.41" height="0.29" transform="translate(121.8 599.5) rotate(-122.36)" style="fill:#263238"></rect><rect x="225.44" y="265.58" width="2.41" height="0.29" transform="translate(123.5 599.4) rotate(-122.36)" style="fill:#263238"></rect><rect x="226.26" y="265.06" width="2.41" height="0.29" transform="translate(125.18 599.29) rotate(-122.36)" style="fill:#263238"></rect><rect x="227.08" y="264.55" width="2.41" height="0.29" transform="matrix(-0.54, -0.84, 0.84, -0.54, 126.86, 599.18)" style="fill:#263238"></rect><rect x="226.54" y="263.28" width="4.18" height="0.29" transform="translate(128.47 597.54) rotate(-122.36)" style="fill:#263238"></rect><rect x="228.67" y="263.54" width="2.41" height="0.29" transform="translate(130.17 598.98) rotate(-122.36)" style="fill:#263238"></rect><rect x="229.49" y="263.02" width="2.41" height="0.29" transform="translate(131.88 598.88) rotate(-122.36)" style="fill:#263238"></rect><rect x="230.31" y="262.5" width="2.41" height="0.29" transform="translate(133.57 598.78) rotate(-122.36)" style="fill:#263238"></rect><rect x="231.13" y="261.98" width="2.41" height="0.29" transform="translate(135.25 598.67) rotate(-122.36)" style="fill:#263238"></rect><rect x="230.58" y="260.72" width="4.18" height="0.29" transform="translate(136.86 597.02) rotate(-122.36)" style="fill:#263238"></rect><rect x="232.72" y="260.97" width="2.41" height="0.29" transform="matrix(-0.54, -0.84, 0.84, -0.54, 138.54, 598.46)" style="fill:#263238"></rect><rect x="233.54" y="260.45" width="2.41" height="0.29" transform="translate(140.26 598.36) rotate(-122.36)" style="fill:#263238"></rect><rect x="234.36" y="259.94" width="2.41" height="0.29" transform="translate(141.94 598.26) rotate(-122.36)" style="fill:#263238"></rect><rect x="235.17" y="259.42" width="2.41" height="0.29" transform="matrix(-0.54, -0.84, 0.84, -0.54, 143.65, 598.16)" style="fill:#263238"></rect><rect x="234.63" y="258.15" width="4.18" height="0.29" transform="translate(145.23 596.5) rotate(-122.36)" style="fill:#263238"></rect><rect x="236.77" y="258.41" width="2.41" height="0.29" transform="translate(146.94 597.95) rotate(-122.36)" style="fill:#263238"></rect><rect x="237.59" y="257.89" width="2.41" height="0.29" transform="translate(148.65 597.85) rotate(-122.36)" style="fill:#263238"></rect><rect x="238.4" y="257.37" width="2.41" height="0.29" transform="matrix(-0.54, -0.84, 0.84, -0.54, 150.31, 597.74)" style="fill:#263238"></rect><rect x="239.22" y="256.85" width="2.41" height="0.29" transform="translate(152.02 597.64) rotate(-122.36)" style="fill:#263238"></rect><rect x="238.68" y="255.59" width="4.18" height="0.29" transform="translate(153.61 595.98) rotate(-122.36)" style="fill:#263238"></rect><rect x="240.82" y="255.84" width="2.41" height="0.29" transform="translate(155.31 597.43) rotate(-122.36)" style="fill:#263238"></rect><rect x="241.63" y="255.32" width="2.41" height="0.29" transform="matrix(-0.54, -0.84, 0.84, -0.54, 156.99, 597.32)" style="fill:#263238"></rect><rect x="242.45" y="254.81" width="2.41" height="0.29" transform="translate(158.69 597.22) rotate(-122.36)" style="fill:#263238"></rect><rect x="243.27" y="254.29" width="2.41" height="0.29" transform="translate(160.4 597.12) rotate(-122.36)" style="fill:#263238"></rect><rect x="242.73" y="253.02" width="4.18" height="0.29" transform="translate(161.98 595.46) rotate(-122.36)" style="fill:#263238"></rect><rect x="244.86" y="253.28" width="2.41" height="0.29" transform="translate(163.7 596.91) rotate(-122.36)" style="fill:#263238"></rect><rect x="245.68" y="252.76" width="2.41" height="0.29" transform="translate(165.39 596.81) rotate(-122.36)" style="fill:#263238"></rect><rect x="246.5" y="252.24" width="2.41" height="0.29" transform="translate(167.08 596.7) rotate(-122.36)" style="fill:#263238"></rect><rect x="247.31" y="251.72" width="2.41" height="0.29" transform="translate(168.78 596.6) rotate(-122.36)" style="fill:#263238"></rect><rect x="246.77" y="250.46" width="4.18" height="0.29" transform="translate(170.37 594.95) rotate(-122.36)" style="fill:#263238"></rect><rect x="248.91" y="250.71" width="2.41" height="0.29" transform="translate(172.07 596.39) rotate(-122.36)" style="fill:#263238"></rect><rect x="249.73" y="250.2" width="2.41" height="0.29" transform="translate(173.76 596.29) rotate(-122.36)" style="fill:#263238"></rect><rect x="250.54" y="249.68" width="2.41" height="0.29" transform="translate(175.47 596.19) rotate(-122.36)" style="fill:#263238"></rect><rect x="251.36" y="249.16" width="2.41" height="0.29" transform="translate(177.15 596.08) rotate(-122.36)" style="fill:#263238"></rect><rect x="250.82" y="247.89" width="4.18" height="0.29" transform="translate(178.75 594.43) rotate(-122.36)" style="fill:#263238"></rect><rect x="252.96" y="248.15" width="2.41" height="0.29" transform="translate(180.46 595.88) rotate(-122.36)" style="fill:#263238"></rect><rect x="253.77" y="247.63" width="2.41" height="0.29" transform="translate(182.13 595.77) rotate(-122.36)" style="fill:#263238"></rect><rect x="254.59" y="247.11" width="2.41" height="0.29" transform="translate(183.85 595.67) rotate(-122.36)" style="fill:#263238"></rect><rect x="255.41" y="246.6" width="2.41" height="0.29" transform="translate(185.53 595.56) rotate(-122.36)" style="fill:#263238"></rect><rect x="254.87" y="245.33" width="4.18" height="0.29" transform="translate(187.13 593.91) rotate(-122.36)" style="fill:#263238"></rect><rect x="209.9" y="264.72" width="12.96" height="3.71" transform="translate(107.01 592.04) rotate(-122.36)" style="fill:#263238"></rect><rect x="208.65" y="266.58" width="8.76" height="4.25" transform="translate(100.05 592.47) rotate(-122.36)" style="fill:#407BFF"></rect><polygon points="206.33 271.62 207.53 273.52 212.05 271.14 210.41 268.55 206.33 271.62" style="fill:#407BFF"></polygon><polygon points="210.41 268.55 212.05 271.14 210.77 271.81 209.43 269.28 210.41 268.55" style="opacity:0.1"></polygon><path d="M293.72,279.38l-17.09,21.95c-11.15-7.3-34.55-22.62-38.25-25-4.88-3.12-16.06-14.76-18-19.66C219,248,222.32,244,222.32,244s-4.52-9.58.81-13.26c6-4.17,11.16,10.1,18.8,16.2C259.45,260.89,288.26,275.86,293.72,279.38Z" style="fill:#455a64"></path><path d="M250,274.46c-5.08-4.21-10.17-8.22-14.65-13.1C230.44,256,226.62,250,222.57,244a.18.18,0,0,0-.31.17c5.62,12,16.33,23.5,27.55,30.49C250.08,274.87,250.25,274.67,250,274.46Z" style="fill:#263238"></path><polygon points="258.79 311.62 266.26 319.6 296.85 280.46 292.36 275.92 258.79 311.62" style="fill:#455a64"></polygon><path d="M300.8,280.56l-35,47.52s43,27.6,63,23.58,51.34-58.35,60.58-78.72,3.59-32.24-18.52-14.18-44.61,40-45.67,39.3S300.8,280.56,300.8,280.56Z" style="fill:#ebebeb"></path><path d="M280.1,330.79c13.33-17.32,24.7-37.54,26.94-40.92.1-.16-.17-.31-.27-.15-2,3.44-17.52,25.14-27,40.91C279.7,330.81,280,331,280.1,330.79Z" style="fill:#263238"></path><path d="M305.73,284.1c1.7,1.06,3.36,2.16,5,3.25s3.32,2.21,5,3.32q5,3.36,9.84,6.8l-.89,0c2.31-2,4.61-4,6.95-6s4.67-3.94,7-5.88,4.72-3.88,7.11-5.78,4.79-3.8,7.23-5.64c-2.2,2.13-4.44,4.2-6.69,6.27s-4.52,4.11-6.81,6.13-4.58,4-6.9,6-4.65,4-7,5.95l-.44.37-.45-.34q-4.83-3.52-9.59-7.15c-1.58-1.21-3.17-2.41-4.73-3.66S307.27,285.37,305.73,284.1Z" style="fill:#263238"></path><path d="M270.47,321.7c-.69,1.14-1.42,2.24-2.13,3.36s-1.45,2.21-2.19,3.31l-.13-.7,7.55,4.32,7.55,4.29c2.53,1.41,5.05,2.84,7.61,4.2s5.11,2.71,7.73,4a69,69,0,0,1-8.19-3.06c-2.67-1.18-5.27-2.49-7.84-3.85s-5.09-2.83-7.59-4.33-4.94-3.08-7.34-4.74l-.44-.31.31-.39c.83-1,1.66-2.06,2.52-3.06S269.58,322.69,270.47,321.7Z" style="fill:#263238"></path><path d="M374.75,300.25c.73-1.88,1.59-3.7,2.48-5.49s1.84-3.56,2.8-5.31,2-3.47,3-5.17,2.12-3.39,3.27-5.06a42.59,42.59,0,0,1-2.24,5.61c-.85,1.82-1.78,3.6-2.75,5.35s-2,3.47-3.1,5.15A54.09,54.09,0,0,1,374.75,300.25Z" style="fill:#263238"></path><path d="M382.2,287.09a25.36,25.36,0,0,1,2.26-2.06c.39-.31.76-.64,1.13-1a4.85,4.85,0,0,0,1-1.12,2.51,2.51,0,0,1-.55,1.5,6.27,6.27,0,0,1-1.08,1.16A7.57,7.57,0,0,1,382.2,287.09Z" style="fill:#263238"></path></g><g id="freepik--Table--inject-409"><polygon points="37.46 436.76 90.59 436.51 143.73 436.43 250 436.26 356.27 436.43 409.4 436.51 462.54 436.76 409.4 437 356.27 437.09 250 437.26 143.73 437.09 90.59 437 37.46 436.76" style="fill:#263238"></polygon></g><g id="freepik--character-1--inject-409"><path d="M220.4,425c3.14,7.19,1.31,19.25,7.11,18.6,5.17-.59,5.62-9.06,5.62-9.06s2.58,9.71,8,7.5,4-11.6,4-11.6,1.79,8.19,7,5.6,5.47-10.78,5.47-10.78,2.11,2,5-1.49c4.09-5,1.08-18.59-2.17-25.32s-23-34.91-25.67-38.27l-42.72,21.31s2.49,19.81,3.53,27.22,11.25,30.85,17.23,28.71-1.5-18.58-2.45-23-.09-5.4,1.89-3.74C213.44,411.75,219,421.8,220.4,425Z" style="fill:#d3766a"></path><path d="M233,434.11c-.21-11.86-2.35-17-8.75-26.77-.13-.19.13-.42.28-.23,7.14,9,10.76,15.06,9.05,27C233.44,434.72,233,434.67,233,434.11Z" style="fill:#263238"></path><path d="M245,430.93c-1.29-12.29-3.56-17.9-9.52-28.62-.08-.15.17-.31.26-.16,6.72,10,10.2,16.16,9.87,28.62C245.55,431.33,245,431.49,245,430.93Z" style="fill:#263238"></path><path d="M257.42,425.12c-2.11-11.82-4.34-18.07-11.46-27.73a.22.22,0,0,1,.34-.29c8.22,9.15,11.05,16.93,11.47,27.91C257.8,425.76,257.55,425.86,257.42,425.12Z" style="fill:#263238"></path><path d="M159.18,238.67c33.18,34.89,73.57,116.77,79.52,129.41,4,8.58-40.81,30.92-42.68,24.68C193.62,384.78,152.83,287,145,249,140.67,228.2,152.33,231.47,159.18,238.67Z" style="fill:#d3766a"></path><path d="M148.34,268.68l20.81-22.17s-.62-1.74-12.23-11.84c-15.24-13.26-15.47,4.44-12.86,16.55S148.34,268.68,148.34,268.68Z" style="fill:#ebebeb"></path><path d="M165.15,250.77l-16.81,17.92s-1.67-5.36-4.28-17.46c-1.58-7.3-2.12-16.62,1-20C146.85,233,156.7,242.4,165.15,250.77Z" style="fill:#dbdbdb"></path><polygon points="166.02 240.57 166.58 241.93 169.15 242.57 169.15 243.98 171.48 245.75 148.42 270.37 148.3 269.06 147.22 269 147.26 267.66 146.52 267.36 166.02 240.57" style="fill:#dbdbdb"></polygon><path d="M166.58,241.93c-1.54,2.2-3.09,4.38-4.68,6.55l-4.78,6.46-4.88,6.4c-1.63,2.13-3.3,4.23-5,6.32,1.54-2.2,3.09-4.38,4.68-6.55l4.78-6.46,4.88-6.4C163.23,246.12,164.9,244,166.58,241.93Z" style="fill:#263238"></path><path d="M169.15,244c-1.67,2.15-3.35,4.28-5.06,6.4l-5.17,6.3-5.26,6.24c-1.76,2.07-3.55,4.11-5.36,6.14,1.67-2.14,3.36-4.28,5.07-6.39l5.17-6.31,5.25-6.23Q166.43,247,169.15,244Z" style="fill:#263238"></path><path d="M206.32,437h-82c-.27-1.47-.54-2.93-.79-4.38s-.58-3.15-.87-4.71c-.22-1.25-.45-2.49-.67-3.72-.11-.62-.23-1.23-.33-1.84-.45-2.42-.88-4.82-1.31-7.13-.1-.59-.21-1.17-.31-1.75a1.4,1.4,0,0,0-.06-.28c-.2-1.22-.43-2.42-.65-3.6,0-.26-.09-.52-.14-.77-.46-2.53-.9-4.95-1.33-7.29,0-.39-.12-.76-.2-1.13-.29-1.62-.57-3.18-.85-4.7-.15-.78-.28-1.55-.42-2.32-.42-2.27-.81-4.43-1.18-6.46h0c0-.26-.08-.52-.15-.77,0,0,0,0,0,0-.06-.39-.13-.8-.21-1.19s-.16-.76-.22-1.14h0c-.27-1.46-.52-2.85-.74-4.15a.29.29,0,0,0,0-.09l-.31-1.69c-.1-.54-.19-1.08-.29-1.58-.05-.34-.12-.68-.18-1v0c-.1-.46-.17-.91-.25-1.34s-.14-.78-.2-1.14-.1-.55-.15-.79c-.16-.88-.3-1.65-.43-2.33-.07-.46-.15-.87-.22-1.23s-.08-.44-.11-.63,0-.18,0-.27a1.74,1.74,0,0,0-.07-.37l0-.17c0-.11,0-.2,0-.26s0-.06,0-.1l0-.13H189S196.78,397.45,206.32,437Z" style="fill:#455a64"></path><path d="M136.47,437h-1.11q-5.76-30.5-11.42-61c0-.18.24-.26.28-.08C128.32,396.25,132.45,416.61,136.47,437Z" style="fill:#263238"></path><path d="M174.12,366.46l-2.69,27.46V394l-.56,5.75h0l-.65,6.62h0l-.13,1.3-.12,1.2L167.21,437h-42.9c-.27-1.47-.54-2.93-.79-4.38s-.58-3.15-.87-4.71c-.22-1.25-.45-2.49-.67-3.72-.11-.62-.23-1.23-.33-1.84-.45-2.42-.88-4.82-1.31-7.13-.1-.59-.21-1.17-.31-1.75a1.4,1.4,0,0,0-.06-.28c-.2-1.22-.43-2.42-.65-3.6,0-.26-.09-.52-.14-.77q-.68-3.76-1.33-7.29c0-.39-.12-.76-.2-1.13-.29-1.62-.57-3.18-.85-4.7-.15-.78-.28-1.55-.42-2.32-.42-2.27-.81-4.43-1.18-6.46h0c0-.26-.08-.52-.15-.77,0,0,0,0,0,0-.06-.39-.13-.8-.21-1.19s-.14-.77-.21-1.16h0c-.27-1.46-.52-2.83-.75-4.13a.29.29,0,0,0,0-.09l-.31-1.69c-.1-.54-.19-1.08-.29-1.58-.05-.34-.12-.68-.18-1v0c-.1-.46-.17-.91-.25-1.34s-.14-.78-.2-1.14-.1-.55-.15-.79c-.16-.88-.3-1.65-.43-2.33-.07-.46-.15-.87-.22-1.23s-.08-.44-.11-.63,0-.18,0-.27a1.74,1.74,0,0,0-.07-.37l0-.17c0-.11,0-.2,0-.26s0-.06,0-.1,0-.13,0-.13Z" style="fill:#263238"></path><path d="M187.3,366.46c-7.43,16.5-11,34-14.59,38.6h0v0a19.34,19.34,0,0,1-2.61,2.59c-5.59,4.82-16,11-16,11,0,.18,0,.36,0,.54h0c-.15,5.7-.29,11.65-.4,17.79H63.82c-1.55-15.09-.12-38.91,9.89-70.53Z" style="fill:#455a64"></path><path d="M175.26,403.91c-5.29,2.16-10,5.5-14.74,8.71-4.89,3.34-9.36,7.19-14.05,10.77-.18.14,0,.43.19.31,4.94-3.16,10.13-5.94,15-9.2s9.7-6.23,13.82-10.2C175.66,404.14,175.48,403.82,175.26,403.91Z" style="fill:#263238"></path><path d="M175.93,373.32c-.63,3.38-1.45,6.74-2.18,10.1-.69,3.16-1.19,6.38-2,9.51a16.23,16.23,0,0,1-4.42,8c-1.24,1.15-2.61,2.17-3.93,3.23-.71.57-1.48,1.11-2.22,1.69.1-.45.17-.9.25-1.37.23-1.28.45-2.56.66-3.85q.72-4.27,1.37-8.57c.86-5.62,1.65-11.3,2.83-16.86a.18.18,0,0,0-.35-.09c-1.4,5.51-2.95,11-4.17,16.53-.6,2.73-2.73,16.19-2.82,17.14s-.18,2-.22,3a11.74,11.74,0,0,0,0,3c.06.25.35.21.46,0h0a12,12,0,0,0,.86-2.92c.24-1,.46-1.94.63-2.91.07-.36.11-.72.16-1.08,1.33-.8,2.57-1.87,3.81-2.77s2.69-1.91,4-3a15.17,15.17,0,0,0,4.83-7.56,54.5,54.5,0,0,0,1.59-9.67c.42-3.83.74-7.67,1.27-11.49C176.31,373.18,176,373.08,175.93,373.32Z" style="fill:#263238"></path><path d="M85.43,396.9c1.42-.74,6.92.57,16.93-1.14a11.45,11.45,0,0,0,5.4-2.19c2.61-2.13,4.58-5.55,6.16-8.48a43.52,43.52,0,0,0,4.31-10.48c0-.22.37-.11.34.1-.38,2.08-.58,4.14-1.13,6.19a37.6,37.6,0,0,1-2.07,5.63c-1.51,3.39-3.28,7-6.33,9.34s-7.65,2.85-11.52,3.12c-2.24.16-11-.08-12.21-1.33A.49.49,0,0,1,85.43,396.9Z" style="fill:#263238"></path><path d="M193.28,382.05,66.59,383.77s-4.35-9.28-2.34-23.5c4.6-32.69,21.56-91.52,50.66-124.11,7-7.79,23.13-8.51,31.94-2.34,2.79,2,14.64,16.37,19.11,30.49,3,9.59,21.67,61.86,28.75,93.53C198,372.77,193.38,381.9,193.28,382.05Z" style="fill:#407BFF"></path><path d="M102.18,243.41c-33.83,29.3-66,95.9-66.57,105.55-1.17,19.17,26.94,50.19,38.67,61.48C79,415,119.72,382.37,115.22,377,103.21,362.56,84.7,346.48,84,346c-1.47-1,25.88-69.51,31.39-82.26C127.63,235.4,117.86,229.84,102.18,243.41Z" style="fill:#d3766a"></path><path d="M68.51,403.4c12.38,15.25,27.8,29.89,47.61,35.21a10.12,10.12,0,0,0,6.64-.3c8.84,2.54,12.69-.86,12.69-.86,9-.15,12.42-4.18,12.42-4.18s10.4,2.87,13.18-3.13c3.14-6.72-12.09-9.44-19.54-16.05-17.09-15.16-37.15-41.49-41.64-46.36Z" style="fill:#d3766a"></path><path d="M112.43,410.78c5.12,4.37,10,8.78,15.72,12.43,6.23,4,12.9,6.8,19.62,9.83a.18.18,0,0,1-.12.33c-13-3.55-26.45-12.3-35.42-22.36C112,410.77,112.17,410.57,112.43,410.78Z" style="fill:#263238"></path><path d="M101.78,419.77c5.22,4,14.43,10.88,33.74,17.47.07,0,0,.14,0,.12A69.7,69.7,0,0,1,101.59,420C101.29,419.74,101.43,419.51,101.78,419.77Z" style="fill:#263238"></path><path d="M96.15,424.7c9.12,6.41,15.69,9.3,26.59,13.55.06,0,0,.14,0,.12-12.89-3.53-17.17-6.28-26.81-13.38C95.55,424.74,95.79,424.45,96.15,424.7Z" style="fill:#263238"></path><path d="M122.07,394.52c-1.44-2.86.05-3.64,5.2-1.23s23.52,16.29,27.82,9.48-21.88-26-30.77-29.39-24.45-5.65-24.45-5.65C104.22,372.5,113.66,385.06,122.07,394.52Z" style="fill:#d3766a"></path><path d="M101.42,305.18,62.69,287s27.61-37.68,44.8-48.3,15.7,6.68,11.7,18.41S101.42,305.18,101.42,305.18Z" style="fill:#ebebeb"></path><path d="M100.66,295c-4.59-2.68-9.58-4.82-14.39-7.07s-10-4.29-15-6.5c-.15-.06-.27.18-.13.25,4.81,2.37,9.49,4.95,14.38,7.15a154.09,154.09,0,0,0,15.1,6.29C100.67,295.14,100.73,295,100.66,295Z" style="fill:#263238"></path><path d="M99.1,304.1c.82.27,1.63.55,2.43.85l-.35.14c1.34-4.72,3-9.34,4.7-13.92.88-2.29,1.78-4.56,2.75-6.81s2-4.49,3.1-6.69c-.59,2.4-1.3,4.74-2,7.07s-1.57,4.65-2.41,6.95c-1.7,4.59-3.52,9.14-5.61,13.58l-.13.27-.22-.13C100.57,305,99.83,304.55,99.1,304.1Z" style="fill:#263238"></path><path d="M112.08,282.37a12,12,0,0,1-1.77,3.6,11.76,11.76,0,0,1-2.76,2.92,17.37,17.37,0,0,1,1.94-3.49A17.19,17.19,0,0,1,112.08,282.37Z" style="fill:#263238"></path><path d="M146,257.92c-7.53-.52-16.25-15-18.3-25.15-.14-.7,2.73-6.7,5.86-14.15,1.89-4.52,3.88-9.61,5.36-14.38.3-1,27.68,16.57,27.68,16.57s-6.06,9.09-8.59,17.43a10.93,10.93,0,0,0-.4,2c0,.09,0,.21-.06.34C157,244.51,153.27,258.42,146,257.92Z" style="fill:#d3766a"></path><path d="M166.59,220.81s-6.06,9.1-8.59,17.42a10.71,10.71,0,0,0-.27,1.16c-4.7-1.67-17.29-7.81-21.85-26.57,1.11-2.85,2.15-5.76,3-8.58C139.21,203.26,166.59,220.81,166.59,220.81Z" style="fill:#263238"></path><path d="M138.64,168c-5.59,10.19-6.38,42.82-.1,51.44,9.11,12.5,27.28,17.29,38.71,5.6,11.09-11.34,11.37-53.88,4.05-62C170.52,151,146.89,153,138.64,168Z" style="fill:#d3766a"></path><path d="M164.94,195.26c0-.09-.18.1-.18.19,0,2.2-.36,4.72-2.37,5.39-.06,0-.06.13,0,.12C164.84,200.69,165.29,197.34,164.94,195.26Z" style="fill:#263238"></path><path d="M163,192.91c-3.53-.38-4,6.7-.74,7.05S166,193.22,163,192.91Z" style="fill:#263238"></path><path d="M177.83,195.68c0-.08.16.12.15.21-.22,2.18-.1,4.73,1.83,5.59.06,0,.05.14,0,.12C177.39,201.1,177.27,197.72,177.83,195.68Z" style="fill:#263238"></path><path d="M179.94,193.52c3.55,0,3.34,7.07.05,7.1S177,193.55,179.94,193.52Z" style="fill:#263238"></path><path d="M161.24,189.89a27.68,27.68,0,0,0,2.83-.67,4.71,4.71,0,0,0,2.76-1.24,1.52,1.52,0,0,0-.05-1.84,3.75,3.75,0,0,0-3.69-.77,5.49,5.49,0,0,0-3.38,2A1.6,1.6,0,0,0,161.24,189.89Z" style="fill:#dbdbdb"></path><path d="M182.92,190.15a26.31,26.31,0,0,1-2.76-.93,4.65,4.65,0,0,1-2.64-1.47,1.5,1.5,0,0,1,.21-1.82,3.71,3.71,0,0,1,3.74-.45,5.43,5.43,0,0,1,3.19,2.31A1.6,1.6,0,0,1,182.92,190.15Z" style="fill:#dbdbdb"></path><path d="M161.15,214.57c.49.55,1,1.29,1.76,1.41a5.62,5.62,0,0,0,2.39-.39c.07,0,.14.06.09.12a3,3,0,0,1-2.87,1,2.34,2.34,0,0,1-1.59-2.06C160.91,214.52,161.08,214.49,161.15,214.57Z" style="fill:#263238"></path><path d="M163.9,208.16a7.47,7.47,0,0,0,4.76,3.66,9.24,9.24,0,0,0,2.68.31,3,3,0,0,0,.52,0,4.35,4.35,0,0,0,.48-.05.54.54,0,0,0,.47-.46h0a1.77,1.77,0,0,0,0-.23h0v-.2c.16-1.68.17-4.26.17-4.26.6.35,3.65,2,3.66,1.09.06-7.33.13-15.49-1.36-22.8a.2.2,0,0,0-.4,0c-.34,7,.56,14.11.34,21.19a13,13,0,0,0-3.46-1.31c-.24,0,.07,5-.06,5.73a.2.2,0,0,1,0,.08c-2.86.17-4.94-.83-7.57-2.92C164,207.84,163.78,208,163.9,208.16Z" style="fill:#263238"></path><path d="M134.12,194.33s-8.29-19.45-5.81-29.66c1.13-4.61,7.95-6.86,7.95-6.86a10.7,10.7,0,0,1,4.86-10.16c6.27-4.42,19.51-1.34,19.51-1.34s10.47-11.31,22.05-4.59,1.59,19.52,1.59,19.52,3.6,7-8.13,10.48c-11.42,3.34-32.66-4.57-32.66-4.57a77,77,0,0,1-3.58,22.66C138.52,194,134.12,194.33,134.12,194.33Z" style="fill:#dbdbdb"></path><path d="M162.72,146.78A21.58,21.58,0,0,0,154.3,144a23.64,23.64,0,0,0-8,.1c-4.64,1-9,3.66-10.47,8.41a9.08,9.08,0,0,0,.74,7.05c0,.08.19,0,.13-.1-2.34-3.92-.06-9.18,3.29-11.71,3.8-2.85,9.06-3.39,13.65-2.94a38.86,38.86,0,0,1,8.93,2.25A.14.14,0,0,0,162.72,146.78Z" style="fill:#dbdbdb"></path><path d="M190.63,148.91c-.54-3.59-3.17-6.22-6.33-7.75a18.11,18.11,0,0,0-11.69-1.25,22.76,22.76,0,0,0-10.52,5.7c-.07.06,0,.17.1.11,5.4-4.8,13.08-6.89,20-4.36,3.1,1.13,6.06,3.24,7.1,6.5a10.92,10.92,0,0,1-1.57,9.09c-2.15,3.16-5.58,5.3-9,6.79a.07.07,0,0,0,.05.13,21.09,21.09,0,0,0,8.83-5.6A11.91,11.91,0,0,0,190.63,148.91Z" style="fill:#dbdbdb"></path><path d="M178.72,172.68a37.6,37.6,0,0,1-15.84.48,77,77,0,0,1-15.95-4.55c-3-1.19-6-2.49-8.88-3.85-.09,0-.15.09-.06.14a83.18,83.18,0,0,0,15.91,7.51A41.83,41.83,0,0,0,170,174.55a35.63,35.63,0,0,0,8.78-1.76C178.83,172.77,178.79,172.66,178.72,172.68Z" style="fill:#dbdbdb"></path><path d="M141.62,198.88s-5.22-11.54-10.33-9.87-2.51,17.48,2.55,20.52a5.62,5.62,0,0,0,8-1.58Z" style="fill:#d3766a"></path><path d="M132.15,193.52a.08.08,0,0,0-.06.14c3.52,2.26,4.87,6.17,5.59,10.1-.87-1.62-2.27-2.68-4.41-1.69-.11.05-.05.23.06.22a3.46,3.46,0,0,1,3.52,1.89,16.7,16.7,0,0,1,1.23,3.36c.11.38.76.31.71-.11,0,0,0-.06,0-.09C139.78,202.5,137.27,195,132.15,193.52Z" style="fill:#263238"></path><path d="M141.74,221.19c-4.06-2.85-8.11-6.05-10.3-11.22a28.28,28.28,0,0,1-2.77-11.82,21.18,21.18,0,0,0,1.16,4.74,14.56,14.56,0,0,0,2.32,4.45s0,0,0,0a26.17,26.17,0,0,0,9.89,13C142.46,220.64,142.14,221.47,141.74,221.19Z" style="fill:#ebebeb"></path><path d="M139.82,201.19c-.63-1.22-2.26-7.34-4.13-9.79l0,0c-.28-.43-.58-.85-.89-1.24a4.93,4.93,0,0,0-1.84-1.5,2.84,2.84,0,0,1,1.94.07c3.24,1.19,4.44,9.19,5.26,12.28C140.2,201.19,139.92,201.42,139.82,201.19Z" style="fill:#ebebeb"></path><path d="M139.25,199.71c-.49-1.53,8.55,4.86,20.29,4.21,2.4-.13,9.26-1.72,12.88-1.22s7.5,3.86,12.44,5.06c1.69.41-1.72,14.24-6.94,19.78-1.72,1.82-8.43,5.11-12.23,5-8.93-.36-23.2-8.38-25.12-11.47C139,218.55,143.87,214.22,139.25,199.71Z" style="fill:#ebebeb"></path><path d="M183.24,210.67c-3-1.7-7-4-10.28-4.58-2.36-.42-5.79.31-9.26.64-7.94.74-13.82,0-21.07-3.06-.09,0-.14.1-.06.15,5.68,3.32,12.44,4.31,18.91,3.8,3.53-.28,7.9-1.38,11.41-.68,3.84.76,6.73,2.56,10.23,4C183.42,211.11,183.54,210.84,183.24,210.67Z" style="fill:#dbdbdb"></path><path d="M175.44,226.13c-2.52.76-5.08,2-7.65,2.44-3.08.5-6.44-.89-9.27-1.94-5.36-2-10.36-4.86-15.51-7.37,0,0-.07.05,0,.08a75.16,75.16,0,0,0,17.81,8.75c2.11.66,4.42,1.51,6.65,1.19,2.7-.38,5.53-1.85,8-3C175.55,226.25,175.53,226.11,175.44,226.13Z" style="fill:#dbdbdb"></path><path d="M180.71,215.13c-5.4-2.33-10.69-2.66-16.48-2.73a70.73,70.73,0,0,1-19.38-3c-.06,0-.11.08,0,.1A60.28,60.28,0,0,0,162,212.72c2.85.11,5.7,0,8.54.2a34.73,34.73,0,0,1,10,2.54C180.77,215.53,180.9,215.22,180.71,215.13Z" style="fill:#dbdbdb"></path><path d="M178.65,220.33a29.38,29.38,0,0,1-16.91,1.14c-5.76-1.31-11.08-4.16-16.41-6.74-.07,0-.12.08-.05.12,10.57,6,21.48,10.57,33.47,5.82C179,220.57,178.88,220.24,178.65,220.33Z" style="fill:#dbdbdb"></path><g style="opacity:0.2"><path d="M170,180.35a25.83,25.83,0,0,0,3.83.34c1.3,0,2.58-.32,3.88-.32a20.56,20.56,0,0,1,7.16,1.69c.2.08.16.22,0,.15a17.54,17.54,0,0,0-7.6-1.18,22.59,22.59,0,0,1-6.36,0c-4.82-.81-9.64-1-14.13,1.32,0,0-.05,0,0,0C160.78,180.15,165.51,179.82,170,180.35Z"></path><path d="M170,176.8a26,26,0,0,0,3.63.32c1.24,0,2.45-.31,3.69-.31a19.35,19.35,0,0,1,6.78,1.61c.19.07.16.2,0,.13a16.64,16.64,0,0,0-7.21-1.11,21.3,21.3,0,0,1-6,0c-4.57-.76-9.14-.9-13.4,1.26,0,0,0,0,0,0C161.22,176.61,165.7,176.29,170,176.8Z"></path></g><path d="M158.21,239.07l-10.29,14.11-19.4-23.47-6.62,6.43s17.84,36.18,18.11,34.64l8.32-14.15,9.29,11.14L159,241.94Z" style="fill:#ebebeb"></path><path d="M159,255c.09-4.27.29-8.57.18-12.85,0-.15-.23-.23-.28-.06-1.21,4-1.45,20.37-1.8,24.26l0,0c-.39-.48-8.66-9.84-8.76-9.72-1.73,2.21-7.83,12.51-8.27,13.46-2.82-5.75-14.93-28.49-18.38-34a.15.15,0,0,0-.27.13c2.41,6,18,36,18.27,35.94a167.34,167.34,0,0,0,8.71-15c1.37,2,9.63,12.47,9.72,11.84A133.94,133.94,0,0,0,159,255Z" style="fill:#263238"></path></g><g id="freepik--speech-bubble--inject-409"><path d="M281.3,113.59a37.09,37.09,0,0,1-62,23.47l-18.57,2.73,9.29-16a37.11,37.11,0,1,1,71.27-10.15Z" style="fill:#fff"></path><path d="M281.3,113.59a37.25,37.25,0,0,1-7.49,18.81,33.55,33.55,0,0,1-7.28,7.19,36.33,36.33,0,0,1-8.95,5,35.57,35.57,0,0,1-15.14,2.48,32.81,32.81,0,0,1-5.14-.53,37.51,37.51,0,0,1-18.36-9.06l.44.13-18.54,2.85-1.35.2.68-1.18,9.24-16.08,0,.63a37.55,37.55,0,0,1,46.52-49.84A37.94,37.94,0,0,1,270.19,83,37.29,37.29,0,0,1,281.3,113.59Zm0,0a36.69,36.69,0,0,0-42.08-40.15,36.41,36.41,0,0,0-15.32,6A38.29,38.29,0,0,0,212.79,91.6a36.54,36.54,0,0,0-2.09,31.86l.13.34-.18.3-9.34,16-.66-1,18.58-2.61.25,0,.19.17a36.49,36.49,0,0,0,17.76,9.15,30.56,30.56,0,0,0,5,.61,35.89,35.89,0,0,0,5.08,0,36.73,36.73,0,0,0,9.91-2.19,34.28,34.28,0,0,0,9-4.82,33.18,33.18,0,0,0,7.29-7.1A37.29,37.29,0,0,0,281.3,113.59Z" style="fill:#263238"></path><polygon points="240.05 130.89 224.2 114.85 229.53 109.59 238.79 118.96 258.02 88.81 264.33 92.83 240.05 130.89" style="fill:#407BFF"></polygon></g></svg>